<svg id="Calque_1" data-name="Calque 1" xmlns="http://www.w3.org/2000/svg" viewBox="0 0 50 50"><defs><style>.cls-1{fill:#fbae17;}</style></defs><title>picto_ynov_audiovisuel_film</title><g id="_Groupe_" data-name="&lt;Groupe&gt;"><path id="_Tracé_transparent_" data-name="&lt;Tracé transparent&gt;" class="cls-1" d="M7.8,25.39a2.4,2.4,0,1,0,2.39,2.39A2.4,2.4,0,0,0,7.8,25.39Zm0,3.81a1.42,1.42,0,1,1,1.42-1.42A1.42,1.42,0,0,1,7.8,29.2Z"/><path id="_Tracé_transparent_2" data-name="&lt;Tracé transparent&gt;" class="cls-1" d="M22.52,25h-9a.45.45,0,0,0-.49.49v8.61a.46.46,0,0,0,.49.49h9a.46.46,0,0,0,.49-.49V25.53A.45.45,0,0,0,22.52,25ZM22,33.65H14V26h8Z"/><path id="_Tracé_transparent_3" data-name="&lt;Tracé transparent&gt;" class="cls-1" d="M46.84,25.27a1.17,1.17,0,0,0,.72-1.08v-.62a.36.36,0,0,0-.13-.29.38.38,0,0,0-.31-.1l-3.1.39H42.8a1.17,1.17,0,0,0-1.1-.78H36.91l-1.52.38H33.1a1.18,1.18,0,0,0-1.18,1.17H27.36v-1A2.4,2.4,0,0,0,25.24,21h0V16.1h1.27a.45.45,0,0,0,.49-.49V13.32a.45.45,0,0,0-.49-.49H7.31a.46.46,0,0,0-.49.49v2.29a.46.46,0,0,0,.49.49h15V21h-14l-1.57-2.1a1.2,1.2,0,0,0-.9-.45h-1a2.4,2.4,0,0,0-2.39,2.4v14a2.39,2.39,0,0,0,2.39,2.39H25a2.4,2.4,0,0,0,2.4-2.39v-1h4.56a1.18,1.18,0,0,0,1.18,1.17h2.3l1.51.38H41.7a1.17,1.17,0,0,0,1.1-.78H44l3.1.39a.38.38,0,0,0,.31-.1.36.36,0,0,0,.13-.29V33.9a1.17,1.17,0,0,0-.72-1.08,1.06,1.06,0,0,1,0-2.08,1.16,1.16,0,0,0,.72-1.08V28.43a1.16,1.16,0,0,0-.72-1.08,1.06,1.06,0,0,1,0-2.08ZM7.8,15.12V13.81H26v1.31H7.8Zm16.45,1v4.84h-1V16.1Zm2.13,18.68A1.41,1.41,0,0,1,25,36.19H4.83a1.42,1.42,0,0,1-1.42-1.41v-.15H6.74a.49.49,0,1,0,0-1H3.41V32.09H5.47a.49.49,0,1,0,0-1H3.41V20.79a1.43,1.43,0,0,1,1.42-1.42h1l1.76,2.35a.44.44,0,0,0,.39.19H25a1.42,1.42,0,0,1,1.42,1.42ZM31.92,33H30.75A.39.39,0,0,0,30,33h-.78a.4.4,0,0,0-.79,0h-1V25.13h1v.4a.4.4,0,0,0,.79,0v-.4H30v.4a.39.39,0,0,0,.78,0v-.4h1.17Zm3.13,1.18H33.1a.39.39,0,0,1-.39-.39V24.35A.39.39,0,0,1,33.1,24h1.95Zm1.57.28-.79-.2V23.88l.79-.2Zm5.47-.28a.4.4,0,0,1-.39.39H37.4v-11h4.3a.4.4,0,0,1,.39.39Zm1.56-.39h-.78V24.35h.78Zm2.9-5.67a.39.39,0,0,1,.23.36v1.23a.39.39,0,0,1-.23.36,1.93,1.93,0,0,0-1.33,1.76,2,2,0,0,0,1.33,1.77.36.36,0,0,1,.23.35v.18l-2.34-.3V24.31l2.34-.3v.18a.36.36,0,0,1-.23.35,2,2,0,0,0-1.33,1.77A1.93,1.93,0,0,0,46.55,28.07Z"/><path id="_Tracé_" data-name="&lt;Tracé&gt;" class="cls-1" d="M40.92,24.74H38.57a.4.4,0,0,0,0,.79h2.35a.4.4,0,0,0,0-.79Z"/><path id="_Tracé_2" data-name="&lt;Tracé&gt;" class="cls-1" d="M40.92,26.31H38.57a.38.38,0,0,0-.39.39.39.39,0,0,0,.39.39h2.35a.4.4,0,0,0,.39-.39A.39.39,0,0,0,40.92,26.31Z"/><path id="_Tracé_3" data-name="&lt;Tracé&gt;" class="cls-1" d="M40.92,27.87H38.57a.39.39,0,0,0-.39.39.38.38,0,0,0,.39.39h2.35a.39.39,0,0,0,.39-.39A.4.4,0,0,0,40.92,27.87Z"/><path id="_Tracé_4" data-name="&lt;Tracé&gt;" class="cls-1" d="M40.92,29.44H38.57a.38.38,0,0,0-.39.39.39.39,0,0,0,.39.39h2.35a.4.4,0,0,0,.39-.39A.39.39,0,0,0,40.92,29.44Z"/><path id="_Tracé_5" data-name="&lt;Tracé&gt;" class="cls-1" d="M40.92,31H38.57a.39.39,0,0,0,0,.78h2.35a.39.39,0,0,0,0-.78Z"/><path id="_Tracé_6" data-name="&lt;Tracé&gt;" class="cls-1" d="M40.92,32.56H38.57a.4.4,0,0,0,0,.79h2.35a.4.4,0,0,0,0-.79Z"/><path id="_Tracé_7" data-name="&lt;Tracé&gt;" class="cls-1" d="M30.36,27.09a.38.38,0,0,0-.39.39v.78a.39.39,0,1,0,.78,0v-.78A.38.38,0,0,0,30.36,27.09Z"/><path id="_Tracé_8" data-name="&lt;Tracé&gt;" class="cls-1" d="M30.36,29.83a.38.38,0,0,0-.39.39V31a.39.39,0,0,0,.78,0v-.78A.38.38,0,0,0,30.36,29.83Z"/><path id="_Tracé_9" data-name="&lt;Tracé&gt;" class="cls-1" d="M28.8,27.09a.39.39,0,0,0-.4.39v.78a.4.4,0,0,0,.79,0v-.78A.39.39,0,0,0,28.8,27.09Z"/><path id="_Tracé_10" data-name="&lt;Tracé&gt;" class="cls-1" d="M28.8,29.83a.39.39,0,0,0-.4.39V31a.4.4,0,0,0,.79,0v-.78A.39.39,0,0,0,28.8,29.83Z"/></g></svg>