<svg id="Calque_1" data-name="Calque 1" xmlns="http://www.w3.org/2000/svg" viewBox="0 0 50 50"><defs><style>.cls-1{fill:#fbae17;}</style></defs><title>picto_ynov_audiovisuel_clap</title><g id="_Groupe_" data-name="&lt;Groupe&gt;"><path id="_Tracé_transparent_" data-name="&lt;Tracé transparent&gt;" class="cls-1" d="M40.16,20A1.17,1.17,0,0,0,38.88,19L34,19.41h0L12.25,21.53a2,2,0,0,0,.17-1.06,2.16,2.16,0,0,0-.51-1.2l26.28-5.83a1.2,1.2,0,0,0,.74-.52,1.16,1.16,0,0,0,.15-.89l-.71-3.21A1.19,1.19,0,0,0,37,7.93L14.29,13,9.66,14a1.23,1.23,0,0,0-.74.52,1.16,1.16,0,0,0-.15.89l.73,3.31A2.12,2.12,0,0,0,10,22.77l1.66,17.11a2.46,2.46,0,0,0,2.68,2.21l25.29-2.45A2.47,2.47,0,0,0,41.8,37ZM39,20a.08.08,0,0,1,.09.08l.29,3-4.66.45L37,20.22Zm-4.51.44h0l1.11-.1-2.34,3.35-5.14.49,2.34-3.34ZM29,21,26.7,24.34l-5.14.5L23.9,21.5Zm-6.57.63L20.13,25l-5.14.5,2.34-3.35ZM36.25,9.21l1-.21a.08.08,0,0,1,.07,0,.06.06,0,0,1,0,.05L38,12.27a.35.35,0,0,1,0,.06l-.06,0-3.8.84,2-3.84A.44.44,0,0,0,36.25,9.21ZM29.8,10.64l5.08-1.13-2.13,4L27.7,14.65l2.05-3.85A.75.75,0,0,0,29.8,10.64Zm-6.45,1.43L28.43,11,26.3,15l-5.05,1.12,2.05-3.86A.33.33,0,0,0,23.35,12.07ZM16.9,13.51H17l5-1.11-2.13,4L14.8,17.51l2.05-3.86A.34.34,0,0,0,16.9,13.51Zm-7,1.59h0s0,0,.05,0l5.63-1.24-2.13,4-2.83.63-.73-3.29A.06.06,0,0,1,9.85,15.1Zm.56,6.6a1,1,0,1,1-.2-2.05,1,1,0,0,1,.2,2.05Zm.65,1,4.83-.47-2.33,3.35-2.2.21ZM39.49,38.55,14.2,41a1.37,1.37,0,0,1-1.49-1.23L12,32.62v0L11.47,27l28-2.71,1.23,12.79A1.35,1.35,0,0,1,39.49,38.55Z"/><path id="_Tracé_" data-name="&lt;Tracé&gt;" class="cls-1" d="M33.14,28.84a.55.55,0,0,0,.49-.6.53.53,0,0,0-.59-.49L18.92,29.12a.55.55,0,1,0,.1,1.09Z"/><path id="_Tracé_2" data-name="&lt;Tracé&gt;" class="cls-1" d="M33.48,32.36a.55.55,0,0,0,.49-.6.53.53,0,0,0-.59-.49L19.26,32.63a.56.56,0,0,0-.5.6.55.55,0,0,0,.6.49Z"/><path id="_Tracé_3" data-name="&lt;Tracé&gt;" class="cls-1" d="M33.75,35.08,19.63,36.45a.55.55,0,1,0,.1,1.09l14.12-1.37a.55.55,0,0,0,.49-.6A.53.53,0,0,0,33.75,35.08Z"/></g></svg>