<svg id="Calque_1" data-name="Calque 1" xmlns="http://www.w3.org/2000/svg" viewBox="0 0 50 50"><defs><style>.cls-1{fill:#fbae17;}</style></defs><title>picto_ynov_audiovisuel_mobile</title><g id="_Groupe_" data-name="&lt;Groupe&gt;"><path id="_Tracé_transparent_" data-name="&lt;Tracé transparent&gt;" class="cls-1" d="M25.24,30.28a6.49,6.49,0,1,0-4.58-1.9A6.4,6.4,0,0,0,25.24,30.28Zm0-12.15a5.68,5.68,0,1,1-5.68,5.67A5.68,5.68,0,0,1,25.24,18.13Z"/><path id="_Tracé_transparent_2" data-name="&lt;Tracé transparent&gt;" class="cls-1" d="M23.53,27.11a1,1,0,0,0,.46.11,1,1,0,0,0,.54-.17l3.62-2.44a1,1,0,0,0,0-1.61l-3.62-2.45a1,1,0,0,0-.54-.16.92.92,0,0,0-.46.11,1,1,0,0,0-.51.85v4.9A1,1,0,0,0,23.53,27.11Zm.29-5.76a.15.15,0,0,1,.09-.14.11.11,0,0,1,.08,0,.16.16,0,0,1,.09,0l3.62,2.45a.15.15,0,0,1,.07.13.15.15,0,0,1-.07.14l-3.62,2.45a.16.16,0,0,1-.09,0l-.08,0a.16.16,0,0,1-.09-.15Z"/><path id="_Tracé_" data-name="&lt;Tracé&gt;" class="cls-1" d="M26.83,19.58a4.52,4.52,0,0,1,2.6,2.56.4.4,0,0,0,.37.25.33.33,0,0,0,.15,0,.38.38,0,0,0,.22-.21.42.42,0,0,0,0-.31,5.33,5.33,0,0,0-3.06-3,.4.4,0,0,0-.15,0,.41.41,0,0,0-.37.26.37.37,0,0,0,0,.31A.38.38,0,0,0,26.83,19.58Z"/><path id="_Tracé_2" data-name="&lt;Tracé&gt;" class="cls-1" d="M25.24,19.29a4.87,4.87,0,0,1,.76.06h.07a.4.4,0,0,0,.39-.33.35.35,0,0,0-.07-.3.39.39,0,0,0-.26-.17,5.26,5.26,0,0,0-.89-.07.4.4,0,1,0,0,.8Z"/><path id="_Tracé_transparent_3" data-name="&lt;Tracé transparent&gt;" class="cls-1" d="M32.39,7.55H17.61A2.42,2.42,0,0,0,15.19,10V40a2.42,2.42,0,0,0,2.42,2.42H32.39A2.42,2.42,0,0,0,34.81,40V10A2.42,2.42,0,0,0,32.39,7.55ZM16,10A1.57,1.57,0,0,1,17.61,8.4H32.39A1.57,1.57,0,0,1,34,10v1.11H16ZM34,40a1.57,1.57,0,0,1-1.58,1.57H17.61A1.57,1.57,0,0,1,16,40V35.4H34Zm0-5.47H16V11.92H34Z"/><path id="_Tracé_transparent_4" data-name="&lt;Tracé transparent&gt;" class="cls-1" d="M25,40.68a2.18,2.18,0,1,0-2.18-2.18A2.18,2.18,0,0,0,25,40.68Zm0-3.52a1.34,1.34,0,1,1-1.34,1.34A1.34,1.34,0,0,1,25,37.16Z"/></g></svg>