<?xml version="1.0" encoding="utf-8"?>
<!-- Generator: Adobe Illustrator 22.1.0, SVG Export Plug-In . SVG Version: 6.00 Build 0)  -->
<svg version="1.1" id="Calque_1" xmlns="http://www.w3.org/2000/svg" xmlns:xlink="http://www.w3.org/1999/xlink" x="0px" y="0px"
	 viewBox="0 0 174.4 71.1" style="enable-background:new 0 0 174.4 71.1;" xml:space="preserve">
<style type="text/css">
	.st0{fill:#26336E;}
</style>
<g>
	<g>
		<path class="st0" d="M81.4,36.6c8.7,0,15.8-7,15.8-15.6S90,5.4,81.4,5.4c-8.7,0-15.8,7-15.8,15.6S72.7,36.6,81.4,36.6z M81.4,12.8
			c4.5,0,8.3,3.6,8.3,8.2s-3.6,8.2-8.3,8.2c-4.5,0-8.3-3.6-8.3-8.2S76.7,12.8,81.4,12.8z"/>
		<path class="st0" d="M30.7,36.7h7.5V21.4c0-4.6,3.6-8.4,8.3-8.4c4.5,0,8.3,3.8,8.3,8.4v15.3h7.5V21.4c0-8.8-7.1-16-15.8-16
			s-15.8,7.2-15.8,16C30.7,21.4,30.7,36.7,30.7,36.7z"/>
		<path class="st0" d="M13.7,21.7c0-1-0.2-2.1-0.6-3L8.1,5.4H0l9,23.4C11.8,27.7,13.7,25,13.7,21.7z"/>
		<polygon class="st0" points="115.9,36.7 128,5.4 119.9,5.4 107.8,36.7 		"/>
		<path class="st0" d="M109.6,21.7c0-1-0.2-2.1-0.6-3L104,5.4h-8.1l9,23.4C107.6,27.7,109.6,25,109.6,21.7z"/>
		<polygon class="st0" points="24,5.4 4.2,57.1 12.3,57.1 32.1,5.4 		"/>
	</g>
	<g>
		<path d="M30.1,50.2h-4.5l-0.9,2.1h-1.5l4-9.3h1.5l4,9.3H31L30.1,50.2z M29.4,48.8l-1.7-4.1l-1.7,4.1H29.4z"/>
		<path d="M39.8,43v1.4h-4.9V47h4.4v1.4h-4.4V51H40v1.4h-6.6v-9.3h6.4V43z M38.7,40.7l-1.5,1.2h-1.3l1.3-2L38.7,40.7z"/>
		<path d="M47.2,52.3l-1.7-2.8c-0.1,0-0.2,0-0.4,0H43v2.8h-1.5V43h3.6c2.3,0,3.6,1.1,3.6,3.2c0,1.4-0.7,2.5-1.9,3l2,3.1
			C48.9,52.3,47.2,52.3,47.2,52.3z M45.1,48.1c1.4,0,2.2-0.7,2.2-1.9c0-1.2-0.8-1.8-2.2-1.8H43v3.6H45.1z"/>
		<path d="M59.3,47.7c0,2.7-2.1,4.8-4.8,4.8c-2.7,0-4.8-2.1-4.8-4.8c0-2.7,2.1-4.6,4.8-4.6C57.2,42.9,59.3,45,59.3,47.7z M51.3,47.7
			c0,1.9,1.4,3.3,3.2,3.3s3.2-1.4,3.2-3.3c0-1.9-1.4-3.3-3.2-3.3C52.8,44.3,51.3,45.8,51.3,47.7z"/>
		<path d="M62.2,43l4.9,6.6V43h1.5v9.3H67l-4.8-6.6v6.6h-1.5V43H62.2z"/>
		<path d="M76.3,50.2h-4.5l-0.9,2.1h-1.5l4-9.3h1.5l4,9.3h-1.7L76.3,50.2z M75.8,48.8l-1.7-4.1l-1.7,4.1H75.8z"/>
		<path d="M83.2,51c1.4,0,2.4-0.9,2.4-2.5V43h1.5v5.4c0,2.4-1.4,3.9-3.9,3.9s-4-1.4-4-3.9V43h1.5v5.4C80.7,50,81.7,51,83.2,51z"/>
		<path d="M95.1,43v1.4h-2.9v7.9h-1.5v-7.9h-2.9V43H95.1z"/>
		<path d="M97.5,43v9.3H96V43H97.5z"/>
		<path d="M108.9,53.3c-0.7,0.7-1.7,1-2.4,1c-1.1,0-2.1-0.8-2.9-2c-2.7,0-4.8-2.1-4.8-4.8c0-2.7,2.1-4.6,4.8-4.6
			c2.7,0,4.8,2,4.8,4.6c0,2.1-1.3,3.9-3.2,4.4c0.4,0.6,1,0.9,1.5,0.9c0.4,0,1.1-0.3,1.7-0.8L108.9,53.3z M103.6,51
			c1.8,0,3.2-1.4,3.2-3.3c0-1.9-1.4-3.3-3.2-3.3s-3.2,1.4-3.2,3.3C100.4,49.4,101.9,51,103.6,51z"/>
		<path d="M113.6,51c1.4,0,2.4-0.9,2.4-2.5V43h1.5v5.4c0,2.4-1.4,3.9-3.9,3.9c-2.4,0-4-1.4-4-3.9V43h1.5v5.4
			C111.1,50,112.1,51,113.6,51z"/>
		<path d="M125.7,43v1.4h-4.9V47h4.4v1.4h-4.4V51h5.1v1.4h-6.6v-9.3h6.4V43z"/>
		<path d="M137.5,52.5c-0.6-0.6-1-1-1.4-1.4c-0.8,0.8-1.8,1.2-2.8,1.2c-1.7,0-2.9-1.1-2.9-2.7c0-1.3,0.9-2,2-2.5
			c-0.6-0.8-0.9-1.4-0.9-2.1c0-1.2,0.9-2.1,2.3-2.1c1.3,0,2.3,0.8,2.3,2c0,1.3-1.1,2-2.2,2.5c0.4,0.6,1.1,1.2,1.9,2
			c0.3-0.4,0.6-1,0.8-1.7l1,0.8c-0.2,0.7-0.6,1.2-0.9,1.8l1.4,1.4L137.5,52.5z M135.3,50.3c-0.9-0.9-1.7-1.7-2.2-2.3
			c-0.8,0.4-1.3,0.9-1.3,1.7c0,0.9,0.8,1.5,1.7,1.5C134,51.2,134.7,50.9,135.3,50.3z M133.5,46.7c0.9-0.4,1.7-1,1.7-1.8
			c0-0.7-0.4-1-1.1-1c-0.8,0-1.2,0.4-1.2,1.1C132.8,45.4,133,46,133.5,46.7z"/>
		<path d="M27.1,57.6c-0.9,0-1.4,0.3-1.4,1c0,2,4.9,1,4.9,4.3c0,1.7-1.4,2.7-3.4,2.7c-1.4,0-2.8-0.6-3.6-1.4l0.7-1.3
			c0.9,0.9,2.1,1.3,3.1,1.3c1.1,0,1.7-0.4,1.7-1.1c0-2.1-4.9-0.9-4.9-4.2c0-1.5,1.3-2.5,3.3-2.5c1.2,0,2.3,0.3,3.2,1l-0.7,1.3
			C28.8,57.9,27.8,57.6,27.1,57.6z"/>
		<path d="M35.6,62.5v3.1h-1.5v-3.1l-3.3-6.2h1.5l2.5,4.5l2.5-4.5h1.5L35.6,62.5z"/>
		<path d="M42.6,57.6c-0.9,0-1.4,0.3-1.4,1c0,2,4.9,1,4.9,4.3c0,1.7-1.4,2.7-3.4,2.7c-1.4,0-2.8-0.6-3.6-1.4l0.7-1.3
			c0.9,0.9,2.1,1.3,3.1,1.3c1.1,0,1.7-0.4,1.7-1.1c0-2.1-4.9-0.9-4.9-4.2c0-1.5,1.3-2.5,3.3-2.5c1.2,0,2.3,0.3,3.2,1l-0.7,1.3
			C44.2,57.9,43.4,57.6,42.6,57.6z"/>
		<path d="M53.6,56.3v1.4h-2.9v7.9h-1.5v-7.9h-2.9v-1.4H53.6z"/>
		<path d="M61,56.3v1.4h-4.9v2.5h4.4v1.4h-4.4v2.5h5.1v1.4h-6.6v-9.3H61V56.3z M58.7,55.2h-1.3l-1.5-1.3l1.5-0.7L58.7,55.2z"/>
		<path d="M64.5,56.3l3,6.2l3-6.2h1.8v9.3h-1.4v-7l-2.9,6H67l-2.9-6v7h-1.4v-9.3H64.5z"/>
		<path d="M80.7,56.3v1.4h-4.9v2.5h4.4v1.4h-4.4v2.5H81v1.4h-6.6v-9.3h6.4V56.3z"/>
		<path d="M85.3,57.6c-0.9,0-1.4,0.3-1.4,1c0,2,4.9,1,4.9,4.3c0,1.7-1.4,2.7-3.4,2.7c-1.4,0-2.8-0.6-3.6-1.4l0.7-1.3
			c0.9,0.9,2.1,1.3,3.1,1.3c1.1,0,1.7-0.4,1.7-1.1c0-2.1-4.9-0.9-4.9-4.2c0-1.5,1.3-2.5,3.3-2.5c1.2,0,2.3,0.3,3.2,1L88,58.6
			C86.9,57.9,85.9,57.6,85.3,57.6z"/>
		<path d="M100.1,56.3v1.4h-4.9v2.5h4.4v1.4h-4.4v2.5h5v1.4h-6.6v-9.3h6.5V56.3z"/>
		<path d="M103.6,56.3l3,6.2l3-6.2h1.8v9.3h-1.4v-7l-2.9,6h-1l-2.9-6v7h-1.4v-9.3H103.6z"/>
		<path d="M120.3,58.6c0,1-0.6,1.8-1.5,2.1c1.2,0.2,1.9,1.1,1.9,2.3c0,1.5-1.2,2.5-3.3,2.5h-4v-9.3h3.9
			C119.1,56.3,120.3,57.2,120.3,58.6z M118.8,58.8c0-0.8-0.6-1.2-1.5-1.2h-2.3V60h2.3C118.1,60.1,118.8,59.6,118.8,58.8z
			 M119.1,62.8c0-0.8-0.7-1.3-1.9-1.3h-2.3v2.7h2.3C118.3,64.1,119.1,63.7,119.1,62.8z"/>
		<path d="M128,63.5h-4.5l-0.9,2.1H121l4-9.3h1.5l4,9.3h-1.7L128,63.5z M127.4,62l-1.7-4.1l-1.7,4.1H127.4z"/>
		<path d="M137,65.6l-1.7-2.8c-0.1,0-0.2,0-0.4,0h-2.1v2.8h-1.5v-9.3h3.6c2.3,0,3.6,1.1,3.6,3.2c0,1.4-0.7,2.5-1.9,3l2,3.1
			C138.7,65.6,137,65.6,137,65.6z M134.9,61.4c1.4,0,2.2-0.7,2.2-1.9c0-1.2-0.8-1.8-2.2-1.8h-2.1v3.6H134.9z"/>
		<path d="M149.6,66.6c-0.7,0.7-1.7,1-2.4,1c-1.1,0-2.1-0.8-2.9-2c-2.7,0-4.8-2.1-4.8-4.8c0-2.7,2.1-4.6,4.8-4.6
			c2.7,0,4.8,2,4.8,4.6c0,2.1-1.3,3.9-3.2,4.4c0.4,0.6,1,0.9,1.5,0.9c0.4,0,1.1-0.3,1.7-0.8L149.6,66.6z M144.3,64.2
			c1.8,0,3.2-1.4,3.2-3.3c0-1.9-1.4-3.3-3.2-3.3c-1.8,0-3.2,1.4-3.2,3.3C141.1,62.7,142.6,64.2,144.3,64.2z"/>
		<path d="M154.3,64.2c1.4,0,2.4-0.9,2.4-2.5v-5.4h1.5v5.4c0,2.4-1.4,3.9-3.9,3.9c-2.4,0-4-1.4-4-3.9v-5.4h1.5v5.4
			C151.8,63.2,152.7,64.2,154.3,64.2z"/>
		<path d="M166.4,56.3v1.4h-4.9v2.5h4.4v1.4h-4.4v2.5h5.1v1.4H160v-9.3h6.4V56.3z M165.3,54l-1.5,1.3h-1.3l1.3-2L165.3,54z"/>
		<path d="M171,57.6c-0.9,0-1.4,0.3-1.4,1c0,2,4.9,1,4.9,4.3c0,1.7-1.4,2.7-3.4,2.7c-1.4,0-2.8-0.6-3.6-1.4l0.7-1.3
			c0.9,0.9,2.1,1.3,3.1,1.3c1.1,0,1.7-0.4,1.7-1.1c0-2.1-4.9-0.9-4.9-4.2c0-1.5,1.3-2.5,3.3-2.5c1.2,0,2.3,0.3,3.2,1l-0.7,1.3
			C172.6,57.9,171.6,57.6,171,57.6z"/>
	</g>
</g>
</svg>
