<?xml version="1.0" encoding="utf-8"?>
<!-- Generator: Adobe Illustrator 22.1.0, SVG Export Plug-In . SVG Version: 6.00 Build 0)  -->
<svg version="1.1" id="Calque_1" xmlns="http://www.w3.org/2000/svg" xmlns:xlink="http://www.w3.org/1999/xlink" x="0px" y="0px"
	 viewBox="0 0 147.8 73.7" style="enable-background:new 0 0 147.8 73.7;" xml:space="preserve">
<style type="text/css">
	.st0{fill:#832C87;}
</style>
<g>
	<path class="st0" d="M83.7,37.4c9,0,16.3-7.2,16.3-16.1c-0.1-9-7.4-16.2-16.3-16.2c-9,0-16.3,7.2-16.3,16.1S74.7,37.4,83.7,37.4z
		 M83.7,12.8c4.7,0,8.5,3.8,8.5,8.4s-3.8,8.4-8.5,8.4c-4.7,0-8.5-3.8-8.5-8.4S78.9,12.8,83.7,12.8z"/>
	<path class="st0" d="M31.7,37.4h7.7V21.6c0-4.8,3.8-8.7,8.5-8.7c4.7,0,8.5,3.9,8.5,8.7v15.7h7.7V21.6c0-9.1-7.3-16.5-16.3-16.5
		s-16.3,7.4-16.3,16.5C31.7,21.6,31.7,37.4,31.7,37.4z"/>
	<path class="st0" d="M14.1,21.8c0-1-0.2-2.2-0.6-3.1L8.3,5.1H0l9.2,24.1C12.2,28.1,14.1,25.2,14.1,21.8z"/>
	<polygon class="st0" points="119.2,37.4 131.6,5.1 123.2,5.1 110.9,37.4 	"/>
	<path class="st0" d="M112.7,21.8c0-1-0.2-2.2-0.6-3.1L106.9,5h-8.3l9.2,24.1C110.7,28.1,112.7,25.2,112.7,21.8z"/>
	<polygon class="st0" points="24.7,5.1 4.3,58.2 12.6,58.2 33,5.1 	"/>
	<g>
		<path d="M39.6,51.8h-5L33.7,54h-2l4.4-10.2h2L42.6,54h-2L39.6,51.8z M38.8,50.2L37,45.9l-1.7,4.3H38.8z"/>
		<path d="M46.2,43.8l5.2,7.1v-7.1h1.9v10.2h-1.8l-5.2-6.9v6.9h-1.9V43.8H46.2z"/>
		<path d="M58.4,43.8v10.2h-1.9V43.8H58.4z"/>
		<path d="M63.8,43.8l3.2,6.6l3.2-6.6h2.3v10.2h-1.8v-7.3l-3,6.1h-1.3l-3.1-6.3V54h-1.8V43.7h2.3V43.8z"/>
		<path d="M82.2,51.8h-5L76.3,54h-2l4.4-10.2h2.2L85.3,54h-2.2L82.2,51.8z M81.5,50.2l-1.8-4.3l-1.8,4.3H81.5z"/>
		<path d="M93.3,43.8v1.7h-3.2v8.5h-1.9v-8.5h-3.2v-1.7H93.3z"/>
		<path d="M97.1,43.8v10.2h-1.9V43.8H97.1z"/>
		<path d="M110.3,48.9c0,3-2.4,5.2-5.5,5.2c-3.1,0-5.5-2.3-5.5-5.2c0-3,2.4-5.1,5.5-5.1S110.3,46,110.3,48.9z M101.5,48.9
			c0,1.9,1.6,3.4,3.5,3.4c1.8,0,3.4-1.5,3.4-3.4c0-1.9-1.6-3.4-3.4-3.4C103.1,45.4,101.5,46.9,101.5,48.9z"/>
		<path d="M114.4,43.8l5.2,7.1v-7.1h1.9v10.2h-1.8l-5.2-6.9v6.9h-1.9V43.8H114.4z"/>
		<path d="M135.7,50.8c0,1.9-1.5,3.3-3.8,3.3c-1.4,0-2.6-0.5-3.5-1.1l0.8-1.6c0.8,0.7,1.7,1.1,2.6,1.1c1.3,0,2-0.7,2-1.6
			c0-1-0.7-1.5-2-1.5h-1.5v-1.1l2.5-2.7h-4v-1.7h6.4V45l-2.8,3l0.6,0.1C134.6,48.3,135.7,49.2,135.7,50.8z"/>
		<path d="M147.8,48.9c0,3-2.3,5.1-5.5,5.1h-4.2V43.7h4.2C145.5,43.8,147.8,45.9,147.8,48.9z M145.8,49c0-2-1.5-3.4-3.4-3.4h-2.3
			v6.8h2.4C144.4,52.3,145.8,50.9,145.8,49z"/>
		<path d="M34.7,68.7c-1.3,0-2.4-0.6-3.2-1.5l0.9-1.5c0.7,0.8,1.5,1.1,2.2,1.1c0.8,0,1.4-0.6,1.4-1.5v-5.2h-3.5v-1.7h5.5v7.1
			C38,67.5,36.8,68.7,34.7,68.7z"/>
		<path d="M48.4,58.4v1.7h-5.6v2.5h5v1.7h-5V67h5.7v1.7h-7.6V58.4C40.9,58.4,48.4,58.4,48.4,58.4z"/>
		<path d="M55.5,67c1.6,0,2.5-0.9,2.5-2.6v-5.9h1.9v5.9c0,2.7-1.7,4.3-4.4,4.3c-2.8,0-4.6-1.7-4.6-4.3v-5.9h1.9v5.9
			C52.9,65.9,54,67,55.5,67z"/>
		<path d="M64.3,58.4l2.4,3.4l2.4-3.4h2.3L68,63.3l3.8,5.4h-2.4L66.7,65l-2.6,3.6h-2.3l3.6-5.2l-3.4-5
			C62.1,58.4,64.3,58.4,64.3,58.4z"/>
		<path d="M79.5,58.4l3,8.1l3.1-8.1h2l-4.1,10.2h-2l-4.1-10.2C77.3,58.4,79.5,58.4,79.5,58.4z"/>
		<path d="M91.4,58.4v10.2h-1.9V58.4C89.5,58.4,91.4,58.4,91.4,58.4z"/>
		<path d="M104.1,63.5c0,3-2.3,5.1-5.5,5.1h-4.1V58.4h4.2C101.9,58.4,104.1,60.5,104.1,63.5z M102.1,63.5c0-2-1.5-3.4-3.4-3.4h-2.3
			V67h2.4C100.7,67,102.1,65.5,102.1,63.5z"/>
		<path d="M113.9,58.4v1.7h-5.6v2.5h5v1.7h-5V67h5.7v1.7h-7.6V58.4C106.4,58.4,113.9,58.4,113.9,58.4z M112.6,55.8l-1.8,1.5h-1.6
			l1.6-2.3L112.6,55.8z"/>
		<path d="M126.7,63.5c0,3-2.4,5.2-5.5,5.2c-3.1,0-5.5-2.3-5.5-5.2s2.4-5.1,5.5-5.1C124.3,58.3,126.7,60.6,126.7,63.5z M117.7,63.5
			c0,1.9,1.6,3.4,3.5,3.4c1.8,0,3.4-1.5,3.4-3.4c0-1.9-1.6-3.4-3.4-3.4C119.3,60.1,117.7,61.6,117.7,63.5z"/>
	</g>
</g>
</svg>
