<?xml version="1.0" encoding="utf-8"?>
<!-- Generator: Adobe Illustrator 22.1.0, SVG Export Plug-In . SVG Version: 6.00 Build 0)  -->
<svg version="1.1" id="Calque_1" xmlns="http://www.w3.org/2000/svg" xmlns:xlink="http://www.w3.org/1999/xlink" x="0px" y="0px"
	 viewBox="0 0 139.6 60.8" style="enable-background:new 0 0 139.6 60.8;" xml:space="preserve">
<style type="text/css">
	.st0{fill:#FFCC00;}
</style>
<g>
	<path class="st0" d="M84.1,37.9c9.1,0,16.3-7.2,16.3-16.2S93,5.6,84.1,5.6c-9.1,0-16.4,7.2-16.4,16.2S75,37.9,84.1,37.9z
		 M84.1,13.3c4.7,0,8.6,3.8,8.6,8.5s-3.8,8.5-8.6,8.5c-4.7,0-8.6-3.8-8.6-8.5S79.4,13.3,84.1,13.3z"/>
	<path class="st0" d="M31.8,37.9h7.8V22.1c0-4.8,3.8-8.7,8.6-8.7c4.7,0,8.6,3.9,8.6,8.7v15.8h7.8V22.1c0-9.2-7.3-16.6-16.3-16.6
		C39.2,5.5,32,12.9,32,22.1v15.8H31.8z"/>
	<path class="st0" d="M14.1,22.3c0-1-0.2-2.1-0.6-3.1L8.3,5.6H0l9.3,24.3C12.2,28.6,14.1,25.8,14.1,22.3z"/>
	<polygon class="st0" points="119.8,37.9 132.3,5.6 123.9,5.6 111.5,37.9 	"/>
	<path class="st0" d="M113.2,22.3c0-1-0.2-2.1-0.6-3.1l-5.3-13.8H99l9.3,24.3C111.3,28.6,113.2,25.8,113.2,22.3z"/>
	<polygon class="st0" points="24.8,5.6 4.2,58.9 12.6,58.9 33.2,5.6 	"/>
	<g>
		<path d="M39.7,52.5h-5l-0.9,2.2h-2.1l4.5-10.3h2.1l4.5,10.3h-2.1L39.7,52.5z M39,50.9l-1.8-4.4l-1.8,4.4H39z"/>
		<path d="M48.6,53.1c1.6,0,2.5-0.9,2.5-2.6v-6h2v6c0,2.8-1.7,4.4-4.5,4.4c-2.8,0-4.6-1.7-4.6-4.4v-6h2v6C46,52,47.1,53.1,48.6,53.1
			z"/>
		<path d="M65.7,49.5c0,3-2.3,5.2-5.4,5.2h-4.2V44.3h4.2C63.4,44.5,65.7,46.5,65.7,49.5z M63.7,49.6c0-2.1-1.5-3.4-3.3-3.4H58v6.8
			h2.3C62.3,52.9,63.7,51.6,63.7,49.6z"/>
		<path d="M70,44.5v10.3h-2V44.5H70z"/>
		<path d="M83.2,49.5c0,3-2.4,5.3-5.5,5.3c-3.1,0-5.5-2.3-5.5-5.3s2.4-5.2,5.5-5.2C80.8,44.3,83.2,46.6,83.2,49.5z M74.2,49.5
			c0,2,1.6,3.4,3.4,3.4c1.8,0,3.4-1.5,3.4-3.4c0-2-1.6-3.4-3.4-3.4C75.8,46.2,74.2,47.7,74.2,49.5z"/>
		<path d="M86.3,44.5l3,8.1l3.1-8.1h2.1l-4.1,10.3h-2.1l-4-10.3H86.3z"/>
		<path d="M98.2,44.5v10.3h-2V44.5H98.2z"/>
		<path d="M104.6,46.2c-0.9,0-1.5,0.3-1.5,0.9c0,2.1,5.5,0.9,5.5,4.6c0,2-1.7,3-3.9,3c-1.6,0-3.2-0.7-4.4-1.6l0.8-1.6
			c1,0.9,2.4,1.5,3.6,1.5c1.1,0,1.7-0.5,1.7-1.1c0-2.2-5.5-0.9-5.5-4.6c0-1.8,1.5-3,3.9-3c1.4,0,2.8,0.5,3.7,1l-0.8,1.7
			C106.7,46.4,105.4,46.2,104.6,46.2z"/>
		<path d="M115.4,53.1c1.6,0,2.5-0.9,2.5-2.6v-6h2v6c0,2.8-1.7,4.4-4.5,4.4s-4.6-1.7-4.6-4.4v-6h2v6C112.9,52,113.9,53.1,115.4,53.1
			z"/>
		<path d="M130.4,44.5v1.7h-5.6v2.5h5v1.7h-5v2.6h5.7v1.7h-7.7V44.5H130.4z"/>
		<path d="M135.1,44.5v8.5h4.5v1.7h-6.4V44.3h2V44.5z"/>
	</g>
</g>
</svg>
