<svg xmlns="http://www.w3.org/2000/svg" xmlns:xlink="http://www.w3.org/1999/xlink" id="Calque_1" x="0" y="0" enable-background="new 0 0 122.8 58.4" version="1.1" viewBox="0 0 122.8 58.4" xml:space="preserve"><style type="text/css">.st0{fill:#00afa0}</style><g id="NON_OFFICIEL_Ynov_Bachelors_1_"><g><g><path d="M78.1,4.7C69.7,4.7,63,11.5,63,19.9S69.7,35,78.1,35s15.2-6.8,15.2-15.2S86.5,4.7,78.1,4.7 M78.1,27.8 c-4.4,0-7.9-3.6-7.9-7.9s3.6-7.9,7.9-7.9c4.4,0,7.9,3.6,7.9,7.9S82.5,27.8,78.1,27.8" class="st0"/><path d="M44.7,4.7c-8.4,0-15.2,6.8-15.2,15.2v14.4h7.2V19.9c0-4.4,3.6-7.9,7.9-7.9s7.9,3.6,7.9,7.9v14.4h7.2V19.9 C59.9,11.5,53.1,4.7,44.7,4.7" class="st0"/><polygon points="23 5.4 4 53.1 11.8 53.1 30.8 5.4" class="st0"/><path d="M13.2,20.4c0-1-0.2-1.9-0.5-2.7L7.8,5.4H0l8.6,21.7C11.3,26,13.2,23.5,13.2,20.4" class="st0"/><polygon points="115.1 5.4 103.6 34.3 111.3 34.3 122.8 5.4" class="st0"/><path d="M104.7,17.7L99.8,5.4H92l8.6,21.7c2.7-1.1,4.5-3.6,4.5-6.7C105.2,19.4,105,18.5,104.7,17.7" class="st0"/><g><path d="M36.9,46.4c0,1-0.6,1.8-1.6,2.1c1.2,0.2,2,1.1,2,2.3c0,1.6-1.3,2.6-3.4,2.6h-4.2V44h4.1C35.7,44,36.9,44.9,36.9,46.4z M35.1,46.7c0-0.7-0.6-1.1-1.5-1.1h-2.2v2.2h2.2C34.5,47.8,35.1,47.4,35.1,46.7z M35.4,50.5c0-0.8-0.7-1.2-1.8-1.2h-2.2v2.5h2.2 C34.7,51.8,35.4,51.3,35.4,50.5z"/><path d="M45,51.4h-4.5l-0.8,2h-1.8l4.1-9.3h1.8l4,9.3h-1.9L45,51.4z M44.4,49.8l-1.6-3.9l-1.6,3.9H44.4z"/><path d="M52.8,45.5c-1.7,0-3.1,1.4-3.1,3.1c0,1.7,1.4,3.1,3.1,3.1c0.9,0,1.8-0.4,2.5-1.1l1,1.2c-1,1-2.3,1.6-3.7,1.6 c-2.7,0-4.8-2.1-4.8-4.8c0-2.7,2.1-4.7,4.9-4.7c1.3,0,2.7,0.6,3.6,1.5l-1,1.3C54.7,46,53.7,45.5,52.8,45.5z"/><path d="M59.6,44v4h4.6v-4H66v9.3h-1.8v-3.8h-4.6v3.8h-1.8V44C57.9,44,59.6,44,59.6,44z"/><path d="M75.1,44v1.6h-5v2.3h4.5v1.6h-4.5v2.3h5.2v1.6h-7V44L75.1,44L75.1,44z"/><path d="M78.9,44v7.7h4v1.6h-5.8V44C77.1,44,78.9,44,78.9,44z"/><path d="M93.4,48.7c0,2.7-2.1,4.8-4.9,4.8c-2.8,0-4.9-2.1-4.9-4.8c0-2.7,2.1-4.7,4.9-4.7C91.3,43.9,93.4,46,93.4,48.7z M85.4,48.7c0,1.8,1.4,3.2,3.2,3.2c1.7,0,3.1-1.4,3.1-3.2s-1.4-3.2-3.1-3.2C86.8,45.5,85.4,46.9,85.4,48.7z"/><path d="M100.8,53.3l-1.6-2.7c-0.1,0-0.2,0-0.3,0h-2.1v2.7H95V44h3.9c2.4,0,3.8,1.2,3.8,3.2c0,1.5-0.6,2.5-1.8,3l2,3.1 L100.8,53.3L100.8,53.3z M96.8,49h2.1c1.3,0,2.1-0.6,2.1-1.7c0-1.1-0.7-1.7-2.1-1.7h-2.1V49z"/><path d="M107.6,45.5c-0.8,0-1.4,0.3-1.4,0.9c0,1.9,5,0.9,5,4.3c0,1.7-1.5,2.8-3.6,2.8c-1.5,0-2.9-0.6-3.9-1.5l0.7-1.5 c1,0.9,2.2,1.4,3.2,1.4c1,0,1.6-0.4,1.6-1.1c0-2-5-0.9-5-4.2c0-1.6,1.4-2.7,3.5-2.7c1.2,0,2.5,0.4,3.3,1l-0.7,1.6 C109.4,45.8,108.3,45.5,107.6,45.5z"/></g></g></g></g></svg>