<?xml version="1.0" encoding="utf-8"?>
<!-- Generator: Adobe Illustrator 22.1.0, SVG Export Plug-In . SVG Version: 6.00 Build 0)  -->
<svg version="1.1" id="Calque_1" xmlns="http://www.w3.org/2000/svg" xmlns:xlink="http://www.w3.org/1999/xlink" x="0px" y="0px"
	 viewBox="0 0 150.9 73" style="enable-background:new 0 0 150.9 73;" xml:space="preserve">
<style type="text/css">
	.st0{fill:#5DC5EA;}
</style>
<g>
	<path class="st0" d="M82.9,37.1c8.9,0,16.1-7.1,16.1-16s-7.2-16-16.1-16s-16.1,7.1-16.1,16S74,37.1,82.9,37.1z M82.9,12.8
		c4.7,0,8.4,3.7,8.4,8.4c0,4.6-3.8,8.4-8.4,8.4s-8.4-3.7-8.4-8.4C74.4,16.5,78.2,12.8,82.9,12.8z"/>
	<path class="st0" d="M31.2,37.2h7.7V21.6c0-4.7,3.8-8.6,8.4-8.6s8.4,3.8,8.4,8.6v15.6h7.7V21.6c0-9-7.2-16.3-16.1-16.3
		s-16.1,7.3-16.1,16.3V37.2z"/>
	<path class="st0" d="M13.9,21.8c0-1.1-0.2-2.1-0.6-3L8.1,5.2h-8.3l9.2,24C11.9,28,13.9,25.2,13.9,21.8z"/>
	<polygon class="st0" points="118.2,37.2 130.5,5.2 122.2,5.2 109.9,37.2 	"/>
	<path class="st0" d="M111.7,21.8c0-1.1-0.2-2.1-0.6-3l-5.2-13.6h-8.3l9.2,24C109.7,28,111.7,25.2,111.7,21.8z"/>
	<polygon class="st0" points="24.3,5.2 4.1,58 12.4,58 32.6,5.2 	"/>
	<g>
		<path d="M33.3,43.6v10.2h-1.9V43.6H33.3z"/>
		<path d="M38.2,43.6l5.2,7v-7h1.9v10.2h-1.8l-5.2-6.9v6.9h-1.9V43.6H38.2z"/>
		<path d="M55.4,43.6l0,1.7h-5.1v2.7h4.6v1.7h-4.6v4h-1.9V43.6L55.4,43.6L55.4,43.6z"/>
		<path d="M67.4,48.7c0,2.9-2.4,5.2-5.4,5.2c-3.1,0-5.4-2.2-5.4-5.2c0-2.9,2.4-5.1,5.4-5.1C65.1,43.6,67.4,45.8,67.4,48.7z
			 M58.6,48.7c0,1.9,1.6,3.4,3.5,3.4c1.9,0,3.4-1.5,3.4-3.4c0-1.9-1.5-3.4-3.4-3.4C60.2,45.3,58.6,46.8,58.6,48.7z"/>
		<path d="M76.1,53.8l-1.8-3c-0.1,0-0.2,0-0.4,0h-2.3v3h-1.9V43.6h4.2c2.6,0,4.1,1.3,4.1,3.5c0,1.6-0.7,2.7-2,3.3l2.2,3.4L76.1,53.8
			L76.1,53.8z M71.6,49.1h2.3c1.5,0,2.3-0.6,2.3-1.9c0-1.2-0.8-1.9-2.3-1.9h-2.3V49.1z"/>
		<path d="M83,43.6l3.2,6.5l3.2-6.5h2.2v10.2h-1.8l0-7.3l-3,6.2h-1.3l-3-6.2v7.3h-1.8V43.6H83z"/>
		<path d="M101.3,51.6h-5l-0.9,2.1h-2l4.5-10.2h2l4.4,10.2h-2.1L101.3,51.6z M100.6,50l-1.8-4.3L97,50H100.6z"/>
		<path d="M112.2,43.6v1.7h-3.2v8.4h-2v-8.4h-3.2v-1.7H112.2z"/>
		<path d="M116.1,43.6v10.2h-1.9V43.6H116.1z"/>
		<path d="M129.8,54.9c-0.8,0.7-1.9,1.1-2.8,1.1c-1.3,0-2.5-0.8-3.2-2.2c-3,0-5.4-2.3-5.4-5.2c0-2.9,2.4-5.1,5.4-5.1
			s5.4,2.2,5.4,5.1c0,2.3-1.5,4.2-3.6,4.9c0.5,0.5,1,0.9,1.6,0.9c0.5,0,1.2-0.3,1.8-0.8L129.8,54.9z M123.8,52.1
			c1.9,0,3.4-1.5,3.4-3.4c0-1.9-1.5-3.4-3.4-3.4c-1.9,0-3.5,1.5-3.5,3.4C120.4,50.6,121.9,52.1,123.8,52.1z"/>
		<path d="M135.9,52.1c1.5,0,2.5-1,2.5-2.6v-5.9h1.9v5.9c0,2.7-1.7,4.3-4.5,4.3c-2.8,0-4.5-1.7-4.5-4.3v-5.9h1.9v5.9
			C133.3,51.1,134.3,52.1,135.9,52.1z"/>
		<path d="M150.6,43.6v1.7h-5.5v2.5h4.9v1.7h-4.9v2.6h5.7v1.7h-7.6V43.6L150.6,43.6L150.6,43.6z"/>
	</g>
	<path class="st0" d="M71.6,58c2.9,0,5.3,2.4,5.2,5.3c0,2.7-2.3,5.1-5.3,5.1c-2.9,0-5.1-2.4-5.1-5.2C66.4,60.3,68.8,58,71.6,58
		 M71.6,66.9c2.1,0,3.8-1.7,3.8-3.8c0-2.1-1.7-3.8-3.8-3.8c-2.1,0-3.8,1.7-3.8,3.8C67.8,65.2,69.5,66.9,71.6,66.9"/>
	<path class="st0" d="M60.2,67.9c-0.2,0-0.3,0-0.5,0c-0.2,0-0.3-0.1-0.3-0.3c0.1-0.5,0.2-1,0.3-1.5c0.3-1.7,0.6-3.4,0.9-5.1
		c0.1-0.4,0.1-0.4,0.5-0.5c0.8-0.2,1.6-0.3,2.5-0.2c1,0.1,1.6,0.9,1.6,1.8c0,0.9-0.1,1.7-0.5,2.5c-0.4,1-1.2,1.4-2.2,1.4
		c-0.3,0-0.6,0-1,0c-0.1,0-0.2,0-0.2,0.2c-0.1,0.5-0.2,1-0.2,1.5c0,0.2-0.1,0.3-0.3,0.3C60.5,67.9,60.4,67.9,60.2,67.9 M61.5,64.7
		c0.3,0,0.7,0,1,0c0.3,0,0.6-0.2,0.7-0.5c0.1-0.3,0.2-0.5,0.2-0.8c0.1-0.4,0.1-0.9,0.1-1.3c0-0.3-0.2-0.5-0.5-0.5
		c-0.3,0-0.6,0-0.9,0c0,0-0.1,0.1-0.1,0.1C61.9,62.7,61.7,63.7,61.5,64.7"/>
	<path class="st0" d="M55.5,60.3H56c0.2,0,0.3,0,0.2,0.3c-0.1,0.6-0.2,1.2-0.3,1.7c-0.1,0.5-0.2,1-0.2,1.4c-0.1,0.8,0.2,1,0.9,0.9
		c0.3,0,0.5-0.2,0.5-0.5c0.1-0.4,0.2-0.8,0.3-1.2c0.1-0.8,0.3-1.6,0.4-2.4c0-0.2,0.1-0.3,0.3-0.3c0.3,0,0.7,0,1,0
		c0.3,0,0.3,0,0.3,0.3c-0.1,0.7-0.3,1.5-0.4,2.2c-0.1,0.5-0.2,1-0.3,1.4c-0.4,1.2-1.2,1.8-2.5,1.8c-0.4,0-0.7,0-1.1-0.2
		c-0.8-0.3-1.3-1.1-1.1-2c0.2-1.1,0.4-2.2,0.6-3.3c0-0.2,0.1-0.3,0.3-0.2C55.2,60.3,55.3,60.3,55.5,60.3"/>
	<path class="st0" d="M50.6,66.1c-0.5-0.1-1.1-0.1-1.6-0.2c-0.2,0-0.3-0.1-0.2-0.4c0-0.2,0.1-0.4,0.1-0.6c0-0.2,0.1-0.3,0.3-0.2
		c0.5,0,1.1,0.1,1.6,0.1c0.1,0,0.1,0,0.2,0c0.2,0,0.3-0.1,0.4-0.3c0-0.2-0.1-0.3-0.2-0.5c-0.4-0.2-0.8-0.5-1.1-0.7
		c-1-0.6-0.8-1.8-0.3-2.4c0.4-0.4,0.8-0.5,1.3-0.6c0.7-0.1,1.5,0,2.2,0.2c0.2,0,0.3,0.1,0.2,0.3c0,0.2-0.1,0.5-0.1,0.7
		c0,0.2-0.1,0.2-0.3,0.2c-0.4,0-0.9-0.1-1.3-0.1c-0.2,0-0.4,0-0.5,0c-0.1,0-0.2,0.1-0.3,0.2c-0.1,0.1,0,0.2,0.1,0.3
		c0.3,0.2,0.6,0.4,0.9,0.6c0.1,0.1,0.2,0.1,0.3,0.2c1.2,0.7,0.8,2.3,0,2.7c-0.4,0.2-0.9,0.4-1.4,0.4C50.8,66.1,50.7,66.1,50.6,66.1
		C50.6,66.1,50.6,66.1,50.6,66.1"/>
	<path class="st0" d="M42.1,65.9C41.5,66,41,66,40.5,66c-0.8,0-1.4-0.5-1.4-1.4c0-1,0.1-2,0.5-2.9c0.3-0.7,0.9-1.1,1.7-1.1
		c0.6-0.1,1.2,0,1.9,0.1c0.2,0,0.2,0.1,0.2,0.3c-0.3,1.7-0.6,3.4-0.9,5c0,0.2-0.1,0.4-0.1,0.6c-0.2,0.8-0.8,1.2-1.6,1.2
		c-0.6,0-1.2-0.1-1.9-0.1c-0.1,0-0.2,0-0.2-0.2c0-0.1,0.1-0.2,0.2-0.2c0.6,0,1.1,0.1,1.7,0.1c0.7,0,1-0.3,1.2-0.9
		C42,66.4,42,66.1,42.1,65.9 M42.9,61.1c-0.5,0-1-0.1-1.4-0.1c-0.8,0-1.3,0.5-1.6,1.2c-0.1,0.3-0.1,0.5-0.2,0.8
		c-0.1,0.5-0.2,0.9-0.2,1.4c0,0.7,0.3,1.1,1,1.1c0.5,0,1-0.1,1.5-0.1c0,0,0.1-0.1,0.1-0.2c0.1-0.7,0.3-1.5,0.4-2.2
		C42.7,62.4,42.8,61.8,42.9,61.1"/>
	<path class="st0" d="M44.6,63.4c0,0.4-0.1,0.8,0,1.2c0.1,0.6,0.4,1,1.1,1c0.6,0,1.2-0.1,1.8-0.1c0.1,0,0.2-0.1,0.2,0.1
		c0,0.1,0,0.3-0.2,0.3c-0.6,0.1-1.2,0.1-1.8,0.2c-0.2,0-0.4,0-0.5-0.1c-0.6-0.2-1-0.6-1-1.2c-0.1-1,0.1-2,0.5-2.9
		c0.5-1.1,1.7-1.4,2.7-1.1c0.6,0.2,1,0.7,1,1.4c0,0.4,0,0.8-0.1,1.1c0,0.2-0.2,0.2-0.3,0.2c-1,0-2,0-3,0H44.6z M47.8,63
		c0-0.4,0-0.7,0-1.1c0-0.5-0.4-0.8-0.9-0.9c-1.2-0.2-2.2,0.7-2.2,2H47.8z"/>
	<path class="st0" d="M36.5,61c-0.2,0-0.4,0-0.6,0c-0.5,0.1-0.8,0.4-0.9,0.8c-0.1,0.5-0.2,1-0.3,1.4c-0.1,0.8-0.3,1.6-0.4,2.5
		c0,0.1-0.1,0.2-0.1,0.2c-0.2,0.1-0.3,0-0.3-0.3c0.2-1.2,0.4-2.4,0.6-3.5c0-0.2,0.1-0.3,0.1-0.5c0.2-0.7,0.7-1.1,1.5-1.1
		c0.4,0,0.8,0,1.2,0c0.6,0.1,1,0.6,0.9,1.2c0,0.5-0.1,1.1-0.2,1.6c-0.1,0.8-0.3,1.5-0.4,2.3c0,0.2-0.2,0.3-0.4,0.2
		c0,0-0.1-0.1-0.1-0.2c0.1-0.7,0.2-1.3,0.3-2c0.1-0.6,0.2-1.2,0.3-1.8c0-0.7-0.3-0.9-0.9-1C36.8,61,36.7,61,36.5,61L36.5,61z"/>
	<path class="st0" d="M32,65.8c0.1-0.5,0.2-1,0.3-1.5c0.2-1.1,0.4-2.2,0.6-3.3c0-0.1,0-0.3,0.2-0.3c0.2,0,0.2,0,0.2,0.2
		c-0.1,0.7-0.2,1.4-0.4,2c-0.2,0.9-0.3,1.9-0.5,2.8c0,0.2-0.1,0.2-0.3,0.2C32.1,66,32,65.9,32,65.8"/>
	<path class="st0" d="M72.3,63.1c-0.6-0.6-1.2-1.1-1.8-1.6c-0.4-0.3-0.4-0.7-0.1-1c0.3-0.3,0.7-0.3,1.1,0c0.8,0.7,1.6,1.4,2.4,2.1
		c0.4,0.3,0.4,0.8,0,1.1c-0.8,0.7-1.6,1.4-2.4,2.1c-0.3,0.3-0.7,0.2-1,0c-0.3-0.3-0.2-0.7,0.1-1c0.5-0.5,1.1-1,1.7-1.5
		C72.1,63.3,72.2,63.2,72.3,63.1"/>
</g>
</svg>
