<?xml version="1.0" encoding="utf-8"?>
<!-- Generator: Adobe Illustrator 22.1.0, SVG Export Plug-In . SVG Version: 6.00 Build 0)  -->
<svg version="1.1" id="Calque_1" xmlns="http://www.w3.org/2000/svg" xmlns:xlink="http://www.w3.org/1999/xlink" x="0px" y="0px"
	 viewBox="0 0 164 73.5" style="enable-background:new 0 0 164 73.5;" xml:space="preserve">
<style type="text/css">
	.st0{fill:#F07D17;}
</style>
<g>
	<g>
		<path d="M33.1,43.5l2.4,7.9l2.2-7.9h1.9l2.4,7.9l2.2-7.9h2l-3.4,10.1h-2l-2.2-7.5l-2.2,7.5h-2L31,43.5H33.1z"/>
		<path d="M55.3,43.5v1.7h-5.4v2.5h4.8v1.7h-4.8V52h5.6v1.7H48V43.5H55.3z"/>
		<path d="M65.8,46.1c0,1.1-0.7,1.9-1.8,2.2c1.3,0.2,2.1,1.2,2.1,2.6c0,1.7-1.5,2.8-3.7,2.8h-4.6V43.6h4.5
			C64.6,43.5,65.8,44.5,65.8,46.1z M63.9,46.5c0-0.8-0.6-1.2-1.6-1.2h-2.5v2.5h2.5C63.4,47.7,63.9,47.2,63.9,46.5z M64.3,50.6
			c0-0.8-0.8-1.3-1.9-1.3h-2.5V52h2.5C63.6,52,64.3,51.5,64.3,50.6z"/>
		<path d="M70,52.7c0,0.3-0.1,0.6-0.2,0.8l-0.9,1.3H68l0.6-1.3c-0.2-0.2-0.4-0.4-0.4-0.8c0-0.6,0.4-1,1-1C69.5,51.7,70,52.1,70,52.7
			z"/>
		<path d="M81.1,45.2c-1.9,0-3.4,1.5-3.4,3.4c0,1.9,1.5,3.4,3.4,3.4c1,0,2-0.4,2.7-1.1l1.1,1.2c-1,1-2.5,1.7-3.9,1.7
			c-2.9,0-5.3-2.2-5.3-5.2s2.4-5.1,5.3-5.1c1.5,0,2.9,0.7,3.9,1.6l-1.1,1.5C83.1,45.7,82.1,45.2,81.1,45.2z"/>
		<path d="M96.8,48.6c0,2.9-2.4,5.2-5.4,5.2S86,51.5,86,48.6s2.4-5.1,5.4-5.1S96.8,45.7,96.8,48.6z M88.1,48.6
			c0,1.9,1.6,3.4,3.4,3.4c1.8,0,3.4-1.5,3.4-3.4c0-1.9-1.6-3.4-3.4-3.4C89.6,45.2,88.1,46.7,88.1,48.6z"/>
		<path d="M101.3,43.5l3.1,6.4l3.1-6.4h2.2v10.1h-1.8v-7.2l-2.9,6.2h-1.2l-2.9-6.2v7.2h-1.8V43.5H101.3z"/>
		<path d="M124.3,54l-1.6-1.5c-0.9,0.8-1.9,1.2-3,1.2c-1.8,0-3.3-1.2-3.3-2.8c0-1.3,1-2.1,2.1-2.8c-0.7-0.9-0.9-1.6-0.9-2.2
			c0-1.3,1-2.4,2.7-2.4c1.6,0,2.6,0.9,2.6,2.1c0,1.3-1.2,2.1-2.4,2.7c0.6,0.6,1.1,1.2,1.9,2c0.3-0.4,0.6-1.1,0.8-1.8l1.2,0.9
			c-0.2,0.7-0.7,1.3-1,1.9l1.6,1.6L124.3,54z M121.9,51.5c-1-0.9-1.7-1.7-2.4-2.5c-0.8,0.4-1.3,0.9-1.3,1.7c0,0.9,0.8,1.6,1.8,1.6
			C120.6,52.3,121.2,52,121.9,51.5z M120,47.5c0.9-0.4,1.7-1,1.7-1.8c0-0.6-0.4-1-1.1-1c-0.8,0-1.2,0.4-1.2,1.1
			C119.3,46.2,119.5,46.8,120,47.5z"/>
		<path d="M39.1,63h1.7v3.8c-1,0.8-2.6,1.3-3.9,1.3c-3,0-5.3-2.2-5.3-5.2s2.4-5.1,5.4-5.1c1.5,0,2.9,0.6,3.9,1.5l-1.1,1.5
			C39,60.2,38,59.7,37,59.7c-1.9,0-3.5,1.5-3.5,3.4c0,1.9,1.6,3.4,3.5,3.4c0.7,0,1.5-0.2,2.1-0.7V63z"/>
		<path d="M49.9,68l-1.7-2.9c-0.1,0-0.2,0-0.3,0h-2.2V68h-1.9V57.9h4.2c2.6,0,4,1.2,4,3.5c0,1.6-0.7,2.7-2,3.3l2.2,3.4H49.9z
			 M45.5,63.3h2.2c1.5,0,2.2-0.7,2.2-1.9c0-1.2-0.8-1.8-2.2-1.8h-2.2V63.3z"/>
		<path d="M61.1,65.9h-4.9L55.3,68h-2l4.4-10.1h2L64,68h-2L61.1,65.9z M60.4,64.2l-1.8-4.3l-1.8,4.3H60.4z"/>
		<path d="M73.9,61.4c0,2.2-1.5,3.6-3.9,3.6h-2.2v2.9h-1.9V57.8H70C72.5,57.9,73.9,59.1,73.9,61.4z M72.1,61.4
			c0-1.2-0.8-1.8-2.2-1.8h-2.1v3.7h2.1C71.2,63.3,72.1,62.7,72.1,61.4z"/>
		<path d="M78,57.9v4.3H83v-4.3h1.9V68H83v-4H78v4H76V57.9H78z"/>
		<path d="M89.9,57.9V68H88V57.9H89.9z"/>
		<path d="M97.5,59.6c-1.9,0-3.4,1.5-3.4,3.4s1.5,3.4,3.4,3.4c1,0,2-0.4,2.7-1.1l1.1,1.2c-1,1-2.5,1.7-3.9,1.7
			c-2.9,0-5.3-2.2-5.3-5.2s2.4-5.1,5.3-5.1c1.5,0,2.9,0.7,3.9,1.6l-1.1,1.5C99.5,60,98.4,59.6,97.5,59.6z"/>
		<path d="M117,63c0,2.9-2.2,5.1-5.3,5.1h-4.2V57.9h4.2C114.8,57.9,117,60,117,63z M115.1,63c0-2-1.5-3.4-3.3-3.4h-2.2v6.6h2.2
			C113.7,66.3,115.1,64.9,115.1,63z"/>
		<path d="M126.7,57.9v1.7h-5.4v2.5h4.8v1.7h-4.8v2.6h5.6V68h-7.5V57.9H126.7z"/>
		<path d="M132.7,59.6c-0.9,0-1.5,0.3-1.5,0.9c0,2,5.4,0.9,5.4,4.5c0,1.9-1.7,2.9-3.8,2.9c-1.6,0-3.1-0.7-4.3-1.6l0.8-1.6
			c1,0.9,2.4,1.5,3.5,1.5s1.7-0.4,1.7-1.1c0-2.1-5.4-0.9-5.4-4.5c0-1.8,1.5-2.9,3.8-2.9c1.3,0,2.7,0.4,3.6,1l-0.8,1.7
			C134.6,59.9,133.4,59.6,132.7,59.6z"/>
		<path d="M140.9,57.9V68H139V57.9H140.9z"/>
		<path d="M150.7,63h1.7v3.8c-1,0.8-2.6,1.3-3.9,1.3c-3,0-5.3-2.2-5.3-5.2s2.4-5.1,5.4-5.1c1.5,0,2.9,0.6,3.9,1.5l-1.1,1.5
			c-0.8-0.7-1.8-1.1-2.8-1.1c-1.9,0-3.5,1.5-3.5,3.4c0,1.9,1.6,3.4,3.5,3.4c0.7,0,1.5-0.2,2.1-0.7V63z"/>
		<path d="M156.9,57.9l5.2,6.9v-6.9h1.9V68h-1.8l-5.2-6.9V68h-1.9V57.9H156.9z"/>
	</g>
	<path class="st0" d="M82.1,37.1c8.8,0,16-7.1,16-15.7S91,5.6,82.1,5.6c-8.8,0-16,7.1-16,15.7S73.4,37.1,82.1,37.1z M82.1,13.1
		c4.6,0,8.3,3.7,8.3,8.2c0,4.6-3.7,8.3-8.3,8.3s-8.3-3.7-8.3-8.3C73.8,16.8,77.5,13.1,82.1,13.1z"/>
	<path class="st0" d="M31,37.2h7.6V21.9c0-4.7,3.7-8.5,8.3-8.5s8.3,3.8,8.3,8.5v15.4h7.6V21.9c0-9-7.2-16.2-16-16.2
		c-8.8-0.1-16,7.1-16,16.1V37.2z"/>
	<path class="st0" d="M13.8,22c0-1-0.2-2-0.6-3L8.1,5.6H0l9.1,23.7C11.9,28.1,13.8,25.3,13.8,22z"/>
	<polygon class="st0" points="117.2,37.2 129.3,5.6 121.1,5.6 109,37.2 	"/>
	<path class="st0" d="M110.6,22c0-1-0.2-2-0.6-3L105,5.6h-8.2l9.1,23.7C108.7,28.1,110.6,25.3,110.6,22z"/>
	<polygon class="st0" points="24.3,5.6 4.2,57.8 12.4,57.8 32.4,5.6 	"/>
</g>
</svg>
