<svg xmlns="http://www.w3.org/2000/svg" xmlns:xlink="http://www.w3.org/1999/xlink" id="Calque_1" x="0" y="0" enable-background="new 0 0 50 50" version="1.1" viewBox="0 0 50 50" xml:space="preserve"><style type="text/css">.st0{fill:#f58229}</style><title>picto_ynov_webcom_idea</title><g id="_Groupe_"><path id="_Tracé_transparent_" d="M35.7,9.3C32.8,6.5,29,4.9,25,4.9h-0.2C16.3,5.1,9.7,12.1,9.9,20.6 c0.1,3.8,1.6,7.4,4.2,10.2c2.1,2.2,3.3,5.1,3.3,8.1v2.1c0,2.8,1.8,5.3,4.4,6.2h0.1v0.5c0,1.4,1.1,2.4,2.4,2.4h1.4 c1.4,0,2.4-1.1,2.4-2.4v-0.5h0.1c2.7-0.9,4.5-3.4,4.5-6.2v-2.1c0-3,1.2-5.9,3.3-8.1C41.8,24.7,41.7,15.2,35.7,9.3L35.7,9.3z M26.6,47.6c0,0.5-0.4,0.9-0.9,0.9h-1.4c-0.5,0-0.9-0.4-0.9-0.9v-0.2h3.1V47.6z M30.6,42.9c-0.8,1.8-2.6,3-4.6,3h-2 c-2,0-3.8-1.2-4.6-3l-0.1-0.2h11.3L30.6,42.9z M31,40.9v0.3H19v-1.6h12L31,40.9z M26.5,19L26.5,19l0.8,1.1h-0.2 c-1.4,0.4-2.9,0.4-4.4,0h-0.2l0.7-1.1h0.1C24.4,19.3,25.5,19.3,26.5,19z M24.3,17.6l0.7-1.1l0.7,1.1h-0.2c-0.4,0.1-0.8,0.1-1.1,0 H24.3z M27.6,21.5h0.2v16.6h-2V21.9h0.1C26.5,21.8,27,21.7,27.6,21.5z M24.1,21.9h0.1V38h-2V21.4h0.2 C22.9,21.6,23.5,21.8,24.1,21.9z M34.8,29.6c-2.2,2.2-3.5,5.2-3.7,8.3V38h-1.7V20.4c0-0.2,0-0.3-0.1-0.5l-3.6-5.3 c-0.3-0.4-0.8-0.4-1.1-0.2c-0.1,0-0.1,0.1-0.2,0.2l-3.6,5.3c-0.1,0.1-0.1,0.3-0.1,0.4V38h-1.7v-0.1c-0.2-3.1-1.6-6-3.7-8.3 c-5.2-5.4-5.1-14.1,0.4-19.3c2.5-2.4,5.8-3.8,9.2-3.8H25c7.5,0,13.6,6.1,13.6,13.7C38.6,23.7,37.3,27.1,34.8,29.6z" class="st0"/><path id="_Tracé_" d="M28.3,8.4h-0.2c-0.1,0-0.3,0-0.4,0.1c-0.2,0.1-0.3,0.3-0.4,0.5c-0.1,0.2,0,0.4,0.1,0.6 c0.1,0.2,0.3,0.3,0.5,0.4c4.5,1.3,7.7,5.5,7.7,10.2c0,0.4,0.3,0.8,0.8,0.8c0,0,0,0,0,0c0.4,0,0.8-0.4,0.8-0.8 C37.2,14.7,33.6,9.9,28.3,8.4z" class="st0"/><path id="_Tracé_2" d="M25.7,7.9c-0.3,0-0.6,0-0.9,0c-0.4,0-0.8,0.3-0.8,0.8c0,0,0,0,0,0c0,0.4,0.4,0.8,0.8,0.8h0.8 c0.4-0.1,0.7-0.5,0.7-0.9C26.3,8.3,26,8,25.7,7.9L25.7,7.9z" class="st0"/><path id="_Tracé_3" d="M44.6,19.5H43c-0.4,0-0.8,0.3-0.8,0.8c0,0,0,0,0,0c0,0.4,0.3,0.8,0.8,0.8l0,0h1.6 c0.4,0,0.8-0.3,0.8-0.8c0,0,0,0,0,0C45.4,19.9,45,19.5,44.6,19.5z" class="st0"/><path id="_Tracé_4" d="M7.8,20.3c0-0.4-0.3-0.8-0.8-0.8c0,0,0,0,0,0H5.4c-0.4,0-0.8,0.4-0.8,0.8l0,0 c0,0.4,0.3,0.8,0.8,0.8c0,0,0,0,0,0H7C7.4,21.1,7.8,20.8,7.8,20.3C7.8,20.3,7.8,20.3,7.8,20.3z" class="st0"/><path id="_Tracé_5" d="M41,12l1.4-0.8c0.2-0.1,0.3-0.3,0.4-0.5c0.1-0.2,0-0.4-0.1-0.6c-0.1-0.2-0.3-0.3-0.5-0.4H42 c-0.1,0-0.3,0-0.4,0.1l-1.4,0.8c-0.4,0.2-0.5,0.7-0.3,1.1C40.1,12.1,40.6,12.2,41,12z" class="st0"/><path id="_Tracé_6" d="M9.4,28.5c-0.1,0-0.3,0-0.4,0.1l-1.4,0.8c-0.2,0.1-0.3,0.3-0.4,0.5c-0.1,0.4,0.2,0.9,0.6,1 c0.1,0,0.1,0,0.2,0c0.1,0,0.3,0,0.4-0.1L9.8,30c0.4-0.2,0.5-0.7,0.3-1.1C9.9,28.7,9.7,28.5,9.4,28.5z" class="st0"/><path id="_Tracé_7" d="M33.6,5.4L33.6,5.4c0.1,0.1,0.3,0.1,0.4,0.1c0.3,0,0.5-0.2,0.7-0.4l0.8-1.4 c0.2-0.4,0.1-0.9-0.3-1.1c-0.1-0.1-0.3-0.1-0.4-0.1h-0.2c-0.2,0.1-0.4,0.2-0.5,0.4l-0.8,1.4C33.1,4.7,33.2,5.2,33.6,5.4 C33.6,5.4,33.6,5.4,33.6,5.4z" class="st0"/><path id="_Tracé_8" d="M25,3.1c0.4,0,0.8-0.3,0.8-0.8c0,0,0,0,0,0V0.8C25.8,0.4,25.4,0,25,0c-0.4,0-0.8,0.4-0.8,0.8 v1.5C24.2,2.7,24.5,3.1,25,3.1C25,3.1,25,3.1,25,3.1z" class="st0"/><path id="_Tracé_9" d="M15.3,5.1c0.1,0.2,0.4,0.4,0.7,0.4c0.4,0,0.7-0.2,0.8-0.6c0.1-0.2,0-0.4-0.1-0.6L15.9,3 c-0.1-0.2-0.3-0.3-0.5-0.4h-0.2c-0.1,0-0.3,0-0.4,0.1c-0.4,0.2-0.5,0.7-0.3,1.1L15.3,5.1z" class="st0"/><path id="_Tracé_10" d="M7.6,11.2L9,12c0.4,0.2,0.8,0.1,1.1-0.3c0.2-0.4,0.1-0.9-0.3-1.1L8.4,9.8 C8.3,9.8,8.2,9.7,8,9.7H7.8c-0.2,0.1-0.4,0.2-0.5,0.4c-0.1,0.2-0.1,0.4-0.1,0.6C7.3,10.9,7.5,11.1,7.6,11.2z" class="st0"/><path id="_Tracé_11" d="M42.4,29.4L41,28.7c-0.1-0.1-0.3-0.1-0.4-0.1h-0.2c-0.2,0.1-0.4,0.2-0.5,0.4 c-0.2,0.4-0.1,0.9,0.3,1.1l1.4,0.8c0.1,0.1,0.3,0.1,0.4,0.1c0.4,0,0.8-0.4,0.8-0.8c0-0.1,0-0.1,0-0.2 C42.7,29.7,42.5,29.5,42.4,29.4z" class="st0"/></g></svg>