<?xml version="1.0" encoding="utf-8"?>
<!-- Generator: Adobe Illustrator 22.1.0, SVG Export Plug-In . SVG Version: 6.00 Build 0)  -->
<svg version="1.1" id="Calque_1" xmlns="http://www.w3.org/2000/svg" xmlns:xlink="http://www.w3.org/1999/xlink" x="0px" y="0px"
	 viewBox="0 0 50 50" style="enable-background:new 0 0 50 50;" xml:space="preserve">
<style type="text/css">
	.st0{fill:#F58229;}
</style>
<title>picto_ynov_webcom_responsiv</title>
<g id="_Groupe_">
	<path id="_Tracé_transparent_" class="st0" d="M47.4,24.1V5.9c0-2.3-1.8-4.1-4.1-4.2H6.7c-2.3,0-4.2,1.9-4.2,4.2v12.5
		c-1.4,0-2.5,1.1-2.5,2.5v24.9c0,1.4,1.1,2.5,2.5,2.5c0,0,0,0,0,0h18.3c1.4,0,2.5-1.1,2.5-2.5l0,0h7c0.8,0,1.5-0.4,2-1
		c0.5-0.6,0.6-1.4,0.4-2.2l-1.6-6h4.7v9.2c0,1.4,1.1,2.5,2.5,2.5h9.2c1.4,0,2.5-1.1,2.5-2.5v0V26.6c0-1.4-1.1-2.5-2.5-2.5
		C47.5,24.1,47.4,24.1,47.4,24.1z M21.6,45.7c0,0.5-0.4,0.8-0.8,0.8H2.5c-0.5,0-0.8-0.4-0.8-0.8v-1.7h19.9V45.7z M21.6,42.4H1.7
		V24.1h19.9V42.4z M21.6,22.5H1.7v-1.7c0-0.5,0.4-0.8,0.8-0.8h18.3c0.5,0,0.8,0.4,0.8,0.8L21.6,22.5z M31.1,43
		c0.1,0.2,0,0.5-0.1,0.7c-0.2,0.2-0.4,0.3-0.7,0.3h-7v-1.7h7.6L31.1,43z M23.3,40.8v-4.2h6l1.1,4.2L23.3,40.8z M35.7,34.9H23.3v-5
		h12.5V34.9z M35.7,26.6v1.7H23.3v-7.5c0-1.4-1.1-2.5-2.5-2.5h-6.6v-1.5h-1.7v1.5h-1.7v-1.5H9.2v1.5H7.5v-1.5H5.8v1.5H4.2V5.9
		c0-1.4,1.1-2.5,2.5-2.5h36.6c1.4,0,2.5,1.1,2.5,2.5v18.3h-7.5C36.9,24.2,35.8,25.3,35.7,26.6z M48.2,45.7c0,0.5-0.4,0.8-0.8,0.8
		h-9.2c-0.5,0-0.8-0.4-0.8-0.8v-1.7h10.8L48.2,45.7z M48.2,42.4H37.4V29.9h10.8V42.4z M48.2,28.3H37.4v-1.7c0-0.5,0.4-0.8,0.8-0.8
		h9.2c0.5,0,0.8,0.4,0.8,0.8L48.2,28.3z"/>
	
		<rect id="_Tracé_" x="4.3" y="34.1" transform="matrix(0.7071 -0.7071 0.7071 0.7071 -22.7402 14.9422)" class="st0" width="4.7" height="1.7"/>
	
		<rect id="_Tracé_2" x="6.3" y="33.3" transform="matrix(0.7071 -0.7071 0.7071 0.7071 -20.224 19.3997)" class="st0" width="14.1" height="1.7"/>
	
		<rect id="_Tracé_3" x="9" y="28.3" transform="matrix(0.7071 -0.7071 0.7071 0.7071 -16.9311 17.3599)" class="st0" width="7.1" height="1.7"/>
	
		<rect id="_Tracé_4" x="39" y="33.7" transform="matrix(0.7071 -0.7071 0.7071 0.7071 -12.1094 39.7891)" class="st0" width="5.9" height="1.7"/>
	
		<rect id="_Tracé_5" x="40.7" y="37" transform="matrix(0.7071 -0.7071 0.7071 0.7071 -13.9907 41.9438)" class="st0" width="5.9" height="1.7"/>
	
		<rect id="_Tracé_6" x="21.4" y="13.3" transform="matrix(0.7071 -0.7071 0.7071 0.7071 -2.7126 21.783)" class="st0" width="7.1" height="1.7"/>
	
		<rect id="_Tracé_7" x="28.9" y="11.7" transform="matrix(0.7071 -0.7071 0.7071 0.7071 0.657 26.5933)" class="st0" width="7.1" height="1.7"/>
	
		<rect id="_Tracé_8" x="24.2" y="17.5" transform="matrix(0.7071 -0.7071 0.7071 0.7071 -5.1613 24.1717)" class="st0" width="4.7" height="1.7"/>
	
		<rect id="_Tracé_9" x="28.4" y="7.5" transform="matrix(0.7071 -0.7071 0.7071 0.7071 3.1104 24.1988)" class="st0" width="4.7" height="1.7"/>
</g>
</svg>
