<svg xmlns="http://www.w3.org/2000/svg" xmlns:xlink="http://www.w3.org/1999/xlink" id="Calque_1" x="0" y="0" enable-background="new 0 0 50 50" version="1.1" viewBox="0 0 50 50" xml:space="preserve"><style type="text/css">.st0{fill:#f58229}</style><title>picto_ynov_webcom_wireframe</title><g id="_Groupe_"><path id="_Tracé_transparent_" d="M49.2,0H0.8C0.4,0,0,0.3,0,0.7c0,0,0,0.1,0,0.1V10c0,0.4,0.3,0.8,0.7,0.8 c0,0,0.1,0,0.1,0h48.3c0.4,0,0.8-0.3,0.8-0.7c0,0,0-0.1,0-0.1V0.8C50,0.4,49.7,0,49.3,0C49.2,0,49.2,0,49.2,0z M48.3,9.2H1.7V1.7 h46.7V9.2z" class="st0"/><rect id="_Tracé_" width="5" height="1.7" x="4.2" y="3.3" class="st0"/><rect id="_Tracé_2" width="5" height="1.7" x="4.2" y="5.8" class="st0"/><path id="_Tracé_transparent_2" d="M0.8,32.5h27.5c0.4,0,0.8-0.3,0.8-0.7c0,0,0-0.1,0-0.1V15c0-0.4-0.3-0.8-0.8-0.8 c0,0-0.1,0-0.1,0H0.8c-0.4,0-0.8,0.3-0.8,0.7c0,0,0,0.1,0,0.1v16.7c0,0.4,0.3,0.8,0.7,0.8C0.8,32.5,0.8,32.5,0.8,32.5z M3.6,30.8 L15,23.5l10.8,7.3H3.6z M27.5,30.1L21.6,26l5.9-3V30.1z M1.7,15.8h25.8v5.3L20,24.9l-4.6-3.2c-0.3-0.2-0.6-0.2-0.9,0L1.7,30.1V15.8 z" class="st0"/><path id="_Tracé_transparent_3" d="M7.1,17.5c-1.6,0-2.9,1.3-2.9,2.9c0,1.6,1.3,2.9,2.9,2.9c1.6,0,2.9-1.3,2.9-2.9 C10,18.9,8.7,17.5,7.1,17.5z M7.1,21.7c-0.7,0-1.3-0.5-1.3-1.2c0-0.7,0.5-1.3,1.2-1.3c0.7,0,1.3,0.5,1.3,1.2c0,0,0,0,0,0 C8.3,21.1,7.8,21.7,7.1,21.7z" class="st0"/><rect id="_Tracé_3" width="12.5" height="1.7" x="31.7" y="14.2" class="st0"/><rect id="_Tracé_4" width="18.3" height="1.7" x="31.7" y="18.3" class="st0"/><rect id="_Tracé_5" width="18.3" height="1.7" x="31.7" y="22.5" class="st0"/><rect id="_Tracé_6" width="18.3" height="1.7" x="31.7" y="26.7" class="st0"/><rect id="_Tracé_7" width="18.3" height="1.7" x="31.7" y="30.8" class="st0"/><path id="_Tracé_transparent_4" d="M19.2,35.8H0.8c-0.4,0-0.8,0.3-0.8,0.7c0,0,0,0.1,0,0.1v12.5C0,49.6,0.3,50,0.7,50 c0,0,0.1,0,0.1,0h18.3c0.4,0,0.8-0.3,0.8-0.7c0,0,0-0.1,0-0.1V36.7c0-0.4-0.3-0.8-0.7-0.8C19.2,35.8,19.2,35.8,19.2,35.8z M18.3,48.3H1.7V37.5h16.7L18.3,48.3z" class="st0"/><path id="_Tracé_transparent_5" d="M49.2,35.8H23.3c-0.4,0-0.8,0.3-0.8,0.7c0,0,0,0.1,0,0.1v12.5 c0,0.4,0.3,0.8,0.7,0.8c0,0,0.1,0,0.1,0h25.8c0.4,0,0.8-0.3,0.8-0.7c0,0,0-0.1,0-0.1V36.7c0-0.4-0.3-0.8-0.7-0.8 C49.2,35.8,49.2,35.8,49.2,35.8z M31.7,48.3h-7.5V37.5h7.5V48.3z M40,48.3h-6.7V37.5H40L40,48.3z M48.3,48.3h-6.7V37.5h6.7 L48.3,48.3z" class="st0"/><rect id="_Tracé_8" width="3.3" height="1.7" x="8.3" y="41.7" class="st0"/><rect id="_Tracé_9" width="3.3" height="1.7" x="13.3" y="41.7" class="st0"/><rect id="_Tracé_10" width="3.3" height="1.7" x="3.3" y="41.7" class="st0"/></g></svg>