<svg id="Calque_1" data-name="Calque 1" xmlns="http://www.w3.org/2000/svg" viewBox="0 0 50 50"><defs><style>.cls-1{fill:#f58229;}</style></defs><title>picto_ynov_webcom_wireframe</title><g id="_Groupe_" data-name="&lt;Groupe&gt;"><path id="_Tracé_transparent_" data-name="&lt;Tracé transparent&gt;" class="cls-1" d="M41.1,8.34H8.9a.52.52,0,0,0-.56.56V15a.52.52,0,0,0,.56.55H41.1a.52.52,0,0,0,.56-.55V8.9A.52.52,0,0,0,41.1,8.34Zm-.55,6.11H9.45v-5h31.1Z"/><rect id="_Tracé_" data-name="&lt;Tracé&gt;" class="cls-1" x="11.12" y="10.56" width="3.33" height="1.11"/><rect id="_Tracé_2" data-name="&lt;Tracé&gt;" class="cls-1" x="11.12" y="12.23" width="3.33" height="1.11"/><path id="_Tracé_transparent_2" data-name="&lt;Tracé transparent&gt;" class="cls-1" d="M8.9,30H27.22a.53.53,0,0,0,.56-.56V18.33a.53.53,0,0,0-.56-.55H8.9a.52.52,0,0,0-.56.55V29.44A.52.52,0,0,0,8.9,30Zm1.83-1.11L18.33,24l7.17,4.89Zm15.93-.5-3.94-2.72,3.94-2ZM9.45,18.89H26.66v3.56l-5,2.5-3.06-2.12a.6.6,0,0,0-.61,0L9.45,28.39Z"/><path id="_Tracé_transparent_3" data-name="&lt;Tracé transparent&gt;" class="cls-1" d="M13.06,20A1.95,1.95,0,1,0,15,22,2,2,0,0,0,13.06,20Zm0,2.78a.84.84,0,1,1,.83-.83A.85.85,0,0,1,13.06,22.78Z"/><rect id="_Tracé_3" data-name="&lt;Tracé&gt;" class="cls-1" x="29.44" y="17.78" width="8.33" height="1.11"/><rect id="_Tracé_4" data-name="&lt;Tracé&gt;" class="cls-1" x="29.44" y="20.56" width="12.22" height="1.11"/><rect id="_Tracé_5" data-name="&lt;Tracé&gt;" class="cls-1" x="29.44" y="23.34" width="12.22" height="1.11"/><rect id="_Tracé_6" data-name="&lt;Tracé&gt;" class="cls-1" x="29.44" y="26.11" width="12.22" height="1.11"/><rect id="_Tracé_7" data-name="&lt;Tracé&gt;" class="cls-1" x="29.44" y="28.89" width="12.22" height="1.11"/><path id="_Tracé_transparent_4" data-name="&lt;Tracé transparent&gt;" class="cls-1" d="M21.11,32.22H8.9a.52.52,0,0,0-.56.55V41.1a.52.52,0,0,0,.56.56H21.11a.52.52,0,0,0,.56-.56V32.77A.52.52,0,0,0,21.11,32.22Zm-.55,8.33H9.45V33.33H20.56Z"/><path id="_Tracé_transparent_5" data-name="&lt;Tracé transparent&gt;" class="cls-1" d="M41.1,32.22H23.89a.52.52,0,0,0-.55.55V41.1a.52.52,0,0,0,.55.56H41.1a.52.52,0,0,0,.56-.56V32.77A.52.52,0,0,0,41.1,32.22ZM29.44,40.55h-5V33.33h5Zm5.55,0H30.55V33.33H35Zm5.56,0H36.11V33.33h4.44Z"/><rect id="_Tracé_8" data-name="&lt;Tracé&gt;" class="cls-1" x="13.89" y="36.11" width="2.22" height="1.11"/><rect id="_Tracé_9" data-name="&lt;Tracé&gt;" class="cls-1" x="17.23" y="36.11" width="2.22" height="1.11"/><rect id="_Tracé_10" data-name="&lt;Tracé&gt;" class="cls-1" x="10.56" y="36.11" width="2.22" height="1.11"/></g></svg>