<svg id="Calque_1" data-name="Calque 1" xmlns="http://www.w3.org/2000/svg" viewBox="0 0 50 50"><defs><style>.cls-1{fill:#f58229;}</style></defs><title>picto_ynov_webcom_idea</title><g id="_Groupe_" data-name="&lt;Groupe&gt;"><path id="_Tracé_transparent_" data-name="&lt;Tracé transparent&gt;" class="cls-1" d="M33.39,12.68A11.89,11.89,0,0,0,25,9.24h-.17A12,12,0,0,0,16.42,29.5,9.08,9.08,0,0,1,19,35.84v1.63a5.16,5.16,0,0,0,3.44,4.86l.06,0v.39a1.92,1.92,0,0,0,1.92,1.92h1.08a1.92,1.92,0,0,0,1.92-1.92v-.39l.06,0A5.16,5.16,0,0,0,31,37.47V35.84a9.11,9.11,0,0,1,2.61-6.34,11.93,11.93,0,0,0-.18-16.82ZM26.23,42.74a.69.69,0,0,1-.69.69H24.46a.69.69,0,0,1-.69-.69v-.13h2.46Zm3.16-3.67a3.94,3.94,0,0,1-3.59,2.32H24.2a3.94,3.94,0,0,1-3.59-2.32l-.06-.14h8.9Zm.34-1.6v.23H20.28V36.46h9.46ZM26.21,20.26l.07,0,.56.84-.12,0a6.55,6.55,0,0,1-3.44,0l-.12,0,.56-.84.07,0A3.26,3.26,0,0,0,26.21,20.26Zm-1.79-1.08.58-.86.58.86-.14,0a2,2,0,0,1-.88,0Zm2.64,3.11.12,0v13H25.62V22.55h.08A8.11,8.11,0,0,0,27.06,22.29Zm-2.76.25h.08V35.22H22.82v-13l.12,0A7.93,7.93,0,0,0,24.3,22.54Zm8.39,6.11a10.36,10.36,0,0,0-2.94,6.49v.08H28.41V21.38A.6.6,0,0,0,28.3,21l-2.79-4.17a.62.62,0,0,0-1,0L21.7,21a.6.6,0,0,0-.11.34V35.22H20.25v-.08a10.46,10.46,0,0,0-2.94-6.5,10.73,10.73,0,0,1,7.54-18.17H25a10.72,10.72,0,0,1,7.69,18.18Z"/><path id="_Tracé_" data-name="&lt;Tracé&gt;" class="cls-1" d="M27.63,12l-.17,0a.54.54,0,0,0-.3.08.61.61,0,0,0-.29.36.59.59,0,0,0,.05.47.61.61,0,0,0,.37.3,8.38,8.38,0,0,1,6.06,8,.61.61,0,0,0,.61.62.62.62,0,0,0,.62-.62A9.63,9.63,0,0,0,27.63,12Z"/><path id="_Tracé_2" data-name="&lt;Tracé&gt;" class="cls-1" d="M25.53,11.62c-.22,0-.45,0-.67,0a.61.61,0,0,0-.61.62.62.62,0,0,0,.62.61h.62a.62.62,0,0,0,0-1.23Z"/><path id="_Tracé_3" data-name="&lt;Tracé&gt;" class="cls-1" d="M40.38,20.72H39.14a.61.61,0,0,0-.61.62.61.61,0,0,0,.61.61h1.24a.61.61,0,0,0,.62-.61A.62.62,0,0,0,40.38,20.72Z"/><path id="_Tracé_4" data-name="&lt;Tracé&gt;" class="cls-1" d="M11.47,21.34a.61.61,0,0,0-.61-.62H9.62a.62.62,0,0,0-.62.62.61.61,0,0,0,.62.61h1.24A.61.61,0,0,0,11.47,21.34Z"/><path id="_Tracé_5" data-name="&lt;Tracé&gt;" class="cls-1" d="M37.55,14.8l1.08-.62a.58.58,0,0,0,.28-.37.56.56,0,0,0-.06-.47.64.64,0,0,0-.37-.29l-.16,0a.68.68,0,0,0-.31.08l-1.07.62a.63.63,0,0,0-.23.85A.63.63,0,0,0,37.55,14.8Z"/><path id="_Tracé_6" data-name="&lt;Tracé&gt;" class="cls-1" d="M12.75,27.79a.61.61,0,0,0-.31.09l-1.07.61a.69.69,0,0,0-.29.38.62.62,0,0,0,.6.77.55.55,0,0,0,.31-.08l1.07-.62a.62.62,0,0,0,.23-.84A.63.63,0,0,0,12.75,27.79Z"/><path id="_Tracé_7" data-name="&lt;Tracé&gt;" class="cls-1" d="M31.76,9.62h0a.59.59,0,0,0,.31.09.61.61,0,0,0,.53-.31l.62-1.07A.63.63,0,0,0,33,7.48a.68.68,0,0,0-.31-.08l-.16,0a.64.64,0,0,0-.37.29l-.62,1.07A.62.62,0,0,0,31.76,9.62Z"/><path id="_Tracé_8" data-name="&lt;Tracé&gt;" class="cls-1" d="M25,7.81a.61.61,0,0,0,.62-.61V6a.62.62,0,0,0-1.24,0V7.2A.61.61,0,0,0,25,7.81Z"/><path id="_Tracé_9" data-name="&lt;Tracé&gt;" class="cls-1" d="M17.4,9.4a.61.61,0,0,0,.53.31.63.63,0,0,0,.59-.46.56.56,0,0,0-.06-.47l-.62-1.07a.64.64,0,0,0-.37-.29l-.16,0a.68.68,0,0,0-.31.08.63.63,0,0,0-.22.85Z"/><path id="_Tracé_10" data-name="&lt;Tracé&gt;" class="cls-1" d="M11.37,14.18l1.08.62a.63.63,0,0,0,.84-.22.63.63,0,0,0-.23-.85L12,13.11a.68.68,0,0,0-.31-.08l-.16,0a.64.64,0,0,0-.37.29.56.56,0,0,0-.06.47A.58.58,0,0,0,11.37,14.18Z"/><path id="_Tracé_11" data-name="&lt;Tracé&gt;" class="cls-1" d="M38.63,28.49l-1.07-.61a.59.59,0,0,0-.31-.09l-.16,0a.69.69,0,0,0-.38.29.62.62,0,0,0,.23.84l1.07.62a.55.55,0,0,0,.31.08.62.62,0,0,0,.6-.77A.69.69,0,0,0,38.63,28.49Z"/></g></svg>