<svg id="Calque_1" data-name="Calque 1" xmlns="http://www.w3.org/2000/svg" viewBox="0 0 50 50"><defs><style>.cls-1{fill:#f58229;}</style></defs><title>picto_ynov_webcom_responsiv</title><g id="_Groupe_" data-name="&lt;Groupe&gt;"><path id="_Tracé_transparent_" data-name="&lt;Tracé transparent&gt;" class="cls-1" d="M42.12,24.37V10.42A3.17,3.17,0,0,0,39,7.25H11.05a3.17,3.17,0,0,0-3.17,3.17v9.51A1.9,1.9,0,0,0,6,21.83v19a1.9,1.9,0,0,0,1.9,1.9h14a1.9,1.9,0,0,0,1.9-1.9h5.32a1.89,1.89,0,0,0,1.51-.75,1.87,1.87,0,0,0,.32-1.65l-1.25-4.57h3.61v7a1.91,1.91,0,0,0,1.91,1.9h7a1.9,1.9,0,0,0,1.9-1.9V26.27A1.9,1.9,0,0,0,42.12,24.37ZM22.46,40.85a.64.64,0,0,1-.63.64H7.88a.64.64,0,0,1-.63-.64V39.58H22.46Zm0-2.53H7.25V24.37H22.46Zm0-15.22H7.25V21.83a.63.63,0,0,1,.63-.63h14a.63.63,0,0,1,.63.63Zm7.2,15.68a.63.63,0,0,1-.11.55.62.62,0,0,1-.5.25H23.73V38.32h5.8Zm-5.93-1.73V33.88h4.59l.86,3.17Zm9.51-4.44H23.73V28.8h9.51Zm0-6.34v1.27H23.73V21.83a1.9,1.9,0,0,0-1.9-1.9H16.76V18.81H15.49v1.12H14.22V18.81H13v1.12H11.68V18.81H10.42v1.12H9.15V10.42a1.91,1.91,0,0,1,1.9-1.91H39a1.91,1.91,0,0,1,1.9,1.91v14h-5.7A1.91,1.91,0,0,0,33.24,26.27Zm9.51,14.58a.64.64,0,0,1-.63.64h-7a.64.64,0,0,1-.64-.64V39.58h8.24Zm0-2.53H34.51V28.8h8.24Zm0-10.78H34.51V26.27a.64.64,0,0,1,.64-.64h7a.64.64,0,0,1,.63.64Z"/><rect id="_Tracé_" data-name="&lt;Tracé&gt;" class="cls-1" x="9.26" y="31.97" width="3.59" height="1.27" transform="translate(-19.82 17.36) rotate(-45)"/><rect id="_Tracé_2" data-name="&lt;Tracé&gt;" class="cls-1" x="10.74" y="31.34" width="10.76" height="1.27" transform="translate(-17.89 20.77) rotate(-45)"/><rect id="_Tracé_3" data-name="&lt;Tracé&gt;" class="cls-1" x="12.8" y="27.54" width="5.38" height="1.27" transform="translate(-15.38 19.2) rotate(-45)"/><rect id="_Tracé_4" data-name="&lt;Tracé&gt;" class="cls-1" x="35.76" y="31.66" width="4.48" height="1.27" transform="translate(-11.71 36.32) rotate(-45)"/><rect id="_Tracé_5" data-name="&lt;Tracé&gt;" class="cls-1" x="37.02" y="34.2" width="4.48" height="1.27" transform="translate(-13.13 37.97) rotate(-45)"/><rect id="_Tracé_6" data-name="&lt;Tracé&gt;" class="cls-1" x="22.31" y="16.12" width="5.38" height="1.27" transform="translate(-4.53 22.59) rotate(-45)"/><rect id="_Tracé_7" data-name="&lt;Tracé&gt;" class="cls-1" x="28.02" y="14.86" width="5.38" height="1.27" transform="translate(-1.96 26.25) rotate(-45)"/><rect id="_Tracé_8" data-name="&lt;Tracé&gt;" class="cls-1" x="24.47" y="19.29" width="3.59" height="1.27" transform="translate(-6.4 24.41) rotate(-45)"/><rect id="_Tracé_9" data-name="&lt;Tracé&gt;" class="cls-1" x="27.64" y="11.69" width="3.6" height="1.27" transform="translate(-0.09 24.42) rotate(-45)"/></g></svg>