<?xml version="1.0" encoding="utf-8"?>
<!-- Generator: Adobe Illustrator 22.1.0, SVG Export Plug-In . SVG Version: 6.00 Build 0)  -->
<svg version="1.1" id="Calque_1" xmlns="http://www.w3.org/2000/svg" xmlns:xlink="http://www.w3.org/1999/xlink" x="0px" y="0px"
	 viewBox="0 0 50 50" style="enable-background:new 0 0 50 50;" xml:space="preserve">
<style type="text/css">
	.st0{fill:#FBAE17;}
</style>
<title>picto_ynov_audiovisuel_clap</title>
<g id="_Groupe_">
	<path id="_Tracé_transparent_" class="st0" d="M47.2,17.7c-0.1-0.9-1-1.6-1.9-1.5l-7.1,0.6l0,0L6.3,19.9c0.2-0.5,0.3-1,0.2-1.6
		c-0.1-0.6-0.3-1.3-0.7-1.8l38.4-8.5c0.4-0.1,0.8-0.4,1.1-0.8c0.2-0.4,0.3-0.9,0.2-1.3l-1-4.7c-0.2-0.9-1.1-1.5-2-1.3L9.3,7.4
		L2.6,8.9C2.1,9,1.7,9.3,1.5,9.7c-0.2,0.4-0.3,0.9-0.2,1.3l1.1,4.8c-1.6,0.7-2.3,2.5-1.7,4.1c0.4,1,1.3,1.7,2.4,1.9l2.4,25
		c0.2,2,1.9,3.4,3.9,3.2l37-3.6c1.9-0.2,3.3-1.9,3.2-3.9L47.2,17.7z M45.5,17.7c0.1,0,0.1,0,0.1,0.1c0,0,0,0,0,0l0.4,4.4l-6.8,0.7
		l3.3-4.8L45.5,17.7z M38.9,18.3L38.9,18.3l1.6-0.1l-3.4,4.9l-7.5,0.7l3.4-4.9L38.9,18.3z M30.8,19.1L27.5,24L20,24.8l3.4-4.9
		L30.8,19.1z M21.2,20.1L17.9,25l-7.5,0.7l3.4-4.9L21.2,20.1z M41.4,1.9l1.5-0.3c0,0,0.1,0,0.1,0c0,0,0,0,0,0.1l1,4.7
		c0,0,0,0.1,0,0.1h-0.1l-5.6,1.2l2.9-5.6C41.3,2,41.4,2,41.4,1.9z M32,4l7.4-1.7l-3.1,5.8l-7.4,1.7l3-5.6C32,4.2,32,4.1,32,4z
		 M22.6,6.1L30,4.5l-3.1,5.8L19.5,12l3-5.6C22.6,6.3,22.6,6.2,22.6,6.1z M13.1,8.2h0.1l7.3-1.6l-3.1,5.8L10.1,14l3-5.6
		C13.1,8.3,13.1,8.3,13.1,8.2z M2.9,10.5L2.9,10.5C2.9,10.5,2.9,10.5,2.9,10.5l8.3-1.8l-3.1,5.8L4,15.5l-1.1-4.8
		C2.8,10.7,2.8,10.6,2.9,10.5C2.8,10.5,2.8,10.5,2.9,10.5L2.9,10.5z M3.7,20.2c-0.8,0.1-1.6-0.5-1.6-1.4C2,18,2.6,17.2,3.4,17.2
		s1.6,0.5,1.6,1.4C5.2,19.3,4.6,20.1,3.7,20.2z M4.7,21.6l7.1-0.7l-3.4,4.9l-3.2,0.3L4.7,21.6z M46.2,44.8l-37,3.6
		c-1.1,0.1-2.1-0.7-2.2-1.8L6,36.1l0,0l-0.8-8.2l40.9-4L48,42.7C48.1,43.7,47.3,44.7,46.2,44.8z"/>
	<path id="_Tracé_" class="st0" d="M36.9,30.6c0.4,0,0.8-0.4,0.7-0.9c0-0.4-0.4-0.7-0.8-0.7c0,0,0,0,0,0l-20.6,2
		c-0.4,0-0.8,0.4-0.8,0.8c0,0.4,0.4,0.8,0.8,0.8c0.1,0,0.1,0,0.2,0L36.9,30.6z"/>
	<path id="_Tracé_2" class="st0" d="M37.4,35.8c0.4,0,0.8-0.4,0.7-0.9c0-0.4-0.4-0.7-0.8-0.7c0,0,0,0,0,0l-20.6,2
		c-0.4,0-0.8,0.4-0.7,0.9c0,0.4,0.4,0.8,0.9,0.7L37.4,35.8z"/>
	<path id="_Tracé_3" class="st0" d="M37.8,39.7l-20.6,2c-0.4,0-0.8,0.4-0.8,0.8c0,0.4,0.4,0.8,0.8,0.8c0.1,0,0.1,0,0.2,0l20.6-2
		c0.4,0,0.8-0.4,0.7-0.9C38.6,40,38.3,39.7,37.8,39.7C37.8,39.7,37.8,39.7,37.8,39.7z"/>
</g>
</svg>
