<?xml version="1.0" encoding="utf-8"?>
<!-- Generator: Adobe Illustrator 22.1.0, SVG Export Plug-In . SVG Version: 6.00 Build 0)  -->
<svg version="1.1" id="Calque_1" xmlns="http://www.w3.org/2000/svg" xmlns:xlink="http://www.w3.org/1999/xlink" x="0px" y="0px"
	 viewBox="0 0 50 50" style="enable-background:new 0 0 50 50;" xml:space="preserve">
<style type="text/css">
	.st0{fill:#FBAE17;}
</style>
<title>picto_ynov_audiovisuel_film</title>
<g id="_Groupe_">
	<path id="_Tracé_transparent_" class="st0" d="M6,24.7c-1.5,0-2.7,1.2-2.7,2.6c0,1.5,1.2,2.7,2.6,2.7c1.5,0,2.7-1.2,2.7-2.6
		c0,0,0,0,0,0C8.6,25.9,7.4,24.7,6,24.7z M6,28.9c-0.9,0-1.6-0.7-1.6-1.6c0-0.9,0.7-1.6,1.6-1.6c0.9,0,1.6,0.7,1.6,1.6
		C7.5,28.2,6.8,28.9,6,28.9C6,28.9,6,28.9,6,28.9z"/>
	<path id="_Tracé_transparent_2" class="st0" d="M22.3,24.3h-10c-0.3,0-0.5,0.2-0.5,0.4c0,0,0,0.1,0,0.1v9.5c0,0.3,0.2,0.5,0.5,0.5
		c0,0,0,0,0.1,0h10c0.3,0,0.5-0.2,0.5-0.5c0,0,0,0,0-0.1v-9.5c0.1-0.3-0.1-0.5-0.4-0.6C22.3,24.3,22.3,24.3,22.3,24.3z M21.7,33.8
		h-8.8v-8.5h8.8V33.8z"/>
	<path id="_Tracé_transparent_3" class="st0" d="M49.1,24.6c0.5-0.2,0.8-0.7,0.8-1.2v-0.7c0-0.1,0-0.2-0.1-0.3
		c-0.1-0.1-0.2-0.1-0.3-0.1L46,22.7h-1.3c-0.2-0.5-0.7-0.9-1.2-0.9h-5.3l-1.7,0.4H34c-0.7,0-1.3,0.6-1.3,1.3h-5v-1.1
		c0-1.3-1-2.4-2.3-2.6l0,0v-5.4h1.4c0.3,0,0.5-0.2,0.5-0.4c0,0,0-0.1,0-0.1v-2.5c0-0.3-0.2-0.5-0.4-0.5c0,0-0.1,0-0.1,0H5.4
		c-0.3,0-0.5,0.2-0.5,0.5c0,0,0,0,0,0.1v2.5c0,0.3,0.2,0.5,0.5,0.5c0,0,0,0,0.1,0H22v5.4H6.5l-1.7-2.3c-0.2-0.3-0.6-0.5-1-0.5H2.7
		c-1.5,0-2.6,1.2-2.6,2.7v15.5c0,1.5,1.2,2.6,2.6,2.6H25c1.5,0,2.6-1.2,2.7-2.6v-1.1h5c0,0.7,0.6,1.3,1.3,1.3h2.5l1.7,0.4h5.3
		c0.5,0,1-0.3,1.2-0.9H46l3.4,0.4c0.1,0,0.3,0,0.3-0.1c0.1-0.1,0.1-0.2,0.1-0.3v-0.8c0-0.5-0.3-1-0.8-1.2c-0.6-0.1-1-0.7-0.9-1.4
		c0.1-0.5,0.5-0.8,0.9-0.9c0.5-0.2,0.8-0.7,0.8-1.2v-1.4c0-0.5-0.3-1-0.8-1.2c-0.6-0.1-1-0.7-0.9-1.4C48.3,25,48.7,24.7,49.1,24.6
		L49.1,24.6z M6,13.3v-1.4h20.1v1.4C26.1,13.3,6,13.3,6,13.3z M24.2,14.4v5.4h-1.1v-5.4L24.2,14.4z M26.5,35.1
		c0,0.8-0.7,1.5-1.5,1.5H2.7c-0.9,0-1.6-0.7-1.6-1.6v-0.2h3.7c0.3,0,0.6-0.2,0.6-0.6c0-0.3-0.2-0.6-0.6-0.6H1.1v-1.7h2.3
		c0.3,0,0.6-0.2,0.6-0.6S3.7,31,3.4,31H1.1V19.6c0-0.9,0.7-1.6,1.6-1.6h1.1l1.9,2.6c0.1,0.1,0.3,0.2,0.4,0.2H25
		c0.9,0,1.6,0.7,1.6,1.6l0,0L26.5,35.1z M32.6,33.1h-1.3c-0.1-0.2-0.3-0.4-0.5-0.3c-0.1,0-0.3,0.2-0.3,0.3h-0.9
		c0-0.2-0.3-0.4-0.5-0.4c-0.2,0-0.3,0.2-0.4,0.4h-1.1v-8.7h1.1v0.4c0,0.2,0.3,0.4,0.5,0.4c0.2,0,0.3-0.2,0.4-0.4v-0.4h0.9v0.4
		c0,0.2,0.2,0.4,0.4,0.4c0.2,0,0.4-0.2,0.4-0.4v-0.4h1.3L32.6,33.1z M36.1,34.4H34c-0.2,0-0.4-0.2-0.4-0.4V23.5
		c0-0.2,0.2-0.4,0.4-0.4h2.2V34.4z M37.8,34.7L37,34.5V23l0.9-0.2V34.7z M43.9,34.4c0,0.2-0.2,0.4-0.4,0.4h-4.8V22.7h4.8
		c0.2,0,0.4,0.2,0.4,0.4V34.4z M45.6,34h-0.9V23.5h0.9V34z M48.8,27.7c0.2,0.1,0.3,0.2,0.3,0.4v1.4c0,0.2-0.1,0.3-0.3,0.4
		c-0.8,0.3-1.4,1.1-1.5,1.9c0.1,0.9,0.6,1.7,1.5,2c0.2,0.1,0.3,0.2,0.3,0.4v0.2L46.5,34V23.5l2.6-0.3v0.2c0,0.2-0.1,0.3-0.3,0.4
		c-0.8,0.3-1.4,1.1-1.5,2C47.4,26.6,48,27.4,48.8,27.7L48.8,27.7z"/>
	<path id="_Tracé_" class="st0" d="M42.6,24H40c-0.2,0-0.4,0.3-0.4,0.5c0,0.2,0.2,0.3,0.4,0.4h2.6c0.2,0,0.4-0.3,0.4-0.5
		C42.9,24.2,42.8,24,42.6,24z"/>
	<path id="_Tracé_2" class="st0" d="M42.6,25.7H40c-0.2,0-0.4,0.2-0.4,0.4c0,0,0,0,0,0c0,0.2,0.2,0.4,0.4,0.4h2.6
		c0.2,0,0.4-0.2,0.4-0.4C43,25.9,42.8,25.7,42.6,25.7z"/>
	<path id="_Tracé_3" class="st0" d="M42.6,27.4H40c-0.2,0-0.4,0.2-0.4,0.4c0,0.2,0.2,0.4,0.4,0.4c0,0,0,0,0,0h2.6
		c0.2,0,0.4-0.2,0.4-0.4C43,27.6,42.8,27.4,42.6,27.4z"/>
	<path id="_Tracé_4" class="st0" d="M42.6,29.2H40c-0.2,0-0.4,0.2-0.4,0.4c0,0,0,0,0,0c0,0.2,0.2,0.4,0.4,0.4h2.6
		c0.2,0,0.4-0.2,0.4-0.4C43,29.4,42.8,29.2,42.6,29.2z"/>
	<path id="_Tracé_5" class="st0" d="M42.6,30.9H40c-0.2,0-0.4,0.2-0.4,0.4s0.2,0.4,0.4,0.4h2.6c0.2,0,0.4-0.2,0.4-0.4
		S42.8,30.9,42.6,30.9z"/>
	<path id="_Tracé_6" class="st0" d="M42.6,32.6H40c-0.2,0-0.4,0.3-0.4,0.5c0,0.2,0.2,0.3,0.4,0.4h2.6c0.2,0,0.4-0.3,0.4-0.5
		C42.9,32.8,42.8,32.7,42.6,32.6z"/>
	<path id="_Tracé_7" class="st0" d="M30.9,26.6c-0.2,0-0.4,0.2-0.4,0.4c0,0,0,0,0,0v0.9c0,0.2,0.2,0.4,0.4,0.4s0.4-0.2,0.4-0.4V27
		C31.4,26.8,31.2,26.6,30.9,26.6C30.9,26.6,30.9,26.6,30.9,26.6z"/>
	<path id="_Tracé_8" class="st0" d="M30.9,29.6c-0.2,0-0.4,0.2-0.4,0.4c0,0,0,0,0,0v0.9c0,0.2,0.2,0.4,0.4,0.4s0.4-0.2,0.4-0.4V30
		C31.4,29.8,31.2,29.6,30.9,29.6C30.9,29.6,30.9,29.6,30.9,29.6z"/>
	<path id="_Tracé_9" class="st0" d="M29.2,26.6c-0.2,0-0.4,0.2-0.4,0.4c0,0,0,0,0,0v0.9c0,0.2,0.3,0.4,0.5,0.4
		c0.2,0,0.3-0.2,0.4-0.4V27C29.6,26.8,29.4,26.6,29.2,26.6L29.2,26.6z"/>
	<path id="_Tracé_10" class="st0" d="M29.2,29.6c-0.2,0-0.4,0.2-0.4,0.4c0,0,0,0,0,0v0.9c0,0.2,0.3,0.4,0.5,0.4
		c0.2,0,0.3-0.2,0.4-0.4V30C29.6,29.8,29.4,29.6,29.2,29.6L29.2,29.6z"/>
</g>
</svg>
