<?xml version="1.0" encoding="utf-8"?>
<!-- Generator: Adobe Illustrator 22.1.0, SVG Export Plug-In . SVG Version: 6.00 Build 0)  -->
<svg version="1.1" id="Calque_1" xmlns="http://www.w3.org/2000/svg" xmlns:xlink="http://www.w3.org/1999/xlink" x="0px" y="0px"
	 viewBox="0 0 50 50" style="enable-background:new 0 0 50 50;" xml:space="preserve">
<style type="text/css">
	.st0{fill:#FBAE17;}
</style>
<title>picto_ynov_audiovisuel_mobile</title>
<g id="_Groupe_">
	<path id="_Tracé_transparent_" class="st0" d="M26.1,32.6c5.1,0,9.3-4.2,9.3-9.3S31.3,14,26.1,14c-5.1,0-9.3,4.2-9.3,9.3
		c0,2.5,1,4.8,2.7,6.6C21.3,31.6,23.6,32.6,26.1,32.6z M26.1,15.2c4.5,0,8.1,3.6,8.1,8.1s-3.6,8.1-8.1,8.1c-4.5,0-8.1-3.6-8.1-8.1
		c0,0,0,0,0,0C18,18.8,21.6,15.2,26.1,15.2z"/>
	<path id="_Tracé_transparent_2" class="st0" d="M23.6,28c0.2,0.1,0.4,0.2,0.7,0.2c0.3,0,0.5-0.1,0.8-0.2l5.2-3.5
		c0.6-0.5,0.8-1.4,0.3-2c-0.1-0.1-0.2-0.2-0.3-0.3l-5.2-3.5c-0.2-0.1-0.5-0.2-0.8-0.2c-0.2,0-0.5,0-0.7,0.2
		c-0.4,0.2-0.7,0.7-0.7,1.2v7C22.9,27.3,23.2,27.8,23.6,28z M24.1,19.8c0-0.1,0-0.2,0.1-0.2c0,0,0.1,0,0.1,0c0,0,0.1,0,0.1,0
		l5.2,3.5c0.1,0,0.1,0.1,0.1,0.2c0,0.1,0,0.2-0.1,0.2L24.4,27c0,0-0.1,0-0.1,0h-0.1c-0.1,0-0.1-0.1-0.1-0.2V19.8z"/>
	<path id="_Tracé_" class="st0" d="M28.4,17.2c1.7,0.6,3.1,2,3.7,3.7c0.1,0.2,0.3,0.4,0.5,0.4c0.1,0,0.1,0,0.2,0
		c0.1-0.1,0.3-0.2,0.3-0.3c0.1-0.1,0.1-0.3,0-0.4c-0.8-2-2.4-3.5-4.4-4.3c-0.1,0-0.1,0-0.2,0c-0.2,0-0.4,0.2-0.5,0.4
		C28,16.7,28,16.9,28,17C28.1,17.2,28.2,17.2,28.4,17.2z"/>
	<path id="_Tracé_2" class="st0" d="M26.1,16.8c0.4,0,0.7,0,1.1,0.1h0.1c0.3,0,0.5-0.2,0.6-0.5c0-0.2,0-0.3-0.1-0.4
		c-0.1-0.1-0.2-0.2-0.4-0.2c-0.4-0.1-0.8-0.1-1.3-0.1c-0.3,0-0.6,0.3-0.6,0.6C25.5,16.6,25.8,16.8,26.1,16.8
		C26.1,16.8,26.1,16.8,26.1,16.8L26.1,16.8z"/>
	<path id="_Tracé_transparent_3" class="st0" d="M36.4,0H15.2c-1.9,0-3.5,1.6-3.5,3.5c0,0,0,0,0,0v43c0,1.9,1.6,3.5,3.5,3.5h21.2
		c1.9,0,3.5-1.6,3.5-3.5v-43C39.8,1.6,38.3,0,36.4,0C36.4,0,36.4,0,36.4,0z M12.8,3.5c0-1.2,1-2.3,2.2-2.3c0,0,0.1,0,0.1,0h21.2
		c1.2,0,2.3,0.9,2.3,2.2c0,0,0,0.1,0,0.1v1.6H12.8V3.5z M38.7,46.5c0,1.2-1,2.3-2.3,2.3c0,0,0,0,0,0H15.2c-1.2,0-2.3-1-2.3-2.2
		c0,0,0,0,0-0.1v-6.6h25.8V46.5z M38.7,38.7H12.8V6.3h25.8V38.7z"/>
	<path id="_Tracé_transparent_4" class="st0" d="M25.8,47.5c1.7,0,3.1-1.4,3.1-3.1s-1.4-3.1-3.1-3.1c-1.7,0-3.1,1.4-3.1,3.1
		S24,47.5,25.8,47.5L25.8,47.5z M25.8,42.5c1.1,0,1.9,0.9,1.9,1.9c0,1.1-0.9,1.9-1.9,1.9c-1.1,0-1.9-0.9-1.9-1.9
		C23.8,43.3,24.7,42.5,25.8,42.5L25.8,42.5z"/>
</g>
</svg>
