<svg id="Calque_1" data-name="Calque 1" xmlns="http://www.w3.org/2000/svg" viewBox="0 0 50 50"><defs><style>.cls-1{fill:#4ac7e9;}</style></defs><title>picto_ynov_informatique_network</title><g id="_Groupe_" data-name="&lt;Groupe&gt;"><path id="_Tracé_transparent_" data-name="&lt;Tracé transparent&gt;" class="cls-1" d="M39.2,9.32H10.8A1.48,1.48,0,0,0,9.32,10.8v4.46a1.48,1.48,0,0,0,1.48,1.48H39.2a1.48,1.48,0,0,0,1.48-1.48V10.8A1.48,1.48,0,0,0,39.2,9.32Zm.48,5.94a.48.48,0,0,1-.48.48H10.8a.48.48,0,0,1-.48-.48V10.8a.49.49,0,0,1,.48-.48H39.2a.49.49,0,0,1,.48.48Z"/><path id="_Tracé_" data-name="&lt;Tracé&gt;" class="cls-1" d="M28.34,21H13a.5.5,0,0,0-.5.5.5.5,0,0,0,.5.5H28.34a.5.5,0,0,0,.5-.5A.5.5,0,0,0,28.34,21Z"/><path id="_Tracé_transparent_2" data-name="&lt;Tracé transparent&gt;" class="cls-1" d="M37,20a1.5,1.5,0,1,0,1.5,1.5A1.5,1.5,0,0,0,37,20Zm0,2a.5.5,0,0,1-.5-.5A.5.5,0,0,1,37,21a.51.51,0,0,1,.5.5A.5.5,0,0,1,37,22Z"/><path id="_Tracé_transparent_3" data-name="&lt;Tracé transparent&gt;" class="cls-1" d="M32.55,20a1.5,1.5,0,1,0,1.5,1.5A1.5,1.5,0,0,0,32.55,20Zm0,2a.5.5,0,0,1-.5-.5.5.5,0,0,1,1,0A.5.5,0,0,1,32.55,22Z"/><path id="_Tracé_transparent_4" data-name="&lt;Tracé transparent&gt;" class="cls-1" d="M39.2,17.74H10.8a1.48,1.48,0,0,0-1.48,1.48v4.46a1.48,1.48,0,0,0,1.48,1.48H39.2a1.48,1.48,0,0,0,1.48-1.48V19.22A1.48,1.48,0,0,0,39.2,17.74Zm.48,5.94a.48.48,0,0,1-.48.48H10.8a.48.48,0,0,1-.48-.48V19.22a.49.49,0,0,1,.48-.48H39.2a.49.49,0,0,1,.48.48Z"/><path id="_Tracé_2" data-name="&lt;Tracé&gt;" class="cls-1" d="M28.34,29.37H13a.5.5,0,0,0-.5.5.5.5,0,0,0,.5.5H28.34a.5.5,0,0,0,.5-.5A.5.5,0,0,0,28.34,29.37Z"/><path id="_Tracé_transparent_5" data-name="&lt;Tracé transparent&gt;" class="cls-1" d="M37,28.37a1.5,1.5,0,1,0,1.5,1.5A1.5,1.5,0,0,0,37,28.37Zm0,2a.5.5,0,0,1-.5-.5.5.5,0,0,1,.5-.5.51.51,0,0,1,.5.5A.5.5,0,0,1,37,30.37Z"/><path id="_Tracé_transparent_6" data-name="&lt;Tracé transparent&gt;" class="cls-1" d="M32.55,28.37a1.5,1.5,0,1,0,1.5,1.5A1.5,1.5,0,0,0,32.55,28.37Zm0,2a.5.5,0,0,1-.5-.5.5.5,0,0,1,1,0A.5.5,0,0,1,32.55,30.37Z"/><path id="_Tracé_transparent_7" data-name="&lt;Tracé transparent&gt;" class="cls-1" d="M39.2,26.16H10.8a1.48,1.48,0,0,0-1.48,1.48v4.47a1.47,1.47,0,0,0,1.48,1.47H39.2a1.47,1.47,0,0,0,1.48-1.47V27.64A1.48,1.48,0,0,0,39.2,26.16Zm.48,5.95a.48.48,0,0,1-.48.47H10.8a.48.48,0,0,1-.48-.47V27.64a.49.49,0,0,1,.48-.48H39.2a.49.49,0,0,1,.48.48Z"/><path id="_Tracé_3" data-name="&lt;Tracé&gt;" class="cls-1" d="M40.18,38a.5.5,0,0,0,0-1H28.85a.49.49,0,0,0-.49-.42H27.05V35.08a.51.51,0,0,0-.5-.5.5.5,0,0,0-.5.5v2a.5.5,0,0,0,.5.5h1.31v2.09H22.14V37.59h2.4a.5.5,0,0,0,.5-.5.5.5,0,0,0-.5-.5H24V35.08a.5.5,0,0,0-.5-.5.51.51,0,0,0-.5.5v1.51H21.64a.49.49,0,0,0-.49.42H9.82a.5.5,0,0,0,0,1H21.14v1H9.82a.5.5,0,0,0-.5.5.5.5,0,0,0,.5.5H21.14v.17a.5.5,0,0,0,.5.5h6.72a.5.5,0,0,0,.5-.5V40H40.18a.5.5,0,0,0,.5-.5.5.5,0,0,0-.5-.5H28.86V38Z"/><path id="_Tracé_4" data-name="&lt;Tracé&gt;" class="cls-1" d="M28.34,12.53H13a.5.5,0,0,0,0,1H28.34a.5.5,0,0,0,0-1Z"/><path id="_Tracé_transparent_8" data-name="&lt;Tracé transparent&gt;" class="cls-1" d="M37,11.53a1.5,1.5,0,1,0,1.5,1.5A1.5,1.5,0,0,0,37,11.53Zm0,2a.5.5,0,0,1-.5-.5.5.5,0,0,1,.5-.5.51.51,0,0,1,.5.5A.5.5,0,0,1,37,13.53Z"/><path id="_Tracé_transparent_9" data-name="&lt;Tracé transparent&gt;" class="cls-1" d="M32.55,11.53a1.5,1.5,0,1,0,1.5,1.5A1.5,1.5,0,0,0,32.55,11.53Zm0,2a.5.5,0,0,1-.5-.5.5.5,0,0,1,1,0A.5.5,0,0,1,32.55,13.53Z"/></g></svg>