<svg id="Calque_1" data-name="Calque 1" xmlns="http://www.w3.org/2000/svg" viewBox="0 0 50 50"><defs><style>.cls-1{fill:#4ac7e9;}</style></defs><title>picto_ynov_informatique_security</title><g id="_Groupe_" data-name="&lt;Groupe&gt;"><path id="_Tracé_transparent_" data-name="&lt;Tracé transparent&gt;" class="cls-1" d="M20.31,21.22v2H18.63V33.47H31.37V23.25H29.69v-2a4.69,4.69,0,0,0-9.38,0Zm10.08,3v8.26H19.61V24.23ZM25,17.51a3.71,3.71,0,0,1,3.71,3.71v2H21.29v-2A3.71,3.71,0,0,1,25,17.51Z"/><rect id="_Tracé_" data-name="&lt;Tracé&gt;" class="cls-1" x="21.99" y="24.51" width="6.02" height="0.98"/><path id="_Tracé_transparent_2" data-name="&lt;Tracé transparent&gt;" class="cls-1" d="M38,12.62l-12.85-4-.14,0-.14,0L12,12.62a.47.47,0,0,0-.34.45V23.48A18.71,18.71,0,0,0,24.86,41.34l.14,0,.14,0A18.71,18.71,0,0,0,38.33,23.48V13.07A.47.47,0,0,0,38,12.62Zm-.62,10.86A17.67,17.67,0,0,1,25.16,40.32l-.16.06-.16-.06A17.67,17.67,0,0,1,12.63,23.48v-10L25,9.62l12.37,3.81Z"/></g></svg>