<svg id="Calque_1" data-name="Calque 1" xmlns="http://www.w3.org/2000/svg" viewBox="0 0 50 50"><defs><style>.cls-1{fill:#4ac7e9;}</style></defs><title>picto_ynov_informatique_code</title><g id="_Groupe_" data-name="&lt;Groupe&gt;"><path id="_Tracé_transparent_" data-name="&lt;Tracé transparent&gt;" class="cls-1" d="M40.22,9.55H9.78a.49.49,0,0,0-.5.49V40a.49.49,0,0,0,.5.49H40.22a.49.49,0,0,0,.5-.49V10A.49.49,0,0,0,40.22,9.55Zm-.49,29.92H10.27V16.83H39.73Zm0-23.62H10.27V10.53H39.73Z"/><path id="_Tracé_" data-name="&lt;Tracé&gt;" class="cls-1" d="M29.72,12.63H35.5a.49.49,0,1,0,0-1H29.72a.49.49,0,0,0,0,1Z"/><path id="_Tracé_2" data-name="&lt;Tracé&gt;" class="cls-1" d="M37.07,12.63h1a.49.49,0,1,0,0-1h-1a.49.49,0,0,0,0,1Z"/><path id="_Tracé_transparent_2" data-name="&lt;Tracé transparent&gt;" class="cls-1" d="M25.52,15.26a2.07,2.07,0,1,0-2.06-2.07A2.07,2.07,0,0,0,25.52,15.26Zm0-3.15a1.08,1.08,0,1,1-1.08,1.08A1.08,1.08,0,0,1,25.52,12.11Z"/><path id="_Tracé_transparent_3" data-name="&lt;Tracé transparent&gt;" class="cls-1" d="M19.75,15.26a2.07,2.07,0,1,0-2.07-2.07A2.07,2.07,0,0,0,19.75,15.26Zm0-3.15a1.08,1.08,0,1,1-1.08,1.08A1.08,1.08,0,0,1,19.75,12.11Z"/><path id="_Tracé_transparent_4" data-name="&lt;Tracé transparent&gt;" class="cls-1" d="M14,15.26a2.07,2.07,0,1,0-2.07-2.07A2.07,2.07,0,0,0,14,15.26Zm0-3.15a1.08,1.08,0,1,1-1.09,1.08A1.08,1.08,0,0,1,14,12.11Z"/><path id="_Tracé_transparent_5" data-name="&lt;Tracé transparent&gt;" class="cls-1" d="M17.19,33.78a1.48,1.48,0,0,0,1,.37h0a1.5,1.5,0,0,0,1.1-.49,1.47,1.47,0,0,0-.12-2.08l-3.79-3.4,3.82-3.62a1.47,1.47,0,0,0,.06-2.08,1.46,1.46,0,0,0-2.09-.06l-5,4.72a1.51,1.51,0,0,0-.46,1.1,1.53,1.53,0,0,0,.49,1.08Zm-4.34-5.92,5-4.73a.51.51,0,0,1,.34-.13h0a.49.49,0,0,1,.34.15.52.52,0,0,1,.14.35.5.5,0,0,1-.16.35l-4.21,4a.48.48,0,0,0-.15.36.48.48,0,0,0,.16.36l4.19,3.75a.49.49,0,0,1,0,.7.48.48,0,0,1-.36.16.44.44,0,0,1-.33-.13l-5-4.46a.48.48,0,0,1-.16-.36A.46.46,0,0,1,12.85,27.86Z"/><path id="_Tracé_transparent_6" data-name="&lt;Tracé transparent&gt;" class="cls-1" d="M34.63,28.18l-3.79,3.4a1.47,1.47,0,0,0-.12,2.08,1.5,1.5,0,0,0,1.1.49h0a1.48,1.48,0,0,0,1-.37l5-4.46a1.53,1.53,0,0,0,.49-1.08,1.51,1.51,0,0,0-.46-1.1l-5-4.72a1.47,1.47,0,1,0-2,2.14Zm-3.16-5a.5.5,0,0,1,.69,0l5,4.73a.46.46,0,0,1,.15.36h0a.48.48,0,0,1-.16.36l-5,4.46a.44.44,0,0,1-.33.13h0a.48.48,0,0,1-.36-.16.49.49,0,0,1,0-.7l4.19-3.75a.48.48,0,0,0,.16-.36.48.48,0,0,0-.15-.36l-4.21-4A.49.49,0,0,1,31.47,23.15Z"/><path id="_Tracé_transparent_7" data-name="&lt;Tracé transparent&gt;" class="cls-1" d="M21.64,34a1.45,1.45,0,0,0,.73.19,1.47,1.47,0,0,0,1.28-.74l5-8.66a1.46,1.46,0,0,0,.15-1.12,1.44,1.44,0,0,0-.69-.89h0a1.47,1.47,0,0,0-2,.54l-5,8.66A1.47,1.47,0,0,0,21.64,34ZM22,32.43l5-8.66a.48.48,0,0,1,.42-.25.45.45,0,0,1,.25.07.5.5,0,0,1,.23.3.53.53,0,0,1-.05.37l-5,8.66a.48.48,0,0,1-.43.25.44.44,0,0,1-.24-.07A.48.48,0,0,1,22,32.43Z"/></g></svg>