<svg id="Calque_1" data-name="Calque 1" xmlns="http://www.w3.org/2000/svg" viewBox="0 0 50 50"><defs><style>.cls-1{fill:#d1223e;}</style></defs><title>picto_ynov_digital_globe</title><g id="_Groupe_" data-name="&lt;Groupe&gt;"><path id="_Tracé_transparent_" data-name="&lt;Tracé transparent&gt;" class="cls-1" d="M39.1,24.46H33.6a30,30,0,0,0-1.06-7.54h3.61a.54.54,0,0,0,0-1.07H32.22A17.23,17.23,0,0,0,30,11.38a.54.54,0,1,0-.88.62,15.39,15.39,0,0,1,1.93,3.85H25.54V10.9a.54.54,0,0,0-1.08,0v4.95H18.91A15.39,15.39,0,0,1,20.84,12a.54.54,0,1,0-.88-.62,17.23,17.23,0,0,0-2.18,4.47H13.85a.54.54,0,0,0,0,1.07h3.61a30,30,0,0,0-1.06,7.54H10.9a.54.54,0,0,0,0,1.08h5.5a30,30,0,0,0,1.06,7.54H13.85a.54.54,0,0,0,0,1.07h3.93A17.23,17.23,0,0,0,20,38.62a.54.54,0,0,0,.44.23.57.57,0,0,0,.31-.1.54.54,0,0,0,.13-.75,15.39,15.39,0,0,1-1.93-3.85h5.55v5a.54.54,0,0,0,1.08,0v-5h5.55A15.39,15.39,0,0,1,29.16,38a.54.54,0,0,0,.13.75.57.57,0,0,0,.31.1.54.54,0,0,0,.44-.23,17.23,17.23,0,0,0,2.18-4.47h3.93a.54.54,0,0,0,0-1.07H32.54a30,30,0,0,0,1.06-7.54h5.5a.54.54,0,0,0,0-1.08ZM24.46,33.08H18.57a28.74,28.74,0,0,1-1.1-7.54h7Zm0-8.62h-7a28.74,28.74,0,0,1,1.1-7.54h5.89Zm7,8.62H25.54V25.54h7A28.74,28.74,0,0,1,31.43,33.08Zm-5.89-8.62V16.92h5.89a28.74,28.74,0,0,1,1.1,7.54Z"/><path id="_Tracé_transparent_2" data-name="&lt;Tracé transparent&gt;" class="cls-1" d="M36.86,13.14A16.78,16.78,0,0,0,11,34.23L8.94,40.38a.56.56,0,0,0,.13.55.53.53,0,0,0,.55.12l6.15-2A16.78,16.78,0,0,0,36.86,13.14ZM25,40.7A15.6,15.6,0,0,1,16.15,38a.53.53,0,0,0-.3-.09.51.51,0,0,0-.17,0L10.3,39.7l1.79-5.38a.52.52,0,0,0-.06-.47A15.7,15.7,0,1,1,25,40.7Z"/></g></svg>