<svg id="Calque_1" data-name="Calque 1" xmlns="http://www.w3.org/2000/svg" viewBox="0 0 50 50"><defs><style>.cls-1{fill:#d1223e;}</style></defs><title>picto_ynov_digital_management</title><g id="_Groupe_" data-name="&lt;Groupe&gt;"><path id="_Tracé_transparent_" data-name="&lt;Tracé transparent&gt;" class="cls-1" d="M15.58,35.83a3.3,3.3,0,1,0-3.3-3.29A3.3,3.3,0,0,0,15.58,35.83Zm0-5.5a2.21,2.21,0,1,1-2.21,2.21A2.21,2.21,0,0,1,15.58,30.33Z"/><path id="_Tracé_transparent_2" data-name="&lt;Tracé transparent&gt;" class="cls-1" d="M15.43,36A4.06,4.06,0,0,0,11.37,40V42a.54.54,0,0,0,.54.54h7a.55.55,0,0,0,.55-.53l0-1.93h0A4.07,4.07,0,0,0,15.43,36Zm2.95,5.44H12.46V40a3,3,0,0,1,5.95,0Z"/><path id="_Tracé_transparent_3" data-name="&lt;Tracé transparent&gt;" class="cls-1" d="M34.42,29.24a3.3,3.3,0,1,0,3.3,3.3A3.3,3.3,0,0,0,34.42,29.24Zm0,5.51a2.21,2.21,0,1,1,2.21-2.21A2.21,2.21,0,0,1,34.42,34.75Z"/><path id="_Tracé_transparent_4" data-name="&lt;Tracé transparent&gt;" class="cls-1" d="M34.57,36A4.07,4.07,0,0,0,30.5,40h0l0,1.93a.55.55,0,0,0,.55.53h7a.54.54,0,0,0,.54-.54V40A4.06,4.06,0,0,0,34.57,36Zm3,5.44H31.62l0-1.38a3,3,0,0,1,5.95,0Z"/><path id="_Tracé_transparent_5" data-name="&lt;Tracé transparent&gt;" class="cls-1" d="M21.81,32.54a3.3,3.3,0,1,0,3.29-3.3A3.3,3.3,0,0,0,21.81,32.54Zm5.5,0a2.21,2.21,0,1,1-2.21-2.21A2.21,2.21,0,0,1,27.31,32.54Z"/><path id="_Tracé_transparent_6" data-name="&lt;Tracé transparent&gt;" class="cls-1" d="M25,36A4.06,4.06,0,0,0,20.9,40V42a.54.54,0,0,0,.54.54h7A.55.55,0,0,0,29,42L29,40h0A4.06,4.06,0,0,0,25,36Zm2.95,5.44H22V40a3,3,0,0,1,5.95,0Z"/><path id="_Tracé_" data-name="&lt;Tracé&gt;" class="cls-1" d="M27.92,12.85a4.05,4.05,0,0,1,.12.5.54.54,0,0,0,.54.45h.08a.55.55,0,0,0,.45-.63,3.74,3.74,0,0,0-.16-.66.54.54,0,0,0-.69-.34A.53.53,0,0,0,27.92,12.85Z"/><path id="_Tracé_2" data-name="&lt;Tracé&gt;" class="cls-1" d="M25,10.76a3,3,0,0,1,2.36,1.11.55.55,0,1,0,.84-.7A4.17,4.17,0,0,0,25,9.67a.55.55,0,0,0-.54.55A.54.54,0,0,0,25,10.76Z"/><path id="_Tracé_transparent_7" data-name="&lt;Tracé transparent&gt;" class="cls-1" d="M22.15,19.51a.53.53,0,0,0,0,.13V23.7a.54.54,0,0,0,.54.54h1.78v1.52h-9a.54.54,0,0,0-.54.54v1.45a.55.55,0,0,0,.54.55.55.55,0,0,0,.55-.55v-.9h8.48v.9a.54.54,0,1,0,1.08,0v-.9h7.9v.9a.55.55,0,0,0,.55.55.55.55,0,0,0,.54-.55V26.3a.54.54,0,0,0-.54-.54H25.54V24.24h1.78a.54.54,0,0,0,.54-.54V19.64a.53.53,0,0,0,0-.13,6.34,6.34,0,1,0-5.7,0Zm4.63,3.64H23.22v-.94h3.56Zm0-2H23.22v-.94h3.56ZM24.09,19V15h1.82V19a5.22,5.22,0,0,1-1.82,0ZM25,8.59A5.25,5.25,0,0,1,27,18.7V15h.62a.54.54,0,1,0,0-1.08H27v-.33a.54.54,0,1,0-1.08,0v.33H24.09v-.33a.54.54,0,1,0-1.08,0v.33h-.62a.54.54,0,1,0,0,1.08H23V18.7A5.25,5.25,0,0,1,25,8.59Z"/><path id="_Tracé_3" data-name="&lt;Tracé&gt;" class="cls-1" d="M14,12.65h2.25a.55.55,0,0,0,.55-.54.55.55,0,0,0-.55-.55H14a.55.55,0,0,0-.55.55A.55.55,0,0,0,14,12.65Z"/><path id="_Tracé_4" data-name="&lt;Tracé&gt;" class="cls-1" d="M16.5,13.57,15.06,15a.55.55,0,0,0,.39.93.51.51,0,0,0,.38-.16l1.44-1.43a.55.55,0,0,0,0-.77A.53.53,0,0,0,16.5,13.57Z"/><path id="_Tracé_5" data-name="&lt;Tracé&gt;" class="cls-1" d="M16.48,10.65a.58.58,0,0,0,.39.15.54.54,0,0,0,.38-.15.55.55,0,0,0,0-.77L15.82,8.44a.54.54,0,1,0-.77.77Z"/><path id="_Tracé_6" data-name="&lt;Tracé&gt;" class="cls-1" d="M33.78,12.11a.55.55,0,0,0,.55.54h2.25a.55.55,0,0,0,.55-.54.55.55,0,0,0-.55-.55H34.33A.55.55,0,0,0,33.78,12.11Z"/><path id="_Tracé_7" data-name="&lt;Tracé&gt;" class="cls-1" d="M34.75,15.77a.51.51,0,0,0,.38.16.55.55,0,0,0,.39-.93l-1.44-1.43a.53.53,0,0,0-.77,0,.55.55,0,0,0,0,.77Z"/><path id="_Tracé_8" data-name="&lt;Tracé&gt;" class="cls-1" d="M33.71,10.8a.58.58,0,0,0,.39-.15l1.43-1.44a.54.54,0,0,0-.77-.77L33.33,9.88a.55.55,0,0,0,0,.77A.54.54,0,0,0,33.71,10.8Z"/></g></svg>