<svg id="Calque_1" data-name="Calque 1" xmlns="http://www.w3.org/2000/svg" viewBox="0 0 50 50"><defs><style>.cls-1{fill:#d1223e;}</style></defs><title>picto_ynov_digital_communication</title><g id="_Groupe_" data-name="&lt;Groupe&gt;"><path id="_Tracé_transparent_" data-name="&lt;Tracé transparent&gt;" class="cls-1" d="M44.25,38l-4-28.74a.6.6,0,0,0-.9-.43l-2.07,1.24h0L18.19,21.45,10,22.59a.61.61,0,0,0-.51.68l.2,1.39-1.54.21a.61.61,0,0,0-.51.67l.14,1-1.53.21a.61.61,0,0,0-.51.68L6.11,30a.59.59,0,0,0,.67.51l1.54-.21.13,1a.6.6,0,0,0,.68.51l1.53-.21L10.85,33a.61.61,0,0,0,.68.51l.83-.12,1,7.37a.6.6,0,0,0,.67.51l3.48-.49a.59.59,0,0,0,.51-.52l.9-7.79.76-.1L32.1,35.63h0l9,2.41h0l2.33.62A.6.6,0,0,0,44.25,38Zm-37-8.78L7,27.85,8,27.72l.19,1.38Zm2.35,1.29h0l-.14-1L9.06,27l-.14-1,.94-.13.64,4.55Zm8.32-7.82.11.8L14.47,24l-.11-.8Zm-.3,11.22-1,.15a.6.6,0,1,0,.17,1.18l.73-.1-.11.88-1.15.16a.6.6,0,0,0,.17,1.19l.84-.12-.28,2.37L14.49,40l-1-6.78,4.19-.58Zm.75-2.6-5.54.77-.83.12-.2-1.39L11,25.08l-.19-1.39,2.4-.33.2,1.39a.6.6,0,0,0,.67.51l4.12-.58.91,6.54ZM36.2,35.49a.05.05,0,0,0,0,0L20.28,31.25c0-.3-1.22-8.77-1.24-8.91L37.09,11.57c.76,5.5,1.39,10,2.16,15.44.25,1.9,1.12,8.17,1.34,9.65ZM41.85,37c-.2-1.31-.82-5.78-1.2-8.53,0,0,0,0,0-.06-.07-.53-.14-1-.22-1.55l0-.23h0c-.78-5.47-1.42-10-2.19-15.7l1-.58,3.76,27Z"/><path id="_Tracé_" data-name="&lt;Tracé&gt;" class="cls-1" d="M35.37,13.72,29.1,17.44a.54.54,0,0,0-.19.75.55.55,0,0,0,.75.19l6.27-3.72a.55.55,0,1,0-.56-.94Z"/><path id="_Tracé_2" data-name="&lt;Tracé&gt;" class="cls-1" d="M27.11,18.66l-.77.45a.54.54,0,0,0-.19.75.55.55,0,0,0,.75.2l.77-.46a.55.55,0,1,0-.56-.94Z"/></g></svg>