<?xml version="1.0" encoding="utf-8"?>
<!-- Generator: Adobe Illustrator 22.1.0, SVG Export Plug-In . SVG Version: 6.00 Build 0)  -->
<svg version="1.1" id="Calque_1" xmlns="http://www.w3.org/2000/svg" xmlns:xlink="http://www.w3.org/1999/xlink" x="0px" y="0px"
	 viewBox="0 0 50 50" style="enable-background:new 0 0 50 50;" xml:space="preserve">
<style type="text/css">
	.st0{fill:#4AC7E9;}
</style>
<title>picto_ynov_informatique_code</title>
<g id="_Groupe_">
	<path id="_Tracé_transparent_" class="st0" d="M49.1,0.4H0.8C0.4,0.4,0,0.8,0,1.2c0,0,0,0,0,0v47.6c0,0.4,0.3,0.8,0.8,0.8
		c0,0,0,0,0,0h48.4c0.4,0,0.8-0.3,0.8-0.8c0,0,0,0,0,0V1.1C49.9,0.7,49.6,0.4,49.1,0.4z M48.4,47.9H1.6V12h46.8V47.9z M48.4,10.4
		H1.6V2h46.8V10.4z"/>
	<path id="_Tracé_" class="st0" d="M32.5,5.3h9.2c0.4,0,0.8-0.4,0.8-0.8s-0.4-0.8-0.8-0.8h-9.2c-0.4,0-0.8,0.4-0.8,0.8
		S32,5.3,32.5,5.3z"/>
	<path id="_Tracé_2" class="st0" d="M44.1,5.3h1.6c0.4,0,0.8-0.4,0.8-0.8s-0.4-0.8-0.8-0.8h-1.6c-0.4,0-0.8,0.4-0.8,0.8
		S43.7,5.3,44.1,5.3L44.1,5.3z"/>
	<path id="_Tracé_transparent_2" class="st0" d="M25.8,9.5c1.8,0,3.3-1.5,3.3-3.3c0-1.8-1.5-3.3-3.3-3.3c-1.8,0-3.3,1.5-3.3,3.3
		c0,0,0,0,0,0C22.5,8,24,9.5,25.8,9.5z M25.8,4.5c0.9,0,1.7,0.8,1.7,1.7c0,0.9-0.8,1.7-1.7,1.7c-0.9,0-1.7-0.8-1.7-1.7l0,0
		C24.1,5.3,24.9,4.5,25.8,4.5C25.8,4.5,25.8,4.5,25.8,4.5z"/>
	<path id="_Tracé_transparent_3" class="st0" d="M16.6,9.5c1.8,0,3.3-1.5,3.3-3.3s-1.5-3.3-3.3-3.3c-1.8,0-3.3,1.5-3.3,3.3l0,0
		C13.3,8,14.8,9.5,16.6,9.5z M16.6,4.5c0.9,0,1.7,0.8,1.7,1.7c0,0.9-0.8,1.7-1.7,1.7c-0.9,0-1.7-0.8-1.7-1.7l0,0
		C14.9,5.3,15.7,4.5,16.6,4.5C16.6,4.5,16.6,4.5,16.6,4.5z"/>
	<path id="_Tracé_transparent_4" class="st0" d="M7.5,9.5c1.8,0,3.3-1.5,3.3-3.3S9.3,2.9,7.5,2.9c-1.8,0-3.3,1.5-3.3,3.3l0,0
		C4.2,8,5.7,9.5,7.5,9.5z M7.5,4.5c0.9,0,1.7,0.8,1.7,1.7c0,0.9-0.8,1.7-1.7,1.7c-0.9,0-1.7-0.8-1.7-1.7C5.8,5.3,6.5,4.5,7.5,4.5
		C7.5,4.5,7.5,4.5,7.5,4.5z"/>
	<path id="_Tracé_transparent_5" class="st0" d="M12.6,38.9c0.4,0.4,1,0.6,1.6,0.6l0,0c0.7,0,1.3-0.3,1.7-0.8
		c0.9-1,0.8-2.4-0.2-3.3c0,0,0,0,0,0l-6-5.4l6.1-5.8c0.9-0.9,1-2.4,0.1-3.3c0,0,0,0,0,0c-0.9-0.9-2.3-1-3.3-0.1c0,0,0,0,0,0
		l-7.9,7.5c-0.5,0.5-0.7,1.1-0.7,1.7c0,0.7,0.3,1.3,0.8,1.7L12.6,38.9z M5.7,29.5l7.9-7.5c0.1-0.1,0.3-0.2,0.5-0.2l0,0
		c0.2,0,0.4,0.1,0.5,0.2c0.1,0.2,0.2,0.3,0.2,0.6c0,0.2-0.1,0.4-0.3,0.6L8,29.5c-0.2,0.1-0.2,0.4-0.2,0.6c0,0.2,0.1,0.4,0.3,0.6
		l6.7,6c0.3,0.3,0.3,0.8,0,1.1c0,0,0,0,0,0c-0.1,0.2-0.4,0.3-0.6,0.3c-0.2,0-0.4-0.1-0.5-0.2l-7.9-7.1c-0.2-0.1-0.3-0.4-0.3-0.6
		C5.4,29.9,5.5,29.6,5.7,29.5z"/>
	<path id="_Tracé_transparent_6" class="st0" d="M40.3,30l-6,5.4c-1,0.9-1.1,2.3-0.2,3.3c0,0,0,0,0,0c0.4,0.5,1.1,0.8,1.7,0.8l0,0
		c0.6,0,1.2-0.2,1.6-0.6l7.9-7.1c0.5-0.4,0.8-1.1,0.8-1.7c0-0.7-0.3-1.3-0.7-1.7l-7.9-7.5c-0.9-1-2.3-1-3.3-0.2
		c-1,0.9-1,2.3-0.2,3.3c0.1,0.1,0.2,0.2,0.3,0.3L40.3,30z M35.2,22.1c0.3-0.3,0.8-0.3,1.1,0l7.9,7.5c0.2,0.1,0.2,0.4,0.2,0.6l0,0
		c0,0.2-0.1,0.4-0.3,0.6l-7.9,7.1C36.2,38,36,38,35.8,38l0,0c-0.2,0-0.4-0.1-0.6-0.3c-0.3-0.3-0.3-0.8,0-1.1c0,0,0,0,0,0l6.7-6
		c0.2-0.1,0.3-0.4,0.3-0.6c0-0.2-0.1-0.4-0.2-0.6l-6.7-6.4C34.9,22.9,34.9,22.4,35.2,22.1C35.2,22.1,35.2,22,35.2,22.1L35.2,22.1z"
		/>
	<path id="_Tracé_transparent_7" class="st0" d="M19.6,39.3c0.4,0.2,0.8,0.3,1.2,0.3c0.8,0,1.6-0.4,2-1.2l7.9-13.8
		c0.3-0.5,0.4-1.2,0.2-1.8c-0.2-0.6-0.6-1.1-1.1-1.4l0,0c-1.1-0.6-2.5-0.3-3.2,0.9L18.8,36C18.1,37.2,18.5,38.6,19.6,39.3
		C19.6,39.3,19.6,39.3,19.6,39.3z M20.2,36.8L28.1,23c0.1-0.2,0.4-0.4,0.7-0.4c0.1,0,0.3,0,0.4,0.1c0.2,0.1,0.3,0.3,0.4,0.5
		c0,0.2,0,0.4-0.1,0.6l-7.9,13.8c-0.1,0.2-0.4,0.4-0.7,0.4c-0.1,0-0.3,0-0.4-0.1C20.1,37.6,20,37.2,20.2,36.8
		C20.2,36.8,20.2,36.8,20.2,36.8z"/>
</g>
</svg>
