<?xml version="1.0" encoding="utf-8"?>
<!-- Generator: Adobe Illustrator 22.1.0, SVG Export Plug-In . SVG Version: 6.00 Build 0)  -->
<svg version="1.1" id="Calque_1" xmlns="http://www.w3.org/2000/svg" xmlns:xlink="http://www.w3.org/1999/xlink" x="0px" y="0px"
	 viewBox="0 0 50 50" style="enable-background:new 0 0 50 50;" xml:space="preserve">
<style type="text/css">
	.st0{fill:#4AC7E9;}
</style>
<title>picto_ynov_informatique_network</title>
<g id="_Groupe_">
	<path id="_Tracé_transparent_" class="st0" d="M47.6,0H2.4C1.1,0,0,1.1,0,2.4v0v7.1c0,1.3,1.1,2.4,2.4,2.4h45.3
		c1.3,0,2.4-1.1,2.4-2.4V2.4C50,1.1,48.9,0,47.6,0z M48.4,9.5c0,0.4-0.3,0.8-0.8,0.8H2.4c-0.4,0-0.8-0.3-0.8-0.8V2.4
		c0-0.4,0.3-0.8,0.8-0.8h45.3c0.4,0,0.8,0.3,0.8,0.8V9.5z"/>
	<path id="_Tracé_" class="st0" d="M30.3,18.6H5.9c-0.4,0-0.8,0.4-0.8,0.8c0,0.4,0.4,0.8,0.8,0.8h24.5c0.4,0,0.8-0.4,0.8-0.8
		C31.1,19,30.8,18.6,30.3,18.6z"/>
	<path id="_Tracé_transparent_2" class="st0" d="M44.1,17c-1.3,0-2.4,1.1-2.4,2.4c0,1.3,1.1,2.4,2.4,2.4c1.3,0,2.4-1.1,2.4-2.4
		C46.5,18.1,45.5,17,44.1,17z M44.1,20.2c-0.4,0-0.8-0.4-0.8-0.8c0-0.4,0.4-0.8,0.8-0.8c0.4,0,0.8,0.4,0.8,0.8
		C44.9,19.9,44.6,20.2,44.1,20.2z"/>
	<path id="_Tracé_transparent_3" class="st0" d="M37,17c-1.3,0-2.4,1.1-2.4,2.4c0,1.3,1.1,2.4,2.4,2.4c1.3,0,2.4-1.1,2.4-2.4
		C39.4,18.1,38.4,17,37,17z M37,20.2c-0.4,0-0.8-0.4-0.8-0.8c0-0.4,0.4-0.8,0.8-0.8c0.4,0,0.8,0.4,0.8,0.8
		C37.8,19.9,37.5,20.2,37,20.2z"/>
	<path id="_Tracé_transparent_4" class="st0" d="M47.6,13.4H2.4c-1.3,0-2.4,1.1-2.4,2.4v7.1c0,1.3,1.1,2.4,2.4,2.4h45.3
		c1.3,0,2.4-1.1,2.4-2.4v-7.1C50,14.5,48.9,13.4,47.6,13.4z M48.4,22.9c0,0.4-0.3,0.8-0.8,0.8H2.4c-0.4,0-0.8-0.3-0.8-0.8v-7.1
		c0-0.4,0.3-0.8,0.8-0.8h45.3c0.4,0,0.8,0.3,0.8,0.8V22.9z"/>
	<path id="_Tracé_2" class="st0" d="M30.3,32H5.9c-0.4,0-0.8,0.4-0.8,0.8s0.4,0.8,0.8,0.8h24.5c0.4,0,0.8-0.4,0.8-0.8
		S30.8,32,30.3,32z"/>
	<path id="_Tracé_transparent_5" class="st0" d="M44.1,30.4c-1.3,0-2.4,1.1-2.4,2.4c0,1.3,1.1,2.4,2.4,2.4c1.3,0,2.4-1.1,2.4-2.4
		C46.5,31.4,45.5,30.4,44.1,30.4z M44.1,33.6c-0.4,0-0.8-0.4-0.8-0.8s0.4-0.8,0.8-0.8c0.4,0,0.8,0.4,0.8,0.8
		C44.9,33.2,44.6,33.6,44.1,33.6z"/>
	<path id="_Tracé_transparent_6" class="st0" d="M37,30.4c-1.3,0-2.4,1.1-2.4,2.4c0,1.3,1.1,2.4,2.4,2.4c1.3,0,2.4-1.1,2.4-2.4
		C39.4,31.4,38.4,30.4,37,30.4z M37,33.6c-0.4,0-0.8-0.4-0.8-0.8S36.6,32,37,32c0.4,0,0.8,0.4,0.8,0.8S37.5,33.6,37,33.6z"/>
	<path id="_Tracé_transparent_7" class="st0" d="M47.6,26.8H2.4c-1.3,0-2.4,1.1-2.4,2.4v7.1c0,1.3,1,2.3,2.3,2.3c0,0,0,0,0,0h45.3
		c1.3,0,2.4-1,2.4-2.3c0,0,0,0,0,0v-7.1C50,27.9,48.9,26.8,47.6,26.8z M48.4,36.3c0,0.4-0.3,0.7-0.8,0.7H2.4c-0.4,0-0.8-0.3-0.8-0.7
		v-7.1c0-0.4,0.3-0.8,0.8-0.8h45.3c0.4,0,0.8,0.3,0.8,0.8V36.3z"/>
	<path id="_Tracé_3" class="st0" d="M49.2,45.7c0.4,0,0.8-0.4,0.8-0.8s-0.4-0.8-0.8-0.8H31.1c-0.1-0.4-0.4-0.7-0.8-0.7h-2.1v-2.4
		c0-0.4-0.4-0.8-0.8-0.8c-0.4,0-0.8,0.4-0.8,0.8v3.2c0,0.4,0.4,0.8,0.8,0.8h2.1v3.3h-9.1v-3.3h3.8c0.4,0,0.8-0.4,0.8-0.8
		s-0.4-0.8-0.8-0.8h-0.9v-2.4c0-0.4-0.4-0.8-0.8-0.8c-0.4,0-0.8,0.4-0.8,0.8v2.4h-2.2c-0.4,0-0.7,0.3-0.8,0.7H0.8
		c-0.4,0-0.8,0.4-0.8,0.8s0.4,0.8,0.8,0.8h18v1.6h-18c-0.4,0-0.8,0.4-0.8,0.8c0,0.4,0.4,0.8,0.8,0.8h18v0.3c0,0.4,0.4,0.8,0.8,0.8
		h10.7c0.4,0,0.8-0.4,0.8-0.8v-0.3h18c0.4,0,0.8-0.4,0.8-0.8c0-0.4-0.4-0.8-0.8-0.8h-18v-1.6H49.2z"/>
	<path id="_Tracé_4" class="st0" d="M30.3,5.1H5.9c-0.4,0-0.8,0.4-0.8,0.8s0.4,0.8,0.8,0.8h24.5c0.4,0,0.8-0.4,0.8-0.8
		S30.8,5.1,30.3,5.1z"/>
	<path id="_Tracé_transparent_8" class="st0" d="M44.1,3.5c-1.3,0-2.4,1.1-2.4,2.4s1.1,2.4,2.4,2.4c1.3,0,2.4-1.1,2.4-2.4
		S45.5,3.5,44.1,3.5z M44.1,6.7c-0.4,0-0.8-0.4-0.8-0.8s0.4-0.8,0.8-0.8c0.4,0,0.8,0.4,0.8,0.8C44.9,6.4,44.6,6.7,44.1,6.7z"/>
	<path id="_Tracé_transparent_9" class="st0" d="M37,3.5c-1.3,0-2.4,1.1-2.4,2.4s1.1,2.4,2.4,2.4c1.3,0,2.4-1.1,2.4-2.4
		S38.4,3.5,37,3.5z M37,6.7c-0.4,0-0.8-0.4-0.8-0.8s0.4-0.8,0.8-0.8c0.4,0,0.8,0.4,0.8,0.8S37.5,6.7,37,6.7z"/>
</g>
</svg>
