<svg xmlns="http://www.w3.org/2000/svg" xmlns:xlink="http://www.w3.org/1999/xlink" id="Calque_1" x="0" y="0" enable-background="new 0 0 50 50" version="1.1" viewBox="0 0 50 50" xml:space="preserve"><style type="text/css">.st0{fill:#4ac7e9}</style><title>picto_ynov_informatique_security</title><g id="_Groupe_"><path id="_Tracé_transparent_" d="M17.9,19.3v3.1h-2.6V38h19.5V22.4h-2.6v-3.1c0-4-3.2-7.2-7.2-7.2 C21.1,12.2,17.9,15.4,17.9,19.3L17.9,19.3z M33.3,23.9v12.6H16.8V23.9L33.3,23.9z M25.1,13.6c3.1,0,5.7,2.5,5.7,5.7v0v3.1H19.4 v-3.1C19.4,16.2,21.9,13.6,25.1,13.6L25.1,13.6z" class="st0"/><rect id="_Tracé_" width="9.2" height="1.5" x="20.5" y="24.3" class="st0"/><path id="_Tracé_transparent_2" d="M45,6.1L25.3,0h-0.2h-0.2L5.2,6.1C4.8,6.2,4.6,6.5,4.6,6.8v15.9 c0,12.6,8.2,23.6,20.2,27.3h0.2h0.2c12-3.7,20.2-14.8,20.2-27.3V6.8C45.5,6.5,45.3,6.2,45,6.1z M44,22.8c0,11.7-7.5,22.2-18.7,25.8 l-0.2,0.1l-0.2-0.1c-11.2-3.6-18.7-14-18.7-25.8V7.4l18.9-5.9L44,7.4L44,22.8z" class="st0"/></g></svg>