<svg xmlns="http://www.w3.org/2000/svg" xmlns:xlink="http://www.w3.org/1999/xlink" id="Calque_1" x="0" y="0" enable-background="new 0 0 50 50" version="1.1" viewBox="0 0 50 50" xml:space="preserve"><style type="text/css">.st0{fill:#883ea8}</style><title>picto_ynov_jeuxvideo_cube</title><g id="_Groupe_"><path id="_Tracé_transparent_" d="M47.4,11.6c0-0.1,0-0.1,0-0.2c0,0,0-0.1,0-0.1c0,0,0-0.1,0-0.1l0,0l-0.1-0.1h-0.1 l0,0l0,0L24.5,0.1C24.2,0,24,0,23.7,0.1L3,11l0,0c0,0,0,0,0,0.1c0,0,0,0-0.1,0c0,0-0.1,0.1-0.1,0.1l0,0v0.1l0,0c0,0.1,0,0.1,0,0.2 v26.8c0,0.3,0.2,0.6,0.5,0.7l21.3,10.8l0,0c0.1,0.1,0.2,0.1,0.3,0.1c0.1,0,0.2,0,0.3-0.1l0,0l21.7-10.8c0.3-0.1,0.5-0.4,0.5-0.7 L47.4,11.6L47.4,11.6z M24.1,47.8l-20-10V13l20,10V47.8z M24.9,21.6L5.1,11.7l19-9.9l20.6,9.9L24.9,21.6z M45.8,37.8l-5.9,2.9 c0-0.4-0.4-0.7-0.8-0.7c-0.5,0-0.8,0.4-0.8,0.8c0,0.2,0.1,0.4,0.3,0.6l-8.6,4.3c0-0.5-0.4-0.8-0.9-0.8c-0.5,0-0.8,0.4-0.8,0.9 c0,0.2,0.1,0.4,0.3,0.6l-2.8,1.4V23h0.1c-0.1,0.1-0.1,0.2-0.1,0.4c0,0.5,0.4,0.8,0.8,0.8c0,0,0,0,0,0c0.5,0,0.9-0.3,0.9-0.8 c0-0.5-0.3-0.9-0.8-0.9l2-1c0.1,0.1,0.3,0.1,0.4,0.1c0.4,0,0.8-0.3,0.8-0.7l5.9-2.9c-0.1,0.1-0.1,0.2-0.1,0.4 c0,0.4,0.4,0.8,0.9,0.7c0.5,0,0.9-0.3,0.9-0.8c0-0.5-0.3-0.9-0.8-0.9l2-1c0.1,0.1,0.3,0.1,0.4,0.1c0.4,0,0.8-0.3,0.8-0.7l5.9-2.9 L45.8,37.8z" class="st0"/><path id="_Tracé_" d="M41.6,19.1c0.5,0,0.8-0.4,0.8-0.8c0,0,0,0,0,0c0-0.5-0.4-0.8-0.8-0.8c-0.5,0-0.8,0.4-0.8,0.8 C40.8,18.8,41.1,19.1,41.6,19.1C41.6,19.1,41.6,19.1,41.6,19.1z" class="st0"/><path id="_Tracé_2" d="M44.1,16.7c0.5,0,0.8-0.4,0.8-0.8c0-0.5-0.4-0.8-0.8-0.8c-0.5,0-0.8,0.4-0.8,0.8l0,0 C43.3,16.3,43.6,16.7,44.1,16.7z" class="st0"/><path id="_Tracé_3" d="M31.6,22.5c-0.5,0-0.8,0.4-0.8,0.8c0,0.5,0.4,0.8,0.8,0.8c0,0,0,0,0,0c0.5,0,0.8-0.4,0.8-0.8 C32.4,22.9,32.1,22.5,31.6,22.5z" class="st0"/><path id="_Tracé_4" d="M26.6,29.2c0.5,0,0.8-0.4,0.8-0.8c0-0.5-0.4-0.8-0.8-0.8c-0.5,0-0.8,0.4-0.8,0.8 C25.8,28.8,26.1,29.2,26.6,29.2C26.6,29.2,26.6,29.2,26.6,29.2z" class="st0"/><path id="_Tracé_5" d="M31.6,27.5c-0.5,0-0.8,0.4-0.8,0.8c0,0.5,0.4,0.8,0.8,0.8c0,0,0,0,0,0c0.5,0,0.8-0.4,0.8-0.8 C32.4,27.9,32.1,27.5,31.6,27.5z" class="st0"/><path id="_Tracé_6" d="M41.6,29.2c0.5,0,0.8-0.4,0.8-0.8c0,0,0,0,0,0c0-0.5-0.4-0.8-0.8-0.8c-0.5,0-0.8,0.4-0.8,0.8 C40.8,28.8,41.1,29.2,41.6,29.2C41.6,29.2,41.6,29.2,41.6,29.2z" class="st0"/><path id="_Tracé_7" d="M29.1,25c-0.5,0-0.8,0.4-0.8,0.8c0,0.5,0.4,0.8,0.8,0.8c0.5,0,0.8-0.4,0.8-0.8 C30,25.4,29.6,25,29.1,25C29.1,25,29.1,25,29.1,25z" class="st0"/><path id="_Tracé_8" d="M34.1,20c-0.5,0-0.8,0.4-0.8,0.8c0,0.5,0.4,0.8,0.8,0.8c0.5,0,0.8-0.4,0.8-0.8c0,0,0,0,0,0 C34.9,20.4,34.6,20,34.1,20z" class="st0"/><path id="_Tracé_9" d="M36.7,22.5c-0.5,0-0.8,0.4-0.8,0.8c0,0.5,0.4,0.8,0.8,0.8c0,0,0,0,0,0c0.5,0,0.8-0.4,0.8-0.8 C37.5,22.9,37.1,22.5,36.7,22.5z" class="st0"/><path id="_Tracé_10" d="M41.6,24.2c0.5,0,0.8-0.4,0.8-0.8c0,0,0,0,0,0c0-0.5-0.4-0.8-0.8-0.8c-0.5,0-0.8,0.4-0.8,0.8 C40.8,23.8,41.1,24.2,41.6,24.2C41.6,24.2,41.6,24.2,41.6,24.2z" class="st0"/><path id="_Tracé_11" d="M39.1,20c-0.5,0-0.8,0.4-0.8,0.8c0,0.5,0.4,0.8,0.8,0.8c0.5,0,0.8-0.4,0.8-0.8 C39.9,20.4,39.6,20,39.1,20z" class="st0"/><path id="_Tracé_12" d="M34.1,25c-0.5,0-0.8,0.4-0.8,0.8c0,0.5,0.4,0.8,0.8,0.8c0.5,0,0.8-0.4,0.8-0.8 C34.9,25.4,34.6,25,34.1,25C34.1,25,34.1,25,34.1,25z" class="st0"/><path id="_Tracé_13" d="M36.7,27.5c-0.5,0-0.8,0.4-0.8,0.8c0,0.5,0.4,0.8,0.8,0.8c0,0,0,0,0,0c0.5,0,0.8-0.4,0.8-0.8 C37.5,27.9,37.1,27.5,36.7,27.5z" class="st0"/><path id="_Tracé_14" d="M39.1,25c-0.5,0-0.8,0.4-0.8,0.8c0,0.5,0.4,0.8,0.8,0.8c0.5,0,0.8-0.4,0.8-0.8c0,0,0,0,0,0 C39.9,25.4,39.6,25,39.1,25z" class="st0"/><path id="_Tracé_15" d="M44.1,21.7c0.5,0,0.8-0.4,0.8-0.8c0-0.5-0.4-0.8-0.8-0.8c-0.5,0-0.8,0.4-0.8,0.8 C43.3,21.3,43.6,21.7,44.1,21.7z" class="st0"/><path id="_Tracé_16" d="M44.1,26.7c0.5,0,0.8-0.4,0.8-0.8c0-0.5-0.4-0.8-0.8-0.8c-0.5,0-0.8,0.4-0.8,0.8 C43.3,26.3,43.6,26.7,44.1,26.7z" class="st0"/><path id="_Tracé_17" d="M26.6,34.2c0.5,0,0.8-0.4,0.8-0.8c0-0.5-0.4-0.8-0.8-0.8c-0.5,0-0.8,0.4-0.8,0.8 C25.8,33.8,26.1,34.2,26.6,34.2C26.6,34.2,26.6,34.2,26.6,34.2z" class="st0"/><path id="_Tracé_18" d="M31.6,32.5c-0.5,0-0.8,0.4-0.8,0.8c0,0.5,0.4,0.8,0.8,0.8c0,0,0,0,0,0c0.5,0,0.8-0.4,0.8-0.8 C32.4,32.9,32.1,32.5,31.6,32.5z" class="st0"/><path id="_Tracé_19" d="M29.1,30c-0.5,0-0.8,0.4-0.8,0.8c0,0.5,0.4,0.8,0.8,0.8c0.5,0,0.8-0.4,0.8-0.8 C30,30.4,29.6,30,29.1,30C29.1,30,29.1,30,29.1,30z" class="st0"/><path id="_Tracé_20" d="M26.6,39.2c0.5,0,0.8-0.4,0.8-0.8c0-0.5-0.4-0.8-0.8-0.8c-0.5,0-0.8,0.4-0.8,0.8 C25.8,38.8,26.1,39.1,26.6,39.2C26.6,39.2,26.6,39.2,26.6,39.2z" class="st0"/><path id="_Tracé_21" d="M31.6,37.5c-0.5,0-0.8,0.4-0.8,0.8c0,0.5,0.4,0.8,0.8,0.8c0,0,0,0,0,0c0.5,0,0.8-0.4,0.8-0.8 C32.4,37.9,32.1,37.5,31.6,37.5z" class="st0"/><path id="_Tracé_22" d="M41.6,39.2c0.5,0,0.8-0.4,0.8-0.8c0,0,0,0,0,0c0-0.5-0.4-0.8-0.8-0.8c-0.5,0-0.8,0.4-0.8,0.8 C40.8,38.8,41.1,39.2,41.6,39.2C41.6,39.2,41.6,39.2,41.6,39.2z" class="st0"/><path id="_Tracé_23" d="M29.1,35c-0.5,0-0.8,0.4-0.8,0.8c0,0.5,0.4,0.8,0.8,0.8c0.5,0,0.8-0.4,0.8-0.8 C30,35.4,29.6,35,29.1,35C29.1,35,29.1,35,29.1,35z" class="st0"/><path id="_Tracé_24" d="M34.1,30c-0.5,0-0.8,0.4-0.8,0.8c0,0.5,0.4,0.8,0.8,0.8c0.5,0,0.8-0.4,0.8-0.8 C34.9,30.4,34.6,30,34.1,30C34.1,30,34.1,30,34.1,30z" class="st0"/><path id="_Tracé_25" d="M36.7,32.5c-0.5,0-0.8,0.4-0.8,0.8c0,0.5,0.4,0.8,0.8,0.8c0,0,0,0,0,0c0.5,0,0.8-0.4,0.8-0.8 C37.5,32.9,37.1,32.5,36.7,32.5z" class="st0"/><path id="_Tracé_26" d="M41.6,34.2c0.5,0,0.8-0.4,0.8-0.8c0,0,0,0,0,0c0-0.5-0.4-0.8-0.8-0.8c-0.5,0-0.8,0.4-0.8,0.8 C40.8,33.8,41.1,34.2,41.6,34.2C41.6,34.2,41.6,34.2,41.6,34.2z" class="st0"/><path id="_Tracé_27" d="M39.1,30c-0.5,0-0.8,0.4-0.8,0.8c0,0.5,0.4,0.8,0.8,0.8c0.5,0,0.8-0.4,0.8-0.8c0,0,0,0,0,0 C39.9,30.4,39.6,30,39.1,30z" class="st0"/><path id="_Tracé_28" d="M34.1,35c-0.5,0-0.8,0.4-0.8,0.8c0,0.5,0.4,0.8,0.8,0.8c0.5,0,0.8-0.4,0.8-0.8 C34.9,35.4,34.6,35,34.1,35C34.1,35,34.1,35,34.1,35z" class="st0"/><path id="_Tracé_29" d="M36.7,37.5c-0.5,0-0.8,0.4-0.8,0.8c0,0.5,0.4,0.8,0.8,0.8c0,0,0,0,0,0c0.5,0,0.8-0.4,0.8-0.8 C37.5,37.9,37.1,37.5,36.7,37.5z" class="st0"/><path id="_Tracé_30" d="M39.1,35c-0.5,0-0.8,0.4-0.8,0.8c0,0.5,0.4,0.8,0.8,0.8c0.5,0,0.8-0.4,0.8-0.8c0,0,0,0,0,0 C39.9,35.4,39.6,35,39.1,35z" class="st0"/><path id="_Tracé_31" d="M44.1,31.7c0.5,0,0.8-0.4,0.8-0.8c0-0.5-0.4-0.8-0.8-0.8c-0.5,0-0.8,0.4-0.8,0.8 C43.3,31.3,43.6,31.7,44.1,31.7z" class="st0"/><circle id="_Tracé_32" cx="44.1" cy="35.8" r=".8" class="st0"/><path id="_Tracé_33" d="M26.6,44.2c0.5,0,0.8-0.4,0.8-0.8c0-0.5-0.4-0.8-0.8-0.8c-0.5,0-0.8,0.4-0.8,0.8 C25.8,43.8,26.2,44.2,26.6,44.2z" class="st0"/><path id="_Tracé_34" d="M31.6,42.5c-0.5,0-0.8,0.4-0.8,0.8c0,0.5,0.4,0.8,0.8,0.8c0,0,0,0,0,0c0.5,0,0.8-0.4,0.8-0.8 C32.5,42.9,32.1,42.5,31.6,42.5C31.6,42.5,31.6,42.5,31.6,42.5z" class="st0"/><path id="_Tracé_35" d="M29.1,40c-0.5,0-0.8,0.4-0.8,0.8c0,0.5,0.4,0.8,0.8,0.8c0.5,0,0.8-0.4,0.8-0.8 C30,40.4,29.6,40,29.1,40C29.1,40,29.1,40,29.1,40z" class="st0"/><path id="_Tracé_36" d="M34.1,40c-0.5,0-0.8,0.4-0.8,0.8c0,0.5,0.4,0.8,0.8,0.8c0.5,0,0.8-0.4,0.8-0.8 C34.9,40.4,34.6,40,34.1,40C34.1,40,34.1,40,34.1,40z" class="st0"/></g></svg>