<?xml version="1.0" encoding="utf-8"?>
<!-- Generator: Adobe Illustrator 22.1.0, SVG Export Plug-In . SVG Version: 6.00 Build 0)  -->
<svg version="1.1" id="Calque_1" xmlns="http://www.w3.org/2000/svg" xmlns:xlink="http://www.w3.org/1999/xlink" x="0px" y="0px"
	 viewBox="0 0 50 50" style="enable-background:new 0 0 50 50;" xml:space="preserve">
<style type="text/css">
	.st0{fill:#883EA8;}
</style>
<title>picto_ynov_jeuxvideo_design</title>
<g id="_Groupe_">
	<path id="_Tracé_" class="st0" d="M35.7,24.6c0.5,0,0.8-0.4,0.8-0.8v0v-3.2c0-0.5-0.4-0.8-0.8-0.8c-0.5,0-0.8,0.4-0.8,0.8v3.2
		C34.9,24.2,35.3,24.6,35.7,24.6z"/>
	<path id="_Tracé_2" class="st0" d="M42.2,27.1c-0.5,0-0.8,0.4-0.8,0.8c0,0.5,0.4,0.8,0.8,0.8c0,0,0,0,0,0h2.3
		c0.5,0,0.8-0.4,0.8-0.8v0V5.3c0-0.5-0.4-0.8-0.8-0.8c0,0,0,0,0,0H12.9c-0.5,0-0.8,0.4-0.8,0.8c0,0,0,0,0,0v22.6
		c0,0.5,0.4,0.8,0.8,0.8h16.4c0.5,0,0.8-0.4,0.8-0.8c0-0.5-0.4-0.8-0.8-0.8H13.7V6.2h29.9v20.9H42.2z"/>
	<path id="_Tracé_transparent_" class="st0" d="M49.1,0H0.8C0.4,0,0,0.4,0,0.8l0,0v31.7c0,0.5,0.4,0.8,0.8,0.8h2.7v1.4
		c0,1.7,1.4,3.2,3.1,3.2c0,0,0,0,0,0h16c0.8,0,1.5,0.7,1.5,1.5c0,0.8-0.7,1.5-1.5,1.5H6.6c-1.7,0-3.1,1.4-3.1,3.1c0,0,0,0,0,0.1H3.3
		c-1.1,0-1.9,0.9-1.9,1.9l0,0v3.2c0,0.5,0.4,0.8,0.8,0.8c0,0,0,0,0,0h4.3c0.5,0,0.8-0.4,0.8-0.8l0,0v-3.2c0-1.1-0.9-1.9-1.9-1.9l0,0
		H5.2c0-0.8,0.6-1.4,1.4-1.4h16c1.7,0,3.2-1.4,3.2-3.2s-1.4-3.2-3.2-3.2h-16c-0.8,0-1.4-0.6-1.4-1.4v-1.4h24.1
		c0.5,0,0.8-0.4,0.8-0.8c0-0.5-0.4-0.8-0.8-0.8H1.7v-30h46.6v29.9h-6c-0.5,0-0.8,0.4-0.8,0.8c0,0.5,0.4,0.8,0.8,0.8c0,0,0,0,0,0h6.9
		c0.5,0,0.8-0.4,0.8-0.8v0V0.8C50,0.3,49.6,0,49.1,0z M5.4,45.7c0.1,0,0.2,0.1,0.2,0.3v2.4H3v-2.4c0-0.1,0.1-0.3,0.3-0.3H5.4z"/>
	<path id="_Tracé_transparent_2" class="st0" d="M38.9,15.9l-0.9-2.4c-0.1-0.3-0.4-0.5-0.8-0.5h-0.6v-1.4c0-0.5-0.4-0.8-0.8-0.8
		c-0.5,0-0.8,0.4-0.8,0.8c0,0,0,0,0,0V13h-0.6c-0.3,0-0.6,0.2-0.7,0.5l-1.1,2.7c-0.4,0.3-0.6,0.7-0.6,1.2v28.9
		c0,0.3,0.2,0.6,0.4,0.7v2.2c0,0.5,0.4,0.8,0.8,0.8l0,0h5.2c0.5,0,0.8-0.4,0.8-0.8v0v-2.2c0.3-0.1,0.4-0.4,0.4-0.7V16.7
		C39.6,16.3,39.3,15.9,38.9,15.9z M34.9,14.6h1.7l0.5,1.3h-2.7L34.9,14.6z M37.5,48.3H34V47h3.5V48.3z M37.9,45.4h-4.3V17.5h4.3
		L37.9,45.4z"/>
	<path id="_Tracé_transparent_3" class="st0" d="M4.4,23.5c-0.5,0-0.8,0.4-0.8,0.8v3.5c0,0.5,0.4,0.8,0.8,0.8h4.7
		c0.5,0,0.8-0.4,0.8-0.8v-3.5c0-0.5-0.4-0.8-0.8-0.8c0,0,0,0,0,0H4.4z M8.2,27.1h-3v-1.9h3V27.1z"/>
	<path id="_Tracé_transparent_4" class="st0" d="M9.9,5.3c0-0.5-0.4-0.8-0.8-0.8c0,0,0,0,0,0H4.4C4,4.5,3.6,4.9,3.6,5.3
		c0,0,0,0,0,0v3.5c0,0.5,0.4,0.8,0.8,0.8c0,0,0,0,0,0h4.7c0.5,0,0.8-0.4,0.8-0.8c0,0,0,0,0,0L9.9,5.3z M8.2,8h-3V6.2h3L8.2,8z"/>
	<path id="_Tracé_transparent_5" class="st0" d="M9.9,14.9c0-1.6-1.4-2.9-3-2.9H6.5c-1.6,0-2.9,1.3-2.9,2.9v3.4
		c0,1.6,1.3,2.9,2.9,2.9H7c1.6,0,3-1.3,3-2.9c0,0,0,0,0,0L9.9,14.9z M8.2,18.3c0,0.7-0.6,1.3-1.3,1.3H6.5c-0.7,0-1.3-0.6-1.3-1.3
		v-3.4c0-0.7,0.6-1.3,1.3-1.3H7c0.7,0,1.3,0.6,1.3,1.3V18.3z"/>
</g>
</svg>
