<svg xmlns="http://www.w3.org/2000/svg" xmlns:xlink="http://www.w3.org/1999/xlink" id="Calque_1" x="0" y="0" enable-background="new 0 0 50 50" version="1.1" viewBox="0 0 50 50" xml:space="preserve"><style type="text/css">.st0{fill:#883ea8}</style><title>picto_ynov_jeuxvideo_pad</title><g id="_Groupe_"><path id="_Tracé_transparent_" d="M18.5,29.1h-3.4v-3.5c0-0.4-0.3-0.8-0.8-0.8h-3.9c-0.4,0-0.8,0.4-0.8,0.8v3.5H6.3 c-0.4,0-0.8,0.3-0.8,0.8c0,0,0,0,0,0v3.8c0,0.4,0.4,0.8,0.8,0.8h3.4v3.4c0,0.4,0.4,0.8,0.8,0.8h3.8c0.4,0,0.8-0.4,0.8-0.8 c0,0,0,0,0,0v-3.4h3.4c0.4,0,0.8-0.4,0.8-0.8v-3.8C19.3,29.4,19,29.1,18.5,29.1z M17.7,32.9h-3.4c-0.4,0-0.8,0.3-0.8,0.8 c0,0,0,0,0,0v3.4h-2.2v-3.4c0-0.4-0.3-0.8-0.8-0.8c0,0,0,0,0,0H7.1v-2.2h3.4c0.4,0,0.8-0.3,0.8-0.8c0,0,0,0,0,0v-3.4h2.2v3.4 c0,0.4,0.3,0.8,0.8,0.8c0,0,0,0,0,0h3.4V32.9z" class="st0"/><path id="_Tracé_" d="M27.2,29.1h-4.3c-0.4,0.1-0.7,0.5-0.7,0.9c0,0.4,0.3,0.6,0.7,0.7h4.3c0.4-0.1,0.7-0.5,0.7-0.9 C27.8,29.4,27.5,29.1,27.2,29.1z" class="st0"/><path id="_Tracé_transparent_2" d="M37.6,19.2h-9.1v-2.4c0-0.4-0.4-0.8-0.8-0.8h-2V11c0-1.5,1.3-2.8,2.8-2.8h20.6 c0.4,0,0.8-0.4,0.8-0.8c0-0.4-0.3-0.8-0.8-0.8c0,0,0,0,0,0H28.6c-2.4,0-4.4,2-4.4,4.4v5.1h-2c-0.4,0-0.8,0.4-0.8,0.8v2.4h-9 C5.5,19.3-0.1,24.9,0,31.8s5.6,12.4,12.5,12.4c4.5,0,8.6-2.5,10.8-6.4h3.3c3.3,6,10.9,8.2,16.9,4.8c6-3.3,8.2-10.9,4.8-16.9 C46.2,21.7,42.1,19.3,37.6,19.2z M37.6,42.6c-4.1,0.1-8-2.3-9.8-5.9c-0.1-0.3-0.4-0.4-0.7-0.4h-4.3c-0.3,0-0.6,0.2-0.7,0.4 c-2.7,5.4-9.2,7.5-14.6,4.8S0,32.2,2.7,26.8c1.8-3.6,5.6-6,9.6-6h9.8c0.4,0,0.8-0.4,0.8-0.8v-2.4h3.9v1.6h-1.5 c-0.4,0-0.8,0.4-0.8,0.8c0,0.4,0.4,0.8,0.8,0.8h12.2c6,0,10.9,4.9,10.9,10.9C48.5,37.7,43.6,42.6,37.6,42.6 C37.6,42.6,37.6,42.6,37.6,42.6z" class="st0"/><path id="_Tracé_transparent_3" d="M37.6,29.6c1.3,0,2.4-1.1,2.4-2.4c0-1.3-1.1-2.4-2.4-2.4c-1.3,0-2.4,1.1-2.4,2.4v0 C35.2,28.5,36.3,29.6,37.6,29.6z M37.6,26.4c0.4,0,0.8,0.4,0.8,0.8c0,0.4-0.4,0.8-0.8,0.8c-0.4,0-0.8-0.4-0.8-0.8 C36.8,26.8,37.2,26.4,37.6,26.4z" class="st0"/><path id="_Tracé_transparent_4" d="M33,29.3c-1.3,0-2.4,1.1-2.4,2.4c0,1.3,1.1,2.4,2.4,2.4c1.3,0,2.4-1.1,2.4-2.4 C35.4,30.4,34.4,29.3,33,29.3z M33,32.5c-0.4,0-0.8-0.4-0.8-0.8c0-0.4,0.4-0.8,0.8-0.8c0.4,0,0.8,0.4,0.8,0.8l0,0 C33.8,32.2,33.5,32.5,33,32.5z" class="st0"/><path id="_Tracé_transparent_5" d="M37.6,33.8c-1.3,0-2.4,1.1-2.4,2.4c0,1.3,1.1,2.4,2.4,2.4c1.3,0,2.4-1.1,2.4-2.4 c0,0,0,0,0,0C40,34.9,38.9,33.9,37.6,33.8z M37.6,37c-0.4,0-0.8-0.4-0.8-0.8c0-0.4,0.4-0.8,0.8-0.8c0.4,0,0.8,0.4,0.8,0.8 C38.4,36.7,38.1,37,37.6,37C37.6,37,37.6,37,37.6,37z" class="st0"/><path id="_Tracé_transparent_6" d="M42.1,29.3c-1.3,0-2.4,1.1-2.4,2.4c0,1.3,1.1,2.4,2.4,2.4c1.3,0,2.4-1.1,2.4-2.4 l0,0C44.5,30.4,43.4,29.3,42.1,29.3z M42.1,32.5c-0.4,0-0.8-0.4-0.8-0.8c0-0.4,0.4-0.8,0.8-0.8c0.4,0,0.8,0.4,0.8,0.8 C42.9,32.2,42.5,32.5,42.1,32.5z" class="st0"/></g></svg>