<?xml version="1.0" encoding="utf-8"?>
<!-- Generator: Adobe Illustrator 22.0.1, SVG Export Plug-In . SVG Version: 6.00 Build 0)  -->
<svg version="1.1" baseProfile="tiny" id="Calque_1"
	 xmlns="http://www.w3.org/2000/svg" xmlns:xlink="http://www.w3.org/1999/xlink" x="0px" y="0px" viewBox="0 0 147.8 73.7"
	 xml:space="preserve">
<g>
	<path fill="#FFFFFF" d="M82.5,37.3c7.9,0,14.3-6.3,14.3-14.1S90.3,9,82.5,9c-7.9,0-14.3,6.3-14.3,14.1S74.6,37.3,82.5,37.3z
		 M82.5,15.7c4.1,0,7.5,3.3,7.5,7.4c0,4.1-3.3,7.4-7.5,7.4S75,27.2,75,23.1C75,19,78.3,15.7,82.5,15.7z"/>
	<path fill="#FFFFFF" d="M36.8,37.3h6.8l0-13.8c0-4.2,3.3-7.6,7.5-7.6c4.1,0,7.5,3.4,7.5,7.6v13.8h6.8l0-13.8
		c0-8-6.4-14.5-14.3-14.5c-7.9,0-14.3,6.5-14.3,14.5V37.3z"/>
	<path fill="#FFFFFF" d="M21.4,23.6c0-0.9-0.2-1.9-0.5-2.7L16.3,9H9l8.1,21.2C19.7,29.2,21.4,26.6,21.4,23.6z"/>
	<polygon fill="#FFFFFF" points="113.7,37.3 124.6,9 117.2,9 106.4,37.3 	"/>
	<path fill="#FFFFFF" d="M108,23.6c0-0.9-0.2-1.9-0.5-2.7l-4.6-12h-7.3l8.1,21.2C106.2,29.2,108,26.6,108,23.6z"/>
	<polygon fill="#FFFFFF" points="30.7,9 12.8,55.6 20.1,55.6 38,9 	"/>
	<g>
		<path fill="#FFFFFF" d="M43.8,50h-4.4l-0.8,1.9h-1.8l3.9-9h1.8l3.9,9h-1.8L43.8,50z M43.1,48.6l-1.6-3.8L40,48.6H43.1z"/>
		<path fill="#FFFFFF" d="M49.6,43l4.6,6.2V43h1.7v9h-1.6l-4.6-6.1v6.1H48v-9H49.6z"/>
		<path fill="#FFFFFF" d="M60.3,43v9h-1.7v-9H60.3z"/>
		<path fill="#FFFFFF" d="M65,43l2.8,5.8l2.8-5.8h2v9h-1.6l0-6.4L68.4,51h-1.1l-2.7-5.5v6.4h-1.6v-9H65z"/>
		<path fill="#FFFFFF" d="M81.2,50h-4.4L76,51.9h-1.8l3.9-9H80l3.9,9H82L81.2,50z M80.6,48.6L79,44.8l-1.6,3.8H80.6z"/>
		<path fill="#FFFFFF" d="M90.9,43v1.5h-2.8v7.5h-1.7v-7.5h-2.8V43H90.9z"/>
		<path fill="#FFFFFF" d="M94.3,43v9h-1.7v-9H94.3z"/>
		<path fill="#FFFFFF" d="M105.9,47.4c0,2.6-2.1,4.6-4.8,4.6s-4.8-2-4.8-4.6c0-2.6,2.1-4.5,4.8-4.5S105.9,44.9,105.9,47.4z
			 M98.1,47.4c0,1.7,1.4,3,3.1,3c1.6,0,3-1.3,3-3s-1.4-3-3-3C99.5,44.4,98.1,45.7,98.1,47.4z"/>
		<path fill="#FFFFFF" d="M109.5,43l4.6,6.2V43h1.7v9h-1.6l-4.6-6.1v6.1h-1.7v-9H109.5z"/>
		<path fill="#FFFFFF" d="M128.2,49.1c0,1.7-1.3,2.9-3.3,2.9c-1.2,0-2.3-0.4-3.1-1l0.7-1.4c0.7,0.6,1.5,1,2.3,1
			c1.1,0,1.8-0.6,1.8-1.4c0-0.9-0.6-1.3-1.8-1.3h-1.3v-1l2.2-2.4h-3.5V43h5.6V44l-2.5,2.6l0.5,0.1C127.2,46.9,128.2,47.7,128.2,49.1
			z"/>
		<path fill="#FFFFFF" d="M138.8,47.4c0,2.6-2,4.5-4.8,4.5h-3.7v-9h3.7C136.8,43,138.8,44.8,138.8,47.4z M137,47.5c0-1.8-1.3-3-3-3
			h-2v6h2.1C135.8,50.4,137,49.2,137,47.5z"/>
		<path fill="#FFFFFF" d="M39.5,64.8c-1.1,0-2.1-0.5-2.8-1.3l0.8-1.3c0.6,0.7,1.3,1,1.9,1c0.7,0,1.2-0.5,1.2-1.3v-4.6h-3.1v-1.5h4.8
			v6.2C42.4,63.8,41.3,64.8,39.5,64.8z"/>
		<path fill="#FFFFFF" d="M51.5,55.8v1.5h-4.9v2.2H51V61h-4.4v2.3h5v1.5h-6.7v-9H51.5z"/>
		<path fill="#FFFFFF" d="M57.7,63.3c1.4,0,2.2-0.8,2.2-2.3v-5.2h1.7V61c0,2.4-1.5,3.8-3.9,3.8c-2.5,0-4-1.5-4-3.8v-5.2h1.7V61
			C55.5,62.4,56.4,63.3,57.7,63.3z"/>
		<path fill="#FFFFFF" d="M65.5,55.8l2.1,3l2.1-3h2l-3,4.3l3.3,4.7h-2.1l-2.3-3.2l-2.3,3.2h-2l3.2-4.6l-3-4.4H65.5z"/>
		<path fill="#FFFFFF" d="M78.8,55.8l2.6,7.1l2.7-7.1h1.8l-3.6,9h-1.8l-3.6-9H78.8z"/>
		<path fill="#FFFFFF" d="M89.3,55.8v9h-1.7v-9H89.3z"/>
		<path fill="#FFFFFF" d="M100.4,60.3c0,2.6-2,4.5-4.8,4.5H92v-9h3.7C98.5,55.8,100.4,57.6,100.4,60.3z M98.7,60.3c0-1.8-1.3-3-3-3
			h-2v6h2.1C97.4,63.3,98.7,62,98.7,60.3z"/>
		<path fill="#FFFFFF" d="M109,55.8v1.5h-4.9v2.2h4.4V61h-4.4v2.3h5v1.5h-6.7v-9H109z M107.9,53.5l-1.6,1.3h-1.4l1.4-2L107.9,53.5z"
			/>
		<path fill="#FFFFFF" d="M120.3,60.3c0,2.6-2.1,4.6-4.8,4.6c-2.7,0-4.8-2-4.8-4.6c0-2.6,2.1-4.5,4.8-4.5
			C118.2,55.7,120.3,57.7,120.3,60.3z M112.4,60.3c0,1.7,1.4,3,3.1,3c1.6,0,3-1.3,3-3s-1.4-3-3-3C113.8,57.3,112.4,58.6,112.4,60.3z
			"/>
	</g>
</g>
</svg>
