<svg id="Calque_1" data-name="Calque 1" xmlns="http://www.w3.org/2000/svg" viewBox="0 0 50 50"><defs><style>.cls-1{fill:#883ea8;}</style></defs><title>picto_ynov_jeuxvideo_design</title><g id="_Groupe_" data-name="&lt;Groupe&gt;"><path id="_Tracé_" data-name="&lt;Tracé&gt;" class="cls-1" d="M32.47,24.71a.58.58,0,0,0,.58-.58V21.94a.58.58,0,0,0-1.16,0v2.19A.58.58,0,0,0,32.47,24.71Z"/><path id="_Tracé_2" data-name="&lt;Tracé&gt;" class="cls-1" d="M37,26.47a.58.58,0,1,0,0,1.16h1.59a.58.58,0,0,0,.58-.58V11.35a.58.58,0,0,0-.58-.59h-22a.58.58,0,0,0-.58.59v15.7a.58.58,0,0,0,.58.58H28a.58.58,0,0,0,0-1.16H17.19V11.93H38V26.47Z"/><path id="_Tracé_transparent_" data-name="&lt;Tracé transparent&gt;" class="cls-1" d="M41.78,7.64H8.22a.58.58,0,0,0-.58.58v22a.58.58,0,0,0,.58.58h1.86v1A2.19,2.19,0,0,0,12.27,34H23.39a1,1,0,0,1,0,2.06H12.2a2.13,2.13,0,0,0-2.12,2.19H9.91a1.34,1.34,0,0,0-1.34,1.34v2.22a.58.58,0,0,0,.58.58h3a.58.58,0,0,0,.58-.58V39.56a1.34,1.34,0,0,0-1.34-1.34h-.13a1,1,0,0,1,1-1H23.39a2.19,2.19,0,0,0,0-4.38H12.27a1,1,0,0,1-1-1v-1H28a.58.58,0,0,0,0-1.16H8.8V8.8H41.2V29.59H37a.58.58,0,1,0,0,1.16h4.81a.58.58,0,0,0,.58-.58v-22A.58.58,0,0,0,41.78,7.64ZM11.37,39.38a.18.18,0,0,1,.17.18V41.2H9.73V39.56a.19.19,0,0,1,.18-.18Z"/><path id="_Tracé_transparent_2" data-name="&lt;Tracé transparent&gt;" class="cls-1" d="M34.66,18.68,34,17a.58.58,0,0,0-.54-.36h-.39v-1a.58.58,0,1,0-1.16,0v1h-.4A.58.58,0,0,0,31,17l-.74,1.86a1,1,0,0,0-.42.81V39.74a.58.58,0,0,0,.3.51v1.53a.58.58,0,0,0,.58.58h3.59a.58.58,0,0,0,.58-.58V40.25a.59.59,0,0,0,.31-.51V19.25A.58.58,0,0,0,34.66,18.68Zm-2.78-.89h1.17l.35.88H31.53Zm1.8,23.41H31.25v-.88h2.43Zm.3-2H31V19.83h3Z"/><path id="_Tracé_transparent_3" data-name="&lt;Tracé transparent&gt;" class="cls-1" d="M10.72,24a.58.58,0,0,0-.58.58v2.46a.58.58,0,0,0,.58.58H14a.58.58,0,0,0,.58-.58V24.59A.58.58,0,0,0,14,24Zm2.64,2.46H11.3v-1.3h2.06Z"/><path id="_Tracé_transparent_4" data-name="&lt;Tracé transparent&gt;" class="cls-1" d="M14.53,11.35a.58.58,0,0,0-.58-.59H10.72a.58.58,0,0,0-.58.59V13.8a.58.58,0,0,0,.58.59H14a.58.58,0,0,0,.58-.59Zm-1.17,1.87H11.3V11.93h2.06Z"/><path id="_Tracé_transparent_5" data-name="&lt;Tracé transparent&gt;" class="cls-1" d="M14.53,18A2.05,2.05,0,0,0,12.47,16h-.28a2.05,2.05,0,0,0-2,2.05v2.37a2.05,2.05,0,0,0,2,2.05h.28a2.05,2.05,0,0,0,2.06-2.05Zm-1.17,2.37a.89.89,0,0,1-.89.89h-.28a.89.89,0,0,1-.89-.89V18a.89.89,0,0,1,.89-.89h.28a.89.89,0,0,1,.89.89Z"/></g></svg>