<svg id="Calque_1" data-name="Calque 1" xmlns="http://www.w3.org/2000/svg" viewBox="0 0 50 50"><defs><style>.cls-1{fill:#883ea8;}</style></defs><title>picto_ynov_jeuxvideo_pad</title><g id="_Groupe_" data-name="&lt;Groupe&gt;"><path id="_Tracé_transparent_" data-name="&lt;Tracé transparent&gt;" class="cls-1" d="M20.4,28H18V25.54a.57.57,0,0,0-.56-.57H14.67a.58.58,0,0,0-.57.57V28H11.68a.56.56,0,0,0-.57.56v2.74a.57.57,0,0,0,.57.57H14.1v2.42a.57.57,0,0,0,.57.57h2.74a.56.56,0,0,0,.56-.57V31.84H20.4a.58.58,0,0,0,.57-.57V28.53A.57.57,0,0,0,20.4,28Zm-.57,2.73H17.41a.56.56,0,0,0-.57.57v2.42h-1.6V31.27a.56.56,0,0,0-.57-.57H12.25V29.1h2.42a.56.56,0,0,0,.57-.57V26.11h1.6v2.42a.56.56,0,0,0,.57.57h2.42Z"/><path id="_Tracé_" data-name="&lt;Tracé&gt;" class="cls-1" d="M26.54,28H23.46a.57.57,0,0,0,0,1.13h3.08a.57.57,0,0,0,0-1.13Z"/><path id="_Tracé_transparent_2" data-name="&lt;Tracé transparent&gt;" class="cls-1" d="M34,21H27.54V19.3a.57.57,0,0,0-.57-.57h-1.4V15.09a2,2,0,0,1,2-2H42.27a.57.57,0,0,0,.57-.57.56.56,0,0,0-.57-.57H27.59a3.16,3.16,0,0,0-3.16,3.15v3.64H23a.57.57,0,0,0-.57.57V21H16A8.88,8.88,0,1,0,23.81,34.2h2.38A8.88,8.88,0,1,0,34,21Zm0,16.62A7.72,7.72,0,0,1,27,33.38a.56.56,0,0,0-.5-.32H23.46a.56.56,0,0,0-.5.32A7.74,7.74,0,1,1,16,22.16h7a.58.58,0,0,0,.57-.57V19.87h2.8V21H25.31a.57.57,0,0,0,0,1.14H34a7.74,7.74,0,1,1,0,15.48Z"/><path id="_Tracé_transparent_3" data-name="&lt;Tracé transparent&gt;" class="cls-1" d="M34,28.39a1.71,1.71,0,1,0-1.71-1.71A1.72,1.72,0,0,0,34,28.39Zm0-2.28a.57.57,0,0,1,0,1.14.57.57,0,0,1,0-1.14Z"/><path id="_Tracé_transparent_4" data-name="&lt;Tracé transparent&gt;" class="cls-1" d="M30.74,28.19a1.71,1.71,0,1,0,1.71,1.71A1.72,1.72,0,0,0,30.74,28.19Zm0,2.28a.57.57,0,1,1,.57-.57A.58.58,0,0,1,30.74,30.47Z"/><path id="_Tracé_transparent_5" data-name="&lt;Tracé transparent&gt;" class="cls-1" d="M34,31.41a1.71,1.71,0,1,0,1.71,1.71A1.72,1.72,0,0,0,34,31.41Zm0,2.28a.57.57,0,0,1-.57-.57.58.58,0,0,1,.57-.57.57.57,0,0,1,.57.57A.56.56,0,0,1,34,33.69Z"/><path id="_Tracé_transparent_6" data-name="&lt;Tracé transparent&gt;" class="cls-1" d="M37.18,28.19a1.71,1.71,0,1,0,1.71,1.71A1.72,1.72,0,0,0,37.18,28.19Zm0,2.28a.57.57,0,0,1,0-1.14.57.57,0,0,1,0,1.14Z"/></g></svg>