<svg id="Calque_1" data-name="Calque 1" xmlns="http://www.w3.org/2000/svg" viewBox="0 0 50 50"><defs><style>.cls-1{fill:#883ea8;}</style></defs><title>picto_ynov_jeuxvideo_cube</title><g id="_Groupe_" data-name="&lt;Groupe&gt;"><path id="_Tracé_transparent_" data-name="&lt;Tracé transparent&gt;" class="cls-1" d="M40.34,15.88a.43.43,0,0,0,0-.12.14.14,0,0,0,0-.06.2.2,0,0,0,0-.08l0,0-.06-.07-.05,0,0,0h0L24.68,8a.54.54,0,0,0-.51,0L10,15.41h0s0,0,0,.05a.1.1,0,0,0-.05,0,.2.2,0,0,0-.06.07l0,0,0,.1v0a.77.77,0,0,0,0,.15V34.09a.57.57,0,0,0,.31.51L24.75,42h0a.49.49,0,0,0,.23.06.46.46,0,0,0,.23-.06h0L40,34.6a.57.57,0,0,0,.31-.51V15.88ZM24.43,40.56,10.79,33.74V16.83l13.64,6.82ZM25,22.66,11.48,15.9l13-6.75,14.05,6.77ZM39.21,33.74l-4,2a.56.56,0,0,0-.56-.51.57.57,0,0,0-.57.57.56.56,0,0,0,.18.41L28.4,39.15a.57.57,0,1,0-.95.47l-1.88.94V23.65l.06,0a.61.61,0,0,0-.06.24.56.56,0,0,0,.57.57.56.56,0,0,0,.09-1.12l1.34-.66a.6.6,0,0,0,.27.07.56.56,0,0,0,.56-.49l4.05-2a.48.48,0,0,0-.06.24A.56.56,0,0,0,33,21a.56.56,0,0,0,.09-1.12l1.34-.66a.61.61,0,0,0,.27.08.55.55,0,0,0,.55-.5l4-2Z"/><path id="_Tracé_" data-name="&lt;Tracé&gt;" class="cls-1" d="M36.37,21a.56.56,0,0,0,.56-.57.57.57,0,1,0-.56.57Z"/><path id="_Tracé_2" data-name="&lt;Tracé&gt;" class="cls-1" d="M38.07,19.32a.57.57,0,1,0-.57-.57A.58.58,0,0,0,38.07,19.32Z"/><path id="_Tracé_3" data-name="&lt;Tracé&gt;" class="cls-1" d="M29.55,23.29a.57.57,0,0,0-.57.57.56.56,0,0,0,.57.57.57.57,0,0,0,.57-.57A.58.58,0,0,0,29.55,23.29Z"/><path id="_Tracé_4" data-name="&lt;Tracé&gt;" class="cls-1" d="M26.14,27.84a.57.57,0,0,0,.57-.57.58.58,0,0,0-.57-.57.57.57,0,0,0-.57.57A.56.56,0,0,0,26.14,27.84Z"/><path id="_Tracé_5" data-name="&lt;Tracé&gt;" class="cls-1" d="M29.55,26.7a.57.57,0,0,0-.57.57.56.56,0,0,0,.57.57.57.57,0,0,0,.57-.57A.58.58,0,0,0,29.55,26.7Z"/><path id="_Tracé_6" data-name="&lt;Tracé&gt;" class="cls-1" d="M36.37,27.84a.56.56,0,0,0,.56-.57.57.57,0,1,0-.56.57Z"/><path id="_Tracé_7" data-name="&lt;Tracé&gt;" class="cls-1" d="M27.84,25a.57.57,0,0,0-.57.57.58.58,0,0,0,.57.57.57.57,0,0,0,.57-.57A.56.56,0,0,0,27.84,25Z"/><path id="_Tracé_8" data-name="&lt;Tracé&gt;" class="cls-1" d="M31.25,21.59a.58.58,0,0,0-.57.57.57.57,0,0,0,.57.56.56.56,0,0,0,.57-.56A.57.57,0,0,0,31.25,21.59Z"/><path id="_Tracé_9" data-name="&lt;Tracé&gt;" class="cls-1" d="M33,23.29a.57.57,0,0,0-.57.57.56.56,0,0,0,.57.57.57.57,0,0,0,.57-.57A.58.58,0,0,0,33,23.29Z"/><path id="_Tracé_10" data-name="&lt;Tracé&gt;" class="cls-1" d="M36.37,24.43a.56.56,0,0,0,.56-.57.57.57,0,1,0-.56.57Z"/><path id="_Tracé_11" data-name="&lt;Tracé&gt;" class="cls-1" d="M34.66,21.59a.58.58,0,0,0-.57.57.57.57,0,0,0,1.14,0A.58.58,0,0,0,34.66,21.59Z"/><path id="_Tracé_12" data-name="&lt;Tracé&gt;" class="cls-1" d="M31.25,25a.57.57,0,0,0-.57.57.58.58,0,0,0,.57.57.57.57,0,0,0,.57-.57A.56.56,0,0,0,31.25,25Z"/><path id="_Tracé_13" data-name="&lt;Tracé&gt;" class="cls-1" d="M33,26.7a.57.57,0,0,0-.57.57.56.56,0,0,0,.57.57.57.57,0,0,0,.57-.57A.58.58,0,0,0,33,26.7Z"/><path id="_Tracé_14" data-name="&lt;Tracé&gt;" class="cls-1" d="M34.66,25a.57.57,0,0,0-.57.57.57.57,0,1,0,1.14,0A.57.57,0,0,0,34.66,25Z"/><path id="_Tracé_15" data-name="&lt;Tracé&gt;" class="cls-1" d="M38.07,22.72a.57.57,0,0,0,.57-.56.57.57,0,0,0-1.14,0A.57.57,0,0,0,38.07,22.72Z"/><path id="_Tracé_16" data-name="&lt;Tracé&gt;" class="cls-1" d="M38.07,26.14a.58.58,0,0,0,.57-.57.57.57,0,0,0-1.14,0A.58.58,0,0,0,38.07,26.14Z"/><path id="_Tracé_17" data-name="&lt;Tracé&gt;" class="cls-1" d="M26.14,31.25a.57.57,0,0,0,.57-.57.58.58,0,0,0-.57-.57.57.57,0,0,0-.57.57A.56.56,0,0,0,26.14,31.25Z"/><path id="_Tracé_18" data-name="&lt;Tracé&gt;" class="cls-1" d="M29.55,30.11a.57.57,0,0,0-.57.57.56.56,0,0,0,.57.57.57.57,0,0,0,.57-.57A.58.58,0,0,0,29.55,30.11Z"/><path id="_Tracé_19" data-name="&lt;Tracé&gt;" class="cls-1" d="M27.84,28.41a.57.57,0,0,0-.57.57.58.58,0,0,0,.57.57.57.57,0,0,0,.57-.57A.56.56,0,0,0,27.84,28.41Z"/><path id="_Tracé_20" data-name="&lt;Tracé&gt;" class="cls-1" d="M26.14,34.66a.57.57,0,0,0,.57-.57.58.58,0,0,0-.57-.57.57.57,0,0,0-.57.57A.56.56,0,0,0,26.14,34.66Z"/><path id="_Tracé_21" data-name="&lt;Tracé&gt;" class="cls-1" d="M29.55,33.52a.57.57,0,0,0-.57.57.56.56,0,0,0,.57.57.57.57,0,0,0,.57-.57A.58.58,0,0,0,29.55,33.52Z"/><path id="_Tracé_22" data-name="&lt;Tracé&gt;" class="cls-1" d="M36.37,34.66a.56.56,0,0,0,.56-.57.57.57,0,1,0-.56.57Z"/><path id="_Tracé_23" data-name="&lt;Tracé&gt;" class="cls-1" d="M27.84,31.82a.57.57,0,0,0-.57.57.58.58,0,0,0,.57.57.57.57,0,0,0,.57-.57A.56.56,0,0,0,27.84,31.82Z"/><path id="_Tracé_24" data-name="&lt;Tracé&gt;" class="cls-1" d="M31.25,28.41a.57.57,0,0,0-.57.57.58.58,0,0,0,.57.57.57.57,0,0,0,.57-.57A.56.56,0,0,0,31.25,28.41Z"/><path id="_Tracé_25" data-name="&lt;Tracé&gt;" class="cls-1" d="M33,30.11a.57.57,0,0,0-.57.57.56.56,0,0,0,.57.57.57.57,0,0,0,.57-.57A.58.58,0,0,0,33,30.11Z"/><path id="_Tracé_26" data-name="&lt;Tracé&gt;" class="cls-1" d="M36.37,31.25a.56.56,0,0,0,.56-.57.57.57,0,1,0-.56.57Z"/><path id="_Tracé_27" data-name="&lt;Tracé&gt;" class="cls-1" d="M34.66,28.41a.57.57,0,0,0-.57.57.57.57,0,1,0,1.14,0A.57.57,0,0,0,34.66,28.41Z"/><path id="_Tracé_28" data-name="&lt;Tracé&gt;" class="cls-1" d="M31.25,31.82a.57.57,0,0,0-.57.57.58.58,0,0,0,.57.57.57.57,0,0,0,.57-.57A.56.56,0,0,0,31.25,31.82Z"/><path id="_Tracé_29" data-name="&lt;Tracé&gt;" class="cls-1" d="M33,33.52a.57.57,0,0,0-.57.57.56.56,0,0,0,.57.57.57.57,0,0,0,.57-.57A.58.58,0,0,0,33,33.52Z"/><path id="_Tracé_30" data-name="&lt;Tracé&gt;" class="cls-1" d="M34.66,31.82a.57.57,0,0,0-.57.57.57.57,0,1,0,1.14,0A.57.57,0,0,0,34.66,31.82Z"/><path id="_Tracé_31" data-name="&lt;Tracé&gt;" class="cls-1" d="M38.07,29.55a.58.58,0,0,0,.57-.57.57.57,0,0,0-1.14,0A.58.58,0,0,0,38.07,29.55Z"/><circle id="_Tracé_32" data-name="&lt;Tracé&gt;" class="cls-1" cx="38.07" cy="32.39" r="0.57"/><path id="_Tracé_33" data-name="&lt;Tracé&gt;" class="cls-1" d="M26.14,38.07a.57.57,0,0,0,0-1.14.57.57,0,0,0,0,1.14Z"/><path id="_Tracé_34" data-name="&lt;Tracé&gt;" class="cls-1" d="M29.55,36.93a.57.57,0,1,0,0,1.14.57.57,0,1,0,0-1.14Z"/><path id="_Tracé_35" data-name="&lt;Tracé&gt;" class="cls-1" d="M27.84,35.23a.57.57,0,0,0-.57.57.58.58,0,0,0,.57.57.57.57,0,0,0,.57-.57A.56.56,0,0,0,27.84,35.23Z"/><path id="_Tracé_36" data-name="&lt;Tracé&gt;" class="cls-1" d="M31.25,35.23a.57.57,0,0,0-.57.57.58.58,0,0,0,.57.57.57.57,0,0,0,.57-.57A.56.56,0,0,0,31.25,35.23Z"/></g></svg>