<svg xmlns="http://www.w3.org/2000/svg" xmlns:xlink="http://www.w3.org/1999/xlink" id="Calque_1" x="0" y="0" enable-background="new 0 0 50 50" version="1.1" viewBox="0 0 50 50" xml:space="preserve"><style type="text/css">.st0{fill:#d1223e}</style><title>picto_ynov_digital_communication</title><g id="_Groupe_"><path id="_Tracé_transparent_" d="M50,41.3L44.8,4c-0.1-0.4-0.5-0.7-0.9-0.7c-0.1,0-0.2,0-0.3,0.1L41,5.1l0,0 L16.2,19.8L5.6,21.3c-0.4,0.1-0.7,0.5-0.7,0.9L5.2,24l-2,0.3c-0.4,0.1-0.7,0.4-0.7,0.9l0.2,1.3l-2,0.3C0.3,26.8,0,27.2,0,27.6 l0.5,3.3c0.1,0.4,0.4,0.7,0.9,0.7c0,0,0,0,0,0l2-0.3l0.2,1.3c0.1,0.4,0.5,0.7,0.9,0.7c0,0,0,0,0,0l2-0.3l0.2,1.8 c0.1,0.4,0.5,0.7,0.9,0.7l1.1-0.2l1.3,9.6c0.1,0.4,0.4,0.7,0.9,0.7l4.5-0.6c0.3,0,0.6-0.3,0.7-0.7l1.2-10.1l1-0.1l16.1,4.2l0,0 l11.7,3.1l0,0l3,0.8c0.4,0.2,0.9,0,1-0.4C50,41.6,50,41.5,50,41.3z M2,29.9l-0.3-1.8L3,28l0.2,1.8L2,29.9z M5,31.6L5,31.6l-0.2-1.3 L4.3,27l-0.2-1.3l1.2-0.2l0.8,5.9L5,31.6z M15.8,21.5l0.1,1l-4.6,0.7l-0.1-1L15.8,21.5z M15.5,36l-1.3,0.2c-0.4,0-0.8,0.4-0.8,0.8 c0,0.4,0.4,0.8,0.8,0.8c0.1,0,0.1,0,0.2,0l0.9-0.1l-0.1,1.1L13.7,39C13.3,39,13,39.4,13,39.8c0.1,0.4,0.5,0.7,0.9,0.7l1.1-0.2 l-0.4,3.1l-3.2,0.5l-1.3-8.8l5.4-0.8L15.5,36z M16.4,32.6l-7.2,1l-1.1,0.2L7.9,32l-1-7.4l-0.2-1.8l3.1-0.4l0.3,1.8 c0.1,0.4,0.4,0.7,0.9,0.7l5.3-0.8l1.2,8.5L16.4,32.6z M39.6,38.1L39.6,38.1l-20.7-5.5c0-0.4-1.6-11.4-1.6-11.6L40.7,7 c1,7.1,1.8,13,2.8,20c0.3,2.5,1.5,10.6,1.7,12.5L39.6,38.1z M46.9,40c-0.3-1.7-1.1-7.5-1.6-11.1c0,0,0,0,0-0.1 c-0.1-0.7-0.2-1.3-0.3-2v-0.3l0,0c-1-7.1-1.8-13-2.8-20.4l1.3-0.8l4.9,35L46.9,40z" class="st0"/><path id="_Tracé_" d="M38.5,9.8l-8.1,4.8c-0.3,0.2-0.4,0.6-0.3,1c0,0,0,0,0,0c0.2,0.3,0.6,0.4,1,0.2l8.1-4.8 c0.4-0.2,0.5-0.6,0.3-0.9c-0.2-0.4-0.6-0.5-0.9-0.3C38.6,9.8,38.5,9.8,38.5,9.8z" class="st0"/><path id="_Tracé_2" d="M27.8,16.2l-1,0.6c-0.3,0.2-0.4,0.6-0.3,1c0,0,0,0,0,0c0.2,0.3,0.6,0.5,1,0.3l1-0.6 c0.4-0.2,0.5-0.6,0.3-0.9c-0.2-0.4-0.6-0.5-0.9-0.3C27.9,16.2,27.8,16.2,27.8,16.2z" class="st0"/></g></svg>