<svg xmlns="http://www.w3.org/2000/svg" xmlns:xlink="http://www.w3.org/1999/xlink" id="Calque_1" x="0" y="0" enable-background="new 0 0 50 50" version="1.1" viewBox="0 0 50 50" xml:space="preserve"><style type="text/css">.st0{fill:#d1223e}</style><title>picto_ynov_digital_globe</title><g id="_Groupe_"><path id="_Tracé_transparent_" d="M45.9,24.1h-8.2c0-3.8-0.6-7.6-1.6-11.2h5.4c0.4-0.1,0.7-0.5,0.7-0.9 c0-0.4-0.3-0.6-0.7-0.7h-5.9c-0.8-2.4-1.9-4.6-3.3-6.7c-0.2-0.4-0.7-0.5-1.1-0.3c-0.4,0.2-0.5,0.7-0.3,1.1c0,0,0,0.1,0.1,0.1 c1.2,1.8,2.2,3.7,2.9,5.7h-8.2V3.9c0-0.4-0.4-0.8-0.8-0.8c-0.4,0-0.8,0.4-0.8,0.8v7.4h-8.3c0.7-2,1.7-4,2.9-5.7 c0.3-0.3,0.2-0.8-0.1-1.1c-0.3-0.3-0.8-0.2-1.1,0.1c0,0-0.1,0.1-0.1,0.1c-1.4,2-2.5,4.3-3.2,6.7H8.3c-0.4,0.1-0.7,0.5-0.7,0.9 c0,0.4,0.3,0.6,0.7,0.7h5.4c-1,3.7-1.5,7.4-1.6,11.2H3.9c-0.4,0-0.8,0.4-0.8,0.8c0,0.4,0.4,0.8,0.8,0.8h8.2c0,3.8,0.6,7.6,1.6,11.2 H8.3c-0.4,0.1-0.7,0.5-0.7,0.9c0,0.4,0.3,0.6,0.7,0.7h5.9c0.8,2.4,1.9,4.6,3.3,6.7c0.1,0.2,0.4,0.3,0.7,0.3c0.2,0,0.3-0.1,0.5-0.1 c0.4-0.3,0.4-0.8,0.2-1.1c-1.2-1.8-2.2-3.7-2.9-5.7h8.3v7.4c0,0.4,0.4,0.8,0.8,0.8c0.4,0,0.8-0.4,0.8-0.8v-7.4H34 c-0.7,2-1.7,4-2.9,5.7c-0.3,0.4-0.2,0.9,0.2,1.1c0.1,0.1,0.3,0.1,0.5,0.1c0.3,0,0.5-0.1,0.7-0.3c1.4-2,2.5-4.3,3.2-6.7h5.9 c0.4-0.1,0.7-0.5,0.7-0.9c0-0.4-0.3-0.6-0.7-0.7h-5.4c1-3.7,1.5-7.4,1.6-11.2h8.2c0.4,0,0.8-0.4,0.8-0.8 C46.7,24.4,46.3,24.1,45.9,24.1z M24.1,36.9h-8.8c-1-3.7-1.6-7.4-1.6-11.2h10.4L24.1,36.9z M24.1,24.1H13.7c0-3.8,0.6-7.6,1.6-11.2 h8.8L24.1,24.1z M34.5,36.9h-8.8V25.7h10.4C36.1,29.5,35.5,33.3,34.5,36.9L34.5,36.9z M25.7,24.1V12.9h8.8c1,3.7,1.6,7.4,1.6,11.2 L25.7,24.1z" class="st0"/><path id="_Tracé_transparent_2" d="M42.5,7.2C32.7-2.5,16.9-2.4,7.2,7.4C-1.1,15.8-2.4,28.8,4,38.6L1,47.8 c-0.1,0.3,0,0.6,0.2,0.8c0.2,0.2,0.5,0.3,0.8,0.2l9.2-3c11.5,7.7,27,4.6,34.6-6.9C52.4,28.9,51.1,15.6,42.5,7.2z M24.9,48.3 c-4.7,0-9.3-1.4-13.2-4c-0.1-0.1-0.3-0.1-0.4-0.1c-0.1,0-0.2,0-0.3,0l-8,2.7l2.7-8c0.1-0.2,0.1-0.5-0.1-0.7 C-1.7,27.4,1,12.9,11.7,5.6S36.9,1,44.2,11.7s4.5,25.2-6.1,32.5C34.2,46.8,29.6,48.3,24.9,48.3z" class="st0"/></g></svg>