<?xml version="1.0" encoding="utf-8"?>
<!-- Generator: Adobe Illustrator 22.1.0, SVG Export Plug-In . SVG Version: 6.00 Build 0)  -->
<svg version="1.1" id="Calque_1" xmlns="http://www.w3.org/2000/svg" xmlns:xlink="http://www.w3.org/1999/xlink" x="0px" y="0px"
	 viewBox="0 0 50 50" style="enable-background:new 0 0 50 50;" xml:space="preserve">
<style type="text/css">
	.st0{fill:#D1223E;}
</style>
<title>picto_ynov_digital_management</title>
<g id="_Groupe_">
	<path id="_Tracé_transparent_" class="st0" d="M11.5,40.4c2.6,0,4.7-2.1,4.7-4.7c0-2.6-2.1-4.7-4.7-4.7c-2.6,0-4.7,2.1-4.7,4.7
		c0,0,0,0,0,0C6.8,38.3,9,40.4,11.5,40.4z M11.5,32.6c1.7,0,3.2,1.4,3.2,3.2c0,1.7-1.4,3.2-3.2,3.2s-3.2-1.4-3.2-3.2l0,0
		C8.4,34,9.8,32.6,11.5,32.6C11.5,32.6,11.5,32.6,11.5,32.6z"/>
	<path id="_Tracé_transparent_2" class="st0" d="M11.3,40.7c-3.2,0-5.7,2.5-5.8,5.7v2.9c0,0.4,0.3,0.8,0.8,0.8h0h10
		c0.4,0,0.8-0.3,0.8-0.8v-2.8l0,0C17.1,43.3,14.5,40.7,11.3,40.7z M15.5,48.4H7.1v-2.1c0.3-2.3,2.5-4,4.8-3.7
		c1.9,0.3,3.4,1.8,3.7,3.7L15.5,48.4z"/>
	<path id="_Tracé_transparent_3" class="st0" d="M38.4,31c-2.6,0-4.7,2.1-4.7,4.7c0,2.6,2.1,4.7,4.7,4.7s4.7-2.1,4.7-4.7
		C43.1,33.1,41,31,38.4,31L38.4,31z M38.4,38.9c-1.7,0-3.2-1.4-3.2-3.2c0-1.7,1.4-3.2,3.2-3.2c1.7,0,3.2,1.4,3.2,3.2l0,0
		C41.6,37.5,40.2,38.9,38.4,38.9z"/>
	<path id="_Tracé_transparent_4" class="st0" d="M38.6,40.7c-3.2,0-5.8,2.5-5.8,5.7l0,0v2.8c0,0.4,0.4,0.8,0.8,0.8h10
		c0.4,0,0.8-0.3,0.8-0.8l0,0v-2.7C44.3,43.2,41.8,40.7,38.6,40.7z M42.9,48.4h-8.5v-2c0.3-2.3,2.5-4,4.8-3.7
		c1.9,0.3,3.4,1.8,3.7,3.7V48.4z"/>
	<path id="_Tracé_transparent_5" class="st0" d="M20.4,35.7c0,2.6,2.1,4.7,4.7,4.7s4.7-2.1,4.7-4.7c0-2.6-2.1-4.7-4.7-4.7
		c0,0,0,0,0,0C22.5,31,20.4,33.1,20.4,35.7z M28.3,35.7c0,1.7-1.4,3.2-3.2,3.2c-1.7,0-3.2-1.4-3.2-3.2c0-1.7,1.4-3.2,3.2-3.2
		C26.9,32.6,28.3,34,28.3,35.7L28.3,35.7z"/>
	<path id="_Tracé_transparent_6" class="st0" d="M25,40.7c-3.2,0-5.8,2.5-5.9,5.7v2.9c0,0.4,0.3,0.8,0.8,0.8h0h10
		c0.4,0,0.8-0.3,0.8-0.8c0,0,0,0,0,0v-2.9l0,0C30.7,43.2,28.1,40.7,25,40.7z M29.2,48.4h-8.5v-2.1c0.3-2.3,2.5-4,4.8-3.7
		c1.9,0.3,3.4,1.8,3.7,3.7V48.4z"/>
	<path id="_Tracé_" class="st0" d="M29.2,7.6c0.1,0.2,0.1,0.5,0.2,0.7C29.4,8.7,29.7,9,30.1,9h0.1c0.4-0.1,0.7-0.5,0.6-0.9
		c0-0.3-0.1-0.6-0.2-0.9c-0.1-0.4-0.6-0.6-1-0.5c0,0,0,0,0,0C29.2,6.8,29,7.2,29.2,7.6C29.2,7.6,29.2,7.6,29.2,7.6z"/>
	<path id="_Tracé_2" class="st0" d="M25,4.6c1.3,0,2.5,0.6,3.4,1.6c0.2,0.4,0.7,0.5,1.1,0.2c0.4-0.2,0.5-0.7,0.2-1.1
		c0,0-0.1-0.1-0.1-0.1c-1.1-1.4-2.8-2.1-4.6-2.1c-0.4,0-0.8,0.4-0.8,0.8C24.2,4.3,24.6,4.6,25,4.6L25,4.6z"/>
	<path id="_Tracé_transparent_7" class="st0" d="M20.9,17.1c0,0.1,0,0.1,0,0.2v5.8c0,0.4,0.3,0.8,0.8,0.8h0h2.5v2.2H11.4
		c-0.4,0-0.8,0.3-0.8,0.8l0,0v2.1c0,0.4,0.3,0.8,0.8,0.8c0.4,0,0.8-0.4,0.8-0.8v-1.3h12.1v1.3c0,0.4,0.3,0.8,0.8,0.8
		c0.4,0,0.8-0.3,0.8-0.8c0,0,0,0,0,0v-1.3h11.3v1.3c0,0.4,0.4,0.8,0.8,0.8c0.4,0,0.8-0.4,0.8-0.8v-2.1c0-0.4-0.3-0.8-0.8-0.8l0,0
		H25.8v-2.2h2.5c0.4,0,0.8-0.3,0.8-0.8v0v-5.8c0-0.1,0-0.1,0-0.2c4.5-2.2,6.3-7.7,4-12.1s-7.7-6.3-12.1-4s-6.3,7.7-4,12.1
		C17.8,14.9,19.2,16.3,20.9,17.1L20.9,17.1z M27.5,22.3h-5.1V21h5.1V22.3z M27.5,19.5h-5.1v-1.3h5.1V19.5z M23.7,16.4v-5.7h2.6v5.7
		C25.4,16.6,24.6,16.6,23.7,16.4z M25,1.5c4.1,0,7.5,3.3,7.5,7.5c0,3.1-1.8,5.8-4.7,7v-5.3h0.9c0.4,0,0.8-0.3,0.8-0.8
		s-0.3-0.8-0.8-0.8c0,0,0,0,0,0h-0.9V8.7c0-0.4-0.3-0.8-0.8-0.8c-0.4,0-0.8,0.3-0.8,0.8c0,0,0,0,0,0v0.5h-2.6V8.7
		c0-0.4-0.3-0.8-0.8-0.8c-0.4,0-0.8,0.3-0.8,0.8c0,0,0,0,0,0v0.5h-0.9c-0.4,0-0.8,0.3-0.8,0.8c0,0.4,0.3,0.8,0.8,0.8c0,0,0,0,0,0
		h0.9V16c-3.8-1.6-5.7-5.9-4.1-9.8C19.2,3.4,21.9,1.5,25,1.5z"/>
	<path id="_Tracé_3" class="st0" d="M9.3,7.3h3.2c0.4,0,0.8-0.3,0.8-0.8c0-0.4-0.4-0.8-0.8-0.8H9.3c-0.4,0-0.8,0.4-0.8,0.8l0,0
		C8.5,7,8.9,7.3,9.3,7.3z"/>
	<path id="_Tracé_4" class="st0" d="M12.9,8.7l-2.1,2c-0.3,0.3-0.3,0.8,0,1.1c0.1,0.1,0.3,0.2,0.5,0.2c0.2,0,0.4-0.1,0.5-0.2l2.1-2
		c0.3-0.3,0.3-0.8,0-1.1C13.7,8.4,13.2,8.3,12.9,8.7C12.9,8.6,12.9,8.6,12.9,8.7z"/>
	<path id="_Tracé_5" class="st0" d="M12.8,4.5c0.2,0.1,0.4,0.2,0.6,0.2c0.2,0,0.4-0.1,0.5-0.2c0.3-0.3,0.3-0.8,0-1.1l-2-2.1
		c-0.3-0.3-0.8-0.3-1.1,0c-0.3,0.3-0.3,0.8,0,1.1L12.8,4.5z"/>
	<path id="_Tracé_6" class="st0" d="M37.5,6.6c0,0.4,0.4,0.8,0.8,0.8h3.2c0.4,0,0.8-0.3,0.8-0.8c0-0.4-0.4-0.8-0.8-0.8h-3.2
		C37.9,5.8,37.5,6.1,37.5,6.6C37.5,6.6,37.5,6.6,37.5,6.6z"/>
	<path id="_Tracé_7" class="st0" d="M38.9,11.8c0.1,0.1,0.3,0.2,0.5,0.2c0.4,0,0.8-0.4,0.8-0.8c0-0.2-0.1-0.4-0.2-0.5l-2.1-2
		c-0.3-0.3-0.8-0.3-1.1,0c0,0,0,0,0,0c-0.3,0.3-0.3,0.8,0,1.1L38.9,11.8z"/>
	<path id="_Tracé_8" class="st0" d="M37.4,4.7c0.2,0,0.4-0.1,0.6-0.2l2-2.1c0.3-0.3,0.3-0.8,0-1.1c-0.3-0.3-0.8-0.3-1.1,0l-2,2.1
		c-0.3,0.3-0.3,0.8,0,1.1C37,4.6,37.2,4.7,37.4,4.7z"/>
</g>
</svg>
