<?xml version="1.0" encoding="utf-8"?>
<!-- Generator: Adobe Illustrator 22.1.0, SVG Export Plug-In . SVG Version: 6.00 Build 0)  -->
<svg version="1.1" id="Calque_1" xmlns="http://www.w3.org/2000/svg" xmlns:xlink="http://www.w3.org/1999/xlink" x="0px" y="0px"
	 viewBox="0 0 50 50" style="enable-background:new 0 0 50 50;" xml:space="preserve">
<style type="text/css">
	.st0{fill:#284181;}
</style>
<title>picto_ynov_aero_iot</title>
<g id="_Groupe_">
	<path id="_Tracé_" class="st0" d="M12.3,11.5c-0.5,0-0.9,0.4-0.9,0.9c0,0,0,0,0,0c0,0.5,0.4,0.9,0.9,0.9c0,0,0,0,0,0
		c0.5,0,0.9-0.4,0.9-0.9l0,0C13.2,11.9,12.8,11.5,12.3,11.5C12.4,11.5,12.3,11.5,12.3,11.5z"/>
	<circle id="_Tracé_2" class="st0" cx="12.3" cy="37.6" r="0.9"/>
	<path id="_Tracé_3" class="st0" d="M49.1,22.4c0.5,0,0.9-0.4,0.9-0.9c0,0,0,0,0,0c0-0.5-0.4-0.9-0.9-0.9l0,0h-6v-5.2h6
		c0.5,0,0.9-0.4,0.9-0.9c0,0,0,0,0,0c0-0.5-0.4-0.9-0.9-0.9l0,0h-6v-1.4c0-3-2.4-5.5-5.5-5.5h-1.4v-6c0-0.5-0.4-0.9-0.9-0.9l0,0
		c-0.5,0-0.9,0.4-0.9,0.8c0,0,0,0,0,0v6h-5.2v-6c0-0.5-0.4-0.9-0.9-0.9l0,0c-0.5,0-0.9,0.4-0.9,0.8c0,0,0,0,0,0v6h-5.2v-6
		C22.4,0.4,22,0,21.5,0c0,0,0,0,0,0c-0.5,0-0.9,0.4-0.9,0.9v0v6h-5.2v-6c0-0.5-0.4-0.9-0.9-0.9c0,0,0,0,0,0c-0.5,0-0.9,0.4-0.9,0.9
		v0v6h-1.4c-3,0-5.5,2.4-5.5,5.5v1.4h-6c-0.5,0-0.9,0.4-0.9,0.9l0,0c0,0.5,0.4,0.9,0.8,0.9c0,0,0,0,0,0h6v5.2h-6
		c-0.5,0-0.9,0.4-0.9,0.9l0,0c0,0.5,0.4,0.9,0.8,0.9c0,0,0,0,0,0h6v5.2h-6C0.4,27.6,0,28,0,28.4c0,0,0,0,0,0c0,0.5,0.4,0.9,0.9,0.9
		h0h6v5.2h-6c-0.5,0-0.9,0.4-0.9,0.9c0,0,0,0,0,0c0,0.5,0.4,0.9,0.9,0.9h0h6v1.4c0,3,2.4,5.5,5.5,5.5h1.4v6c0,0.5,0.4,0.9,0.9,0.9
		l0,0c0.5,0,0.9-0.4,0.9-0.8c0,0,0,0,0,0v-6h5.2v6c0,0.5,0.4,0.9,0.9,0.9l0,0c0.5,0,0.9-0.4,0.9-0.8c0,0,0,0,0,0v-6h5.2v6
		c0,0.5,0.4,0.9,0.9,0.9c0,0,0,0,0,0c0.5,0,0.9-0.4,0.9-0.9l0,0v-6h5.2v6c0,0.5,0.4,0.9,0.9,0.9c0,0,0,0,0,0c0.5,0,0.9-0.4,0.9-0.9
		l0,0v-6h1.4c3,0,5.5-2.4,5.5-5.5v-1.4h6c0.5,0,0.9-0.4,0.9-0.9l0,0c0-0.5-0.4-0.9-0.8-0.9c0,0,0,0,0,0h-6.9c-0.5,0-0.9,0.4-0.9,0.9
		v2.3c0.1,2.1-1.6,3.8-3.6,3.8c0,0-0.1,0-0.1,0H12.3c-2.1,0-3.7-1.7-3.7-3.7l0,0V12.4c0-2.1,1.7-3.7,3.7-3.7c0,0,0,0,0,0h25.3
		c2.1-0.1,3.8,1.6,3.8,3.6c0,0,0,0.1,0,0.1v18.4c0,0.5,0.4,0.9,0.9,0.9c0.5,0,0.9-0.4,0.9-0.9c0,0,0,0,0,0v-1.4h6
		c0.5,0,0.9-0.4,0.9-0.9l0,0c0-0.5-0.4-0.9-0.8-0.9c0,0,0,0,0,0h-6.1v-5.2H49.1z"/>
	<path id="_Tracé_transparent_" class="st0" d="M16.9,15.5h6.9c0.5,0,0.9-0.4,0.9-0.9c0,0,0,0,0,0c0-0.5-0.4-0.9-0.9-0.9
		c0,0,0,0,0,0h-6.9c-1.7,0-3.2,1.4-3.2,3.2l0,0V33c0,1.7,1.4,3.2,3.2,3.2l0,0h4.6c0.5,0,0.9-0.4,0.9-0.8c0,0,0,0,0,0V24.6h0.2
		c1.6-0.6,2.5-2.4,1.9-4c-0.6-1.6-2.4-2.5-4-1.9c-1.6,0.6-2.5,2.4-1.9,4c0.3,0.9,1,1.6,1.9,1.9h0.2v9.9h-3.7c-0.8,0-1.4-0.6-1.4-1.4
		v0V17C15.5,16.2,16.1,15.5,16.9,15.5L16.9,15.5z M20,21.5c0.1-0.8,0.8-1.4,1.6-1.3c0.7,0.1,1.2,0.6,1.3,1.3
		c0.1,0.8-0.5,1.5-1.3,1.6c-0.8,0.1-1.5-0.5-1.6-1.3C20,21.7,20,21.6,20,21.5z"/>
	<path id="_Tracé_transparent_2" class="st0" d="M33,34.5h-6.9c-0.5,0-0.9,0.4-0.9,0.9c0,0,0,0,0,0c0,0.5,0.4,0.9,0.9,0.9
		c0,0,0,0,0,0H33c1.7,0,3.2-1.4,3.2-3.2l0,0V17c0-1.7-1.4-3.2-3.2-3.2l0,0h-4.6c-0.5,0-0.9,0.4-0.9,0.8c0,0,0,0,0,0v10.8h-0.2
		c-1.6,0.6-2.5,2.4-1.9,4s2.4,2.5,4,1.9c1.6-0.6,2.5-2.4,1.9-4c-0.3-0.9-1-1.6-1.9-1.9h-0.2v-9.9H33c0.8,0,1.4,0.6,1.4,1.4v0v16.1
		C34.5,33.8,33.8,34.5,33,34.5z M29.9,28.5c0,0.8-0.6,1.4-1.4,1.4c-0.8,0-1.4-0.6-1.4-1.4c0-0.8,0.6-1.4,1.4-1.4c0,0,0,0,0,0
		C29.3,27,29.9,27.6,29.9,28.5C29.9,28.4,29.9,28.5,29.9,28.5z"/>
</g>
</svg>
