<svg xmlns="http://www.w3.org/2000/svg" xmlns:xlink="http://www.w3.org/1999/xlink" id="Calque_1" x="0" y="0" enable-background="new 0 0 50 50" version="1.1" viewBox="0 0 50 50" xml:space="preserve"><style type="text/css">.st0{fill:#284181}</style><title>picto_ynov_aero_robots</title><g id="_Groupe_"><path id="_Tracé_transparent_" d="M32.9,44v-2.1h1.6v-4.4h-1.6v-2.1h3.3v-6.8h-7.2l10-8.6c0.8-0.7,1.3-1.8,1.3-2.9 v-3.3l0.9-0.7c0.5-0.4,0.8-1,0.8-1.7V5.4c-0.1-2.1-1.8-3.7-3.8-3.7H19.5v1.6h-3.8V0H3.7L0,1.9v2.5h6.5v2.1H0v2.5l3.7,1.9h12.1V7.6 h3.8v1.6h12.1L17.4,22.1h-0.1c-2.8,0.5-4.7,3.2-4.2,6c0.2,1.1,0.7,2,1.4,2.8l4.5,4.5H22v2.1h-1.6v4.4H22V44h-9v6h37v-6H32.9z M9.8,9.8H3.9L1,8.3V7.6h6.5V3.2H1.1V2.6L4,1.1h5.8L9.8,9.8z M14.7,9.8h-3.8V1.1h3.8V9.8z M19.5,6.5h-3.8V4.4h3.8V6.5z M33.4,38.6 v2.1h-2.1v-2.1H33.4z M23.2,37.5v-2.1h8.6v2.1H23.2z M30.2,38.6v2.1H28v-2.1H30.2z M24.8,38.6H27v2.1h-2.2L24.8,38.6z M31.8,41.9 V44h-8.7v-2.1H31.8z M39.1,17.1c0,0.8-0.3,1.5-0.9,2l-10.9,9.5h-0.4L25,26.7l14.1-12.1L39.1,17.1z M22.8,8.1h-2.2V2.8h2.2V8.1z M23.9,8.1V2.8H38c1.5,0,2.7,1.2,2.7,2.7v2.7L23.9,8.1z M33.4,9.3h7.4v2c0,0.3-0.1,0.6-0.4,0.8L24.2,25.9l-2.3-2.3 c-0.6-0.6-1.5-1.1-2.3-1.3l-0.5-0.1L33.4,9.3z M19.5,34.2L15.3,30c-1.5-1.7-1.3-4.2,0.3-5.7c1.5-1.4,3.9-1.4,5.4,0l5.4,5.3h8.6v4.6 H19.5z M21.5,40.7v-2.1h2.1v2.1H21.5z M48.9,48.9h-2.1v-1.6h-1.1v1.6h-2.1v-1.6h-1.1v1.6h-2.1v-1.6h-1.1v1.6H37v-1.6h-1.1v1.6h-2.1 v-1.6h-1.2v1.6h-2.1v-1.6h-1.1v1.6h-2.2v-1.6h-1.1v1.6h-2.1v-1.6h-1.1v1.6h-2.2v-1.6h-1.1v1.6h-2.1v-1.6h-1.2v1.6h-2.1v-3.8h34.7 V48.9z" class="st0"/><path id="_Tracé_transparent_2" d="M18.1,25.3c-1,0-1.8,0.8-1.8,1.8c0,1,0.8,1.8,1.8,1.8c1,0,1.8-0.8,1.8-1.8 c0,0,0,0,0,0C19.9,26.1,19.1,25.3,18.1,25.3z M18.1,27.7c-0.4,0-0.7-0.3-0.7-0.7v0c0-0.4,0.3-0.7,0.7-0.7c0.4,0,0.7,0.3,0.7,0.7 c0,0,0,0,0,0C18.7,27.4,18.4,27.7,18.1,27.7z" class="st0"/></g></svg>