<?xml version="1.0" encoding="utf-8"?>
<!-- Generator: Adobe Illustrator 22.1.0, SVG Export Plug-In . SVG Version: 6.00 Build 0)  -->
<svg version="1.1" id="Calque_1" xmlns="http://www.w3.org/2000/svg" xmlns:xlink="http://www.w3.org/1999/xlink" x="0px" y="0px"
	 viewBox="0 0 50 50" style="enable-background:new 0 0 50 50;" xml:space="preserve">
<style type="text/css">
	.st0{fill:#284181;}
</style>
<title>picto_ynov_aero_rocket</title>
<g id="_Groupe_">
	<path id="_Tracé_" class="st0" d="M0.6,48.5c-0.4,0-0.7,0.3-0.7,0.7l0,0c0,0.4,0.3,0.7,0.7,0.7c0.4,0,0.7-0.3,0.7-0.7
		C1.3,48.8,1,48.5,0.6,48.5C0.6,48.5,0.6,48.5,0.6,48.5z"/>
	<path id="_Tracé_2" class="st0" d="M26.1,23.2c-0.4,0-0.7,0.3-0.7,0.7s0.3,0.7,0.7,0.7c0.4,0,0.7-0.3,0.7-0.7c0,0,0,0,0,0
		C26.8,23.5,26.5,23.2,26.1,23.2z"/>
	<path id="_Tracé_transparent_" class="st0" d="M36.1,10.3c-2.2,0-3.9,1.8-3.9,4c0,2.2,1.8,3.9,4,3.9c2.2,0,3.9-1.8,3.9-4
		c0-1-0.4-2-1.1-2.8C38.2,10.7,37.2,10.3,36.1,10.3z M37.9,16.1c-0.5,0.5-1.1,0.7-1.8,0.7c-0.7,0-1.3-0.2-1.8-0.7c-1-1-1-2.6,0-3.5
		c0.5-0.5,1.1-0.7,1.8-0.7c0.7,0,1.3,0.3,1.8,0.7C38.9,13.5,38.9,15.1,37.9,16.1z"/>
	<path id="_Tracé_3" class="st0" d="M11.9,40.6c-0.1,0-0.2,0-0.3,0c-0.3,0-0.5,0.2-0.7,0.4l-1.2,2.4c-0.6,1.1-1.7,1.9-2.9,1.9
		l-1.4,0.1c-0.2,0-0.5-0.1-0.6-0.3c-0.2-0.2-0.3-0.4-0.2-0.7l0.1-1.4c0.1-1.3,0.8-2.4,2-2.9L9,39c0.2-0.1,0.3-0.2,0.4-0.4
		c0.1-0.2,0.1-0.4,0-0.6c-0.1-0.2-0.4-0.4-0.7-0.4c-0.1,0-0.2,0-0.3,0.1L6,38.9c-1.6,0.8-2.6,2.4-2.8,4.1l-0.1,1.4
		c0,0.7,0.2,1.3,0.7,1.8c0.4,0.4,1,0.7,1.6,0.7h0.2L7,46.8c1.7-0.2,3.3-1.2,4-2.8l1.2-2.4c0.1-0.2,0.1-0.4,0-0.6
		C12.2,40.9,12.1,40.7,11.9,40.6z"/>
	<path id="_Tracé_transparent_2" class="st0" d="M49.5,0.6C49.1,0.2,48.6,0,48.1,0H48H47c-8.3,0.5-15.9,4.5-21.2,10.9l-2.3,2.8
		l-5.9-0.2c-4.4,0-8.7,1.7-11.8,4.9l-5.8,6c-0.2,0.2-0.3,0.5-0.2,0.8c0.1,0.3,0.4,0.5,0.6,0.5l12.9,0.7l-0.8,1
		c-0.2,0.2-0.2,0.6-0.1,0.8l0.6,1l0.1,0.2l-3.1,3.6c-0.2,0.2-0.2,0.5-0.1,0.8c1.3,2.7,3.4,4.8,6.1,6.1c0.1,0,0.2,0,0.3,0
		c0.2,0,0.3-0.1,0.5-0.2L19,38l1.6-1.4l0.2,0.1l0.9,0.5c0.1,0.1,0.2,0.1,0.4,0.1c0.2,0,0.3-0.1,0.4-0.2l1.1-0.8l0.7,13
		c0,0.4,0.3,0.7,0.7,0.7c0.2,0,0.4-0.1,0.5-0.2l5.8-5.9c3.1-3.1,4.9-7.4,4.9-11.8v-5.5l2.4-1.9c6.8-5.3,11-13.4,11.4-22V2.2
		C50.1,1.6,49.9,1,49.5,0.6z M2.3,24.2l4.7-4.7c2.9-2.9,6.7-4.5,10.8-4.5l0,0l4.7,0.1l-7.8,9.7L2.3,24.2z M18.1,36.9l-1.6,1.3
		l-0.1,0.1l-0.2-0.1c-1.9-1-3.5-2.6-4.6-4.5l-0.1-0.2l2.5-2.9l0.2,0.3c0.6,0.9,1.3,1.7,2.1,2.4c0.8,0.9,1.8,1.6,2.7,2.3l0.3,0.2
		L18.1,36.9z M34.8,32.1c0,4-1.6,7.9-4.5,10.8l-4.7,4.7L25,35.2l9.8-7.6L34.8,32.1z M48.7,2.5c-0.4,8.2-4.4,15.8-10.9,20.9L22,35.7
		h-0.2c-1.3-0.8-2.5-1.7-3.7-2.7L18,32.8l5.5-5.5c0.3-0.3,0.3-0.7,0-1c0,0,0,0,0,0c-0.1-0.1-0.3-0.2-0.5-0.2c-0.2,0-0.4,0.1-0.5,0.2
		L17,31.7l-0.2-0.2c-1-1.1-1.9-2.3-2.7-3.5L14,27.8L27,11.9c5-6.1,12.3-9.9,20.2-10.4h1c0.2,0,0.3,0.1,0.4,0.2
		c0.1,0.1,0.2,0.3,0.2,0.4L48.7,2.5z"/>
</g>
</svg>
