<svg id="Calque_1" data-name="Calque 1" xmlns="http://www.w3.org/2000/svg" viewBox="0 0 50 50"><defs><style>.cls-1{fill:#284181;}</style></defs><title>picto_ynov_aero_robots</title><g id="_Groupe_" data-name="&lt;Groupe&gt;"><path id="_Tracé_transparent_" data-name="&lt;Tracé transparent&gt;" class="cls-1" d="M30.41,38V36.56h1.12v-3H30.41V32.09h2.24V27.41H27.71l6.83-5.92a2.63,2.63,0,0,0,.9-2V17.2l.59-.51a1.49,1.49,0,0,0,.53-1.14v-4A2.63,2.63,0,0,0,33.94,9H21.26v1.12H18.68V7.85h-8.3L7.85,9.12v1.74h4.47v1.46H7.85v1.74l2.53,1.27h8.3V13.09h2.58v1.12h8.32L19.77,23h-.05a3.54,3.54,0,0,0-1.89,6l3.1,3.1h2v1.46H21.82v3h1.12V38H16.79v4.13H42.15V38ZM14.56,14.56h-4l-2-1v-.5h4.47v-3H8.62V9.6l2-1h4Zm3.35,0H15.33V8.62h2.58Zm3.35-2.24H18.68V10.86h2.58Zm9.5,22v1.47H29.3V34.32Zm-7-.77V32.09h5.93v1.46Zm4.82.77v1.47H27.06V34.32Zm-3.7,0h1.46v1.47H24.83Zm4.81,2.24V38H23.71V36.56Zm5-17a1.83,1.83,0,0,1-.64,1.4l-7.5,6.5h-.25L25,26.14l9.66-8.28ZM23.5,13.44H22V9.74H23.5Zm.77,0V9.74h9.67a1.85,1.85,0,0,1,1.85,1.85v1.85Zm6.46.77h5.06v1.34a.71.71,0,0,1-.26.55L24.46,25.59,22.85,24a3.58,3.58,0,0,0-1.6-.92L20.94,23ZM21.25,31.32l-2.87-2.87a2.78,2.78,0,0,1,3.92-3.93L26,28.18h5.92v3.14Zm1.34,4.47V34.32h1.47v1.47Zm18.79,5.59H39.91V40.26h-.77v1.12H37.68V40.26h-.77v1.12H35.44V40.26h-.77v1.12H33.21V40.26h-.77v1.12H31V40.26H30.2v1.12H28.74V40.26H28v1.12H26.5V40.26h-.77v1.12H24.27V40.26H23.5v1.12H22V40.26h-.77v1.12H19.8V40.26H19v1.12H17.56V38.79H41.38Z"/><path id="_Tracé_transparent_2" data-name="&lt;Tracé transparent&gt;" class="cls-1" d="M20.25,25.17a1.23,1.23,0,1,0,1.22,1.23A1.23,1.23,0,0,0,20.25,25.17Zm0,1.68a.45.45,0,0,1-.45-.45.45.45,0,1,1,.9,0A.45.45,0,0,1,20.25,26.85Z"/></g></svg>