<svg id="Calque_1" data-name="Calque 1" xmlns="http://www.w3.org/2000/svg" viewBox="0 0 50 50"><defs><style>.cls-1{fill:#284181;}</style></defs><title>picto_ynov_aero_iot</title><g id="_Groupe_" data-name="&lt;Groupe&gt;"><path id="_Tracé_" data-name="&lt;Tracé&gt;" class="cls-1" d="M17.32,16.79a.53.53,0,0,0-.53.53.52.52,0,0,0,.53.52.52.52,0,0,0,.52-.52A.52.52,0,0,0,17.32,16.79Z"/><circle id="_Tracé_2" data-name="&lt;Tracé&gt;" class="cls-1" cx="17.32" cy="32.68" r="0.53"/><path id="_Tracé_3" data-name="&lt;Tracé&gt;" class="cls-1" d="M39.67,23.43a.52.52,0,0,0,.52-.53.52.52,0,0,0-.52-.52H36V19.24h3.67a.52.52,0,0,0,.52-.53.52.52,0,0,0-.52-.52H36v-.87A3.32,3.32,0,0,0,32.68,14h-.87V10.33a.52.52,0,0,0-.52-.52.52.52,0,0,0-.53.52V14H27.62V10.33a.52.52,0,0,0-.52-.52.52.52,0,0,0-.53.52V14H23.43V10.33a.52.52,0,0,0-.53-.52.52.52,0,0,0-.52.52V14H19.24V10.33a.52.52,0,0,0-.53-.52.52.52,0,0,0-.52.52V14h-.87A3.32,3.32,0,0,0,14,17.32v.87H10.33a.52.52,0,0,0-.52.52.52.52,0,0,0,.52.53H14v3.14H10.33a.52.52,0,0,0-.52.52.52.52,0,0,0,.52.53H14v3.14H10.33a.52.52,0,0,0-.52.53.52.52,0,0,0,.52.52H14v3.14H10.33a.52.52,0,0,0-.52.53.52.52,0,0,0,.52.52H14v.87A3.32,3.32,0,0,0,17.32,36h.87v3.67a.52.52,0,0,0,.52.52.52.52,0,0,0,.53-.52V36h3.14v3.67a.52.52,0,0,0,.52.52.52.52,0,0,0,.53-.52V36h3.14v3.67a.52.52,0,0,0,.53.52.52.52,0,0,0,.52-.52V36h3.14v3.67a.52.52,0,0,0,.53.52.52.52,0,0,0,.52-.52V36h.87A3.32,3.32,0,0,0,36,32.68v-.87h3.67a.52.52,0,0,0,.52-.52.52.52,0,0,0-.52-.53H35.48a.53.53,0,0,0-.53.53v1.39A2.26,2.26,0,0,1,32.68,35H17.32a2.27,2.27,0,0,1-2.27-2.27V17.32a2.27,2.27,0,0,1,2.27-2.27H32.68A2.26,2.26,0,0,1,35,17.32V28.49a.53.53,0,0,0,.53.53.52.52,0,0,0,.52-.53v-.87h3.67a.52.52,0,0,0,.52-.52.52.52,0,0,0-.52-.53H36V23.43Z"/><path id="_Tracé_transparent_" data-name="&lt;Tracé transparent&gt;" class="cls-1" d="M20.11,19.24H24.3a.53.53,0,0,0,.53-.53.52.52,0,0,0-.53-.52H20.11a1.92,1.92,0,0,0-1.92,1.92v9.78a1.92,1.92,0,0,0,1.92,1.92H22.9a.52.52,0,0,0,.53-.52V24.75l.11,0a1.92,1.92,0,1,0-1.28,0l.12,0v6H20.11a.87.87,0,0,1-.87-.87V20.11A.87.87,0,0,1,20.11,19.24ZM22,22.9a.88.88,0,0,1,1.75,0,.88.88,0,1,1-1.75,0Z"/><path id="_Tracé_transparent_2" data-name="&lt;Tracé transparent&gt;" class="cls-1" d="M29.89,30.76H25.7a.53.53,0,0,0-.53.53.52.52,0,0,0,.53.52h4.19a1.92,1.92,0,0,0,1.92-1.92V20.11a1.92,1.92,0,0,0-1.92-1.92H27.1a.52.52,0,0,0-.53.52v6.54l-.11,0a1.92,1.92,0,1,0,1.28,0l-.12,0v-6h2.27a.87.87,0,0,1,.87.87v9.78A.87.87,0,0,1,29.89,30.76ZM28,27.1a.88.88,0,1,1-.87-.88A.87.87,0,0,1,28,27.1Z"/></g></svg>