<svg id="Calque_1" data-name="Calque 1" xmlns="http://www.w3.org/2000/svg" viewBox="0 0 50 50"><defs><style>.cls-1{fill:#284181;}</style></defs><title>picto_ynov_aero_rocket</title><g id="_Groupe_" data-name="&lt;Groupe&gt;"><path id="_Tracé_" data-name="&lt;Tracé&gt;" class="cls-1" d="M9.31,40.13a.47.47,0,0,0-.47.47.47.47,0,0,0,.94,0A.47.47,0,0,0,9.31,40.13Z"/><path id="_Tracé_2" data-name="&lt;Tracé&gt;" class="cls-1" d="M25.7,23.85a.47.47,0,1,0,.47.47A.47.47,0,0,0,25.7,23.85Z"/><path id="_Tracé_transparent_" data-name="&lt;Tracé transparent&gt;" class="cls-1" d="M32.16,15.57a2.54,2.54,0,1,0,1.81.75A2.53,2.53,0,0,0,32.16,15.57Zm1.15,3.7a1.59,1.59,0,0,1-1.15.47A1.57,1.57,0,0,1,31,19.27,1.61,1.61,0,0,1,31,17a1.57,1.57,0,0,1,1.14-.47,1.59,1.59,0,0,1,1.15.47A1.62,1.62,0,0,1,33.31,19.27Z"/><path id="_Tracé_3" data-name="&lt;Tracé&gt;" class="cls-1" d="M16.59,35.07a.54.54,0,0,0-.21,0,.47.47,0,0,0-.42.26l-.76,1.54a2.27,2.27,0,0,1-1.88,1.25l-.93.07A.55.55,0,0,1,12,38a.5.5,0,0,1-.16-.42l.06-.89a2.3,2.3,0,0,1,1.26-1.89L14.69,34a.49.49,0,0,0,.24-.27.45.45,0,0,0,0-.36.47.47,0,0,0-.42-.26.54.54,0,0,0-.21.05l-1.53.77A3.2,3.2,0,0,0,11,36.59l-.06.89a1.48,1.48,0,0,0,.43,1.15,1.44,1.44,0,0,0,1.05.44h.1l.89-.06A3.24,3.24,0,0,0,16,37.23l.76-1.53a.45.45,0,0,0,0-.36A.49.49,0,0,0,16.59,35.07Z"/><path id="_Tracé_transparent_2" data-name="&lt;Tracé transparent&gt;" class="cls-1" d="M40.77,9.31a1.32,1.32,0,0,0-.92-.38h-.08l-.6,0a19.13,19.13,0,0,0-13.61,7l-1.45,1.8-3.78-.11a10.69,10.69,0,0,0-7.59,3.14L9,24.59a.47.47,0,0,0-.11.49.46.46,0,0,0,.41.3l8.31.43-.54.66A.47.47,0,0,0,17,27l.39.67.07.11-2,2.34a.46.46,0,0,0-.07.5,8.23,8.23,0,0,0,3.92,3.92.48.48,0,0,0,.2,0,.47.47,0,0,0,.3-.1l1.33-1.1,1-.88.11.07.55.31a.46.46,0,0,0,.23.06.42.42,0,0,0,.28-.1l.7-.54.43,8.33a.47.47,0,0,0,.47.44.46.46,0,0,0,.33-.13l3.76-3.77a10.63,10.63,0,0,0,3.14-7.59V26l1.56-1.2a19.09,19.09,0,0,0,7.36-14.16l0-.31A1.3,1.3,0,0,0,40.77,9.31ZM10.38,24.5l3-3a9.81,9.81,0,0,1,6.92-2.87h0l3,.09-5,6.21Zm10.19,8.15-1,.83-.09.08-.1-.06a7.27,7.27,0,0,1-2.93-2.92l-.05-.11L18,28.58l.13.17a15.52,15.52,0,0,0,1.35,1.57,13.86,13.86,0,0,0,1.75,1.5l.18.13Zm10.72-3.08a9.73,9.73,0,0,1-2.87,6.93l-3,3L25,31.59l6.3-4.89Zm8.92-19A18.14,18.14,0,0,1,33.2,24L23.06,31.9l-.1,0a14.57,14.57,0,0,1-2.35-1.74L20.48,30,24,26.47a.45.45,0,0,0,0-.66.43.43,0,0,0-.33-.13.46.46,0,0,0-.33.13l-3.51,3.52-.12-.14A13.62,13.62,0,0,1,18,26.92l-.06-.1,8.31-10.24A18.19,18.19,0,0,1,39.23,9.91l.62,0a.37.37,0,0,1,.26.11.38.38,0,0,1,.12.28Z"/></g></svg>